<?xml version="1.0" encoding="UTF-8"?>
<svg id="Layer_2" data-name="Layer 2" xmlns="http://www.w3.org/2000/svg" viewBox="0 0 823.72 200">
  <defs>
    <style>
      .cls-1 {
        fill: #fff;
      }

      .cls-2 {
        fill: #29b2fe;
      }
    </style>
  </defs>
  <g id="Layer_1-2" data-name="Layer 1">
    <path class="cls-2" d="M113.15,30.02L0,23.72l73.74,79.08L113.15,30.02ZM56.54,21.58l52.19,3.72L44.05,0l12.49,21.58ZM121.88,25.3L149.69,0l18.75,26.89-46.56-1.58ZM118.75,30.31l-40.96,75.62,37.2,40.92,41.85-39.04,11.57-74.99-49.65-2.5ZM80,117.79l-19.7,82.21,51.24-48.76-31.53-33.44ZM155.62,1.25l20,25.63L268.43,1.25h-112.82Z"/>
    <path class="cls-1" d="M242.57,47.81c.03,6.36-.36,12.69-1.19,18.98-6.56.23-14.76-2.14-14.53,9.13,10.08-.23,12.78,0,12.78,0,0,0-.46,19.93-15.49,19.18-5.4,30.48-10.54,57.2-10.54,57.2h-24.05l13.11-85.24s3.03-17.33,18.75-19.18l21.15-.07ZM232.03,152.36l12.65-77.79h22.04l1.71,5.86s5.54-7.74,22.17-5.86c-3.99,18.98-4.68,21.81-4.68,21.81,0,0-18.29-1.88-19.7,3.99-1.42,5.86-8.67,52.03-8.67,52.03l-25.54-.03ZM427.25,88.6c-4.91-8.9-13.84-17.03-34.93-14.37-21.09,2.67-36.21,23.43-35.16,51.6,2.14,23.43,18.78,27.58,24.61,28.37,39.6,4.68,40.1-15.95,40.33-23.69-8.2,0-12.06.16-15.49.23-.99,3.23-17.03,1.65-17.03,1.65,0,0-6.1-.46-6.56-11.24h44.32s4.84-23.62-.1-32.55ZM404.51,107.58c-4.45.46-19.44,0-19.44,0,5.86-23.2,22.01-13.11,19.44,0ZM738.48,88.6c-4.91-8.9-13.84-17.03-34.93-14.37s-36.21,23.43-35.16,51.6c2.14,23.43,18.78,27.58,24.61,28.37,39.6,4.68,40.1-15.95,40.33-23.69-8.2,0-12.06.16-15.49.23-.99,3.23-17.03,1.65-17.03,1.65,0,0-6.1-.46-6.56-11.24h44.25s4.78-23.62-.03-32.55ZM715.75,107.58c-4.45.46-19.44,0-19.44,0,5.77-23.2,21.94-13.11,19.34,0h.1Z"/>
    <path class="cls-1" d="M354.93,88.6c-4.91-8.9-13.84-17.03-34.93-14.37-21.09,2.67-36.21,23.43-35.16,51.6,2.14,23.43,18.78,27.58,24.61,28.37,39.6,4.68,40.1-15.95,40.33-23.69-8.2,0-12.06.16-15.49.23-.99,3.23-17.03,1.65-17.03,1.65,0,0-6.1-.46-6.56-11.24h44.25s4.91-23.62-.03-32.55h0ZM332.16,107.58c-4.45.46-19.44,0-19.44,0,5.96-23.2,22.04-13.11,19.44,0h0ZM443.89,49.69l-16.18,102.64h25.8l17.33-102.64h-26.95ZM530.38,152.36l13.11-78.09h22.97v5.96s7.97-8.67,29.06-5.96c21.09,2.67,10.54,40.13,10.54,40.13l-5.63,38.02h-25.3s5.86-38.35,7.02-48.53c-1.19-11.5-14.76-11-18.06-2.8-1.65,10.08-9.13,51.33-9.13,51.33l-24.58-.07ZM644.51,96.57h23.2l2.14-15.22s2.8-7.02-7.02-7.15-24.61,0-24.61,0c0,0-28.83,4.09-27.18,60.59,1.52,10.08,9.19,18.15,19.18,20.13,2.14.46,17.03,0,17.03,0,0,0,16.64-2.14,14.3-22.97-17.33.46-24.61,1.19-25.57-3.76-.99-4.91,1.98-29.75,8.53-31.63h0ZM744.35,100.3l30.31-26.13-11.57,78.19h-25.6l6.85-52.06Z"/>
    <path class="cls-2" d="M780.92,74.17l-4.38,28.01,47.18-28.43-42.8.43Z"/>
    <path class="cls-1" d="M515.39,74.23c-19.44-.16-23.92.16-31.17,0-7.28-.16-12.19,10.64-11.73,22.11h29.82s3.03-.46,3.29,2.14c.13,2.5.13,5.01,0,7.51h-21.61s-30.48,2.8-20.86,39.6c1.88,5.63,11.24,9.56,16.41,9.36,5.17-.2,18.06-4.91,20.16-6.79l.23,4.45,22.97-.23s7.74-48.04,8.67-52.03c.92-3.99,2.57-19.37-16.18-26.13h0ZM495.29,135.32c-9.06,0-10.31-8.76-3.1-13.44,7.18-3.13,11.57-1.25,11.57-1.25,0,0,.33,15.02-8.47,14.7h0Z"/>
  </g>
</svg>