<svg width="754" height="149" viewBox="0 0 754 149" fill="none" xmlns="http://www.w3.org/2000/svg">
<path d="M135.12 39C137.893 39 140.48 39.8 142.88 41.4C145.333 43 147.307 45.16 148.8 47.88C150.293 50.6 151.04 53.64 151.04 57C151.04 60.3067 150.293 63.32 148.8 66.04C147.307 68.76 145.333 70.9467 142.88 72.6C140.48 74.2 137.893 75 135.12 75H120.4L121.2 73.56V90.12C121.2 91.5067 120.773 92.68 119.92 93.64C119.067 94.5467 117.947 95 116.56 95C115.227 95 114.133 94.5467 113.28 93.64C112.427 92.68 112 91.5067 112 90.12V43.88C112 42.4933 112.453 41.3467 113.36 40.44C114.32 39.48 115.493 39 116.88 39H135.12ZM135.12 65.88C136.133 65.88 137.12 65.4533 138.08 64.6C139.04 63.7467 139.84 62.6533 140.48 61.32C141.12 59.9333 141.44 58.4933 141.44 57C141.44 55.4533 141.12 54.0133 140.48 52.68C139.84 51.3467 139.04 50.28 138.08 49.48C137.12 48.6267 136.133 48.2 135.12 48.2H120.24L121.2 46.76V67.16L120.32 65.88H135.12Z" fill="black"/>
<path d="M197.052 51.4C198.439 51.4 199.586 51.8533 200.493 52.76C201.399 53.6667 201.853 54.84 201.853 56.28V90.12C201.853 91.5067 201.399 92.68 200.493 93.64C199.586 94.5467 198.439 95 197.052 95C195.666 95 194.519 94.5467 193.613 93.64C192.706 92.68 192.253 91.5067 192.253 90.12V86.2L194.013 86.92C194.013 87.6133 193.639 88.4667 192.893 89.48C192.146 90.44 191.133 91.4 189.853 92.36C188.573 93.32 187.053 94.1467 185.293 94.84C183.586 95.48 181.719 95.8 179.692 95.8C176.012 95.8 172.679 94.8667 169.693 93C166.706 91.08 164.332 88.4667 162.572 85.16C160.866 81.8 160.013 77.96 160.013 73.64C160.013 69.2667 160.866 65.4267 162.572 62.12C164.332 58.76 166.679 56.1467 169.612 54.28C172.546 52.36 175.799 51.4 179.372 51.4C181.666 51.4 183.773 51.7467 185.693 52.44C187.613 53.1333 189.266 54.0133 190.653 55.08C192.093 56.1467 193.186 57.24 193.933 58.36C194.733 59.4267 195.132 60.3333 195.132 61.08L192.253 62.12V56.28C192.253 54.8933 192.706 53.7467 193.613 52.84C194.519 51.88 195.666 51.4 197.052 51.4ZM180.893 87C183.239 87 185.292 86.4133 187.052 85.24C188.812 84.0667 190.172 82.4667 191.132 80.44C192.146 78.4133 192.653 76.1467 192.653 73.64C192.653 71.08 192.146 68.7867 191.132 66.76C190.172 64.7333 188.812 63.1333 187.052 61.96C185.292 60.7867 183.239 60.2 180.893 60.2C178.599 60.2 176.573 60.7867 174.812 61.96C173.052 63.1333 171.666 64.7333 170.653 66.76C169.692 68.7867 169.213 71.08 169.213 73.64C169.213 76.1467 169.692 78.4133 170.653 80.44C171.666 82.4667 173.052 84.0667 174.812 85.24C176.573 86.4133 178.599 87 180.893 87Z" fill="black"/>
<path d="M241.007 52.2C242.394 52.2 243.54 52.68 244.447 53.64C245.354 54.5467 245.807 55.6933 245.807 57.08V91.08C245.807 95.9867 244.874 99.88 243.007 102.76C241.194 105.693 238.74 107.8 235.647 109.08C232.554 110.36 229.087 111 225.247 111C223.54 111 221.727 110.867 219.807 110.6C217.887 110.333 216.314 109.933 215.087 109.4C213.487 108.707 212.367 107.827 211.727 106.76C211.14 105.747 211.034 104.653 211.407 103.48C211.887 101.933 212.66 100.867 213.727 100.28C214.794 99.7467 215.914 99.6933 217.087 100.12C217.94 100.387 219.06 100.787 220.447 101.32C221.834 101.907 223.434 102.2 225.247 102.2C227.7 102.2 229.727 101.853 231.327 101.16C232.98 100.52 234.207 99.4 235.007 97.8C235.86 96.2533 236.287 94.12 236.287 91.4V86.04L237.967 87.96C237.06 89.72 235.914 91.1867 234.527 92.36C233.194 93.48 231.594 94.3333 229.727 94.92C227.86 95.5067 225.727 95.8 223.327 95.8C220.5 95.8 218.02 95.16 215.887 93.88C213.807 92.5467 212.18 90.7333 211.007 88.44C209.834 86.0933 209.247 83.4267 209.247 80.44V57.08C209.247 55.6933 209.7 54.5467 210.607 53.64C211.514 52.68 212.66 52.2 214.047 52.2C215.434 52.2 216.58 52.68 217.487 53.64C218.394 54.5467 218.847 55.6933 218.847 57.08V77.56C218.847 81.0267 219.594 83.48 221.087 84.92C222.634 86.3067 224.767 87 227.487 87C229.354 87 230.927 86.6533 232.207 85.96C233.487 85.2133 234.474 84.1467 235.167 82.76C235.86 81.32 236.207 79.5867 236.207 77.56V57.08C236.207 55.6933 236.66 54.5467 237.567 53.64C238.474 52.68 239.62 52.2 241.007 52.2Z" fill="black"/>
<path d="M290.24 51.4C291.627 51.4 292.773 51.8533 293.68 52.76C294.587 53.6667 295.04 54.84 295.04 56.28V90.12C295.04 91.5067 294.587 92.68 293.68 93.64C292.773 94.5467 291.627 95 290.24 95C288.853 95 287.707 94.5467 286.8 93.64C285.893 92.68 285.44 91.5067 285.44 90.12V86.2L287.2 86.92C287.2 87.6133 286.827 88.4667 286.08 89.48C285.333 90.44 284.32 91.4 283.04 92.36C281.76 93.32 280.24 94.1467 278.48 94.84C276.773 95.48 274.907 95.8 272.88 95.8C269.2 95.8 265.867 94.8667 262.88 93C259.893 91.08 257.52 88.4667 255.76 85.16C254.053 81.8 253.2 77.96 253.2 73.64C253.2 69.2667 254.053 65.4267 255.76 62.12C257.52 58.76 259.867 56.1467 262.8 54.28C265.733 52.36 268.987 51.4 272.56 51.4C274.853 51.4 276.96 51.7467 278.88 52.44C280.8 53.1333 282.453 54.0133 283.84 55.08C285.28 56.1467 286.373 57.24 287.12 58.36C287.92 59.4267 288.32 60.3333 288.32 61.08L285.44 62.12V56.28C285.44 54.8933 285.893 53.7467 286.8 52.84C287.707 51.88 288.853 51.4 290.24 51.4ZM274.08 87C276.427 87 278.48 86.4133 280.24 85.24C282 84.0667 283.36 82.4667 284.32 80.44C285.333 78.4133 285.84 76.1467 285.84 73.64C285.84 71.08 285.333 68.7867 284.32 66.76C283.36 64.7333 282 63.1333 280.24 61.96C278.48 60.7867 276.427 60.2 274.08 60.2C271.787 60.2 269.76 60.7867 268 61.96C266.24 63.1333 264.853 64.7333 263.84 66.76C262.88 68.7867 262.4 71.08 262.4 73.64C262.4 76.1467 262.88 78.4133 263.84 80.44C264.853 82.4667 266.24 84.0667 268 85.24C269.76 86.4133 271.787 87 274.08 87Z" fill="black"/>
<path d="M324.914 51.4C329.181 51.4 332.328 52.44 334.354 54.52C336.381 56.5467 337.714 59.1867 338.354 62.44L336.994 61.72L337.634 60.44C338.274 59.2133 339.261 57.9067 340.594 56.52C341.928 55.08 343.528 53.88 345.394 52.92C347.314 51.9067 349.448 51.4 351.794 51.4C355.634 51.4 358.541 52.2267 360.514 53.88C362.541 55.5333 363.928 57.7467 364.674 60.52C365.421 63.24 365.794 66.28 365.794 69.64V90.12C365.794 91.5067 365.341 92.68 364.434 93.64C363.528 94.5467 362.381 95 360.994 95C359.608 95 358.461 94.5467 357.554 93.64C356.648 92.68 356.194 91.5067 356.194 90.12V69.64C356.194 67.88 355.981 66.3067 355.554 64.92C355.128 63.48 354.354 62.3333 353.234 61.48C352.114 60.6267 350.514 60.2 348.434 60.2C346.408 60.2 344.674 60.6267 343.234 61.48C341.794 62.3333 340.701 63.48 339.954 64.92C339.261 66.3067 338.914 67.88 338.914 69.64V90.12C338.914 91.5067 338.461 92.68 337.554 93.64C336.648 94.5467 335.501 95 334.114 95C332.728 95 331.581 94.5467 330.674 93.64C329.768 92.68 329.314 91.5067 329.314 90.12V69.64C329.314 67.88 329.101 66.3067 328.674 64.92C328.248 63.48 327.474 62.3333 326.354 61.48C325.234 60.6267 323.634 60.2 321.554 60.2C319.528 60.2 317.794 60.6267 316.354 61.48C314.914 62.3333 313.821 63.48 313.074 64.92C312.381 66.3067 312.034 67.88 312.034 69.64V90.12C312.034 91.5067 311.581 92.68 310.674 93.64C309.768 94.5467 308.621 95 307.234 95C305.848 95 304.701 94.5467 303.794 93.64C302.888 92.68 302.434 91.5067 302.434 90.12V57.08C302.434 55.6933 302.888 54.5467 303.794 53.64C304.701 52.68 305.848 52.2 307.234 52.2C308.621 52.2 309.768 52.68 310.674 53.64C311.581 54.5467 312.034 55.6933 312.034 57.08V60.52L310.834 60.28C311.314 59.3733 311.981 58.4133 312.834 57.4C313.688 56.3333 314.728 55.3467 315.954 54.44C317.181 53.5333 318.541 52.8133 320.034 52.28C321.528 51.6933 323.154 51.4 324.914 51.4Z" fill="black"/>
<path d="M430.646 35.8C432.033 35.8 433.18 36.2533 434.086 37.16C434.993 38.0667 435.446 39.24 435.446 40.68V90.12C435.446 91.5067 434.993 92.68 434.086 93.64C433.18 94.5467 432.033 95 430.646 95C429.26 95 428.113 94.5467 427.206 93.64C426.3 92.68 425.846 91.5067 425.846 90.12V86.2L427.606 86.92C427.606 87.6133 427.233 88.4667 426.486 89.48C425.74 90.44 424.726 91.4 423.446 92.36C422.166 93.32 420.646 94.1467 418.886 94.84C417.18 95.48 415.313 95.8 413.286 95.8C409.606 95.8 406.273 94.8667 403.286 93C400.3 91.08 397.926 88.4667 396.166 85.16C394.46 81.8 393.606 77.96 393.606 73.64C393.606 69.2667 394.46 65.4267 396.166 62.12C397.926 58.76 400.273 56.1467 403.206 54.28C406.14 52.36 409.393 51.4 412.966 51.4C415.26 51.4 417.366 51.7467 419.286 52.44C421.206 53.1333 422.86 54.0133 424.246 55.08C425.686 56.1467 426.78 57.24 427.526 58.36C428.326 59.4267 428.726 60.3333 428.726 61.08L425.846 62.12V40.68C425.846 39.2933 426.3 38.1467 427.206 37.24C428.113 36.28 429.26 35.8 430.646 35.8ZM414.486 87C416.833 87 418.886 86.4133 420.646 85.24C422.406 84.0667 423.766 82.4667 424.726 80.44C425.74 78.4133 426.246 76.1467 426.246 73.64C426.246 71.08 425.74 68.7867 424.726 66.76C423.766 64.7333 422.406 63.1333 420.646 61.96C418.886 60.7867 416.833 60.2 414.486 60.2C412.193 60.2 410.166 60.7867 408.406 61.96C406.646 63.1333 405.26 64.7333 404.246 66.76C403.286 68.7867 402.806 71.08 402.806 73.64C402.806 76.1467 403.286 78.4133 404.246 80.44C405.26 82.4667 406.646 84.0667 408.406 85.24C410.166 86.4133 412.193 87 414.486 87Z" fill="black"/>
<path d="M465.001 95.8C460.467 95.8 456.521 94.8667 453.161 93C449.854 91.08 447.294 88.4933 445.481 85.24C443.721 81.9867 442.841 78.3067 442.841 74.2C442.841 69.4 443.801 65.32 445.721 61.96C447.694 58.5467 450.254 55.9333 453.401 54.12C456.547 52.3067 459.881 51.4 463.401 51.4C466.121 51.4 468.681 51.96 471.081 53.08C473.534 54.2 475.694 55.7467 477.561 57.72C479.427 59.64 480.894 61.88 481.961 64.44C483.081 67 483.641 69.72 483.641 72.6C483.587 73.88 483.081 74.92 482.121 75.72C481.161 76.52 480.041 76.92 478.761 76.92H448.201L445.801 68.92H475.161L473.401 70.52V68.36C473.294 66.8133 472.734 65.4267 471.721 64.2C470.761 62.9733 469.534 62.0133 468.041 61.32C466.601 60.5733 465.054 60.2 463.401 60.2C461.801 60.2 460.307 60.4133 458.921 60.84C457.534 61.2667 456.334 61.9867 455.321 63C454.307 64.0133 453.507 65.3733 452.921 67.08C452.334 68.7867 452.041 70.9467 452.041 73.56C452.041 76.44 452.627 78.8933 453.801 80.92C455.027 82.8933 456.574 84.4133 458.441 85.48C460.361 86.4933 462.387 87 464.521 87C466.494 87 468.067 86.84 469.241 86.52C470.414 86.2 471.347 85.8267 472.041 85.4C472.787 84.92 473.454 84.52 474.041 84.2C475.001 83.72 475.907 83.48 476.761 83.48C477.934 83.48 478.894 83.88 479.641 84.68C480.441 85.48 480.841 86.4133 480.841 87.48C480.841 88.92 480.094 90.2267 478.601 91.4C477.214 92.5733 475.267 93.6133 472.761 94.52C470.254 95.3733 467.667 95.8 465.001 95.8Z" fill="black"/>
<path d="M514.508 51.4C518.348 51.4 521.255 52.2267 523.228 53.88C525.255 55.5333 526.641 57.7467 527.388 60.52C528.135 63.24 528.508 66.28 528.508 69.64V90.12C528.508 91.5067 528.055 92.68 527.148 93.64C526.241 94.5467 525.095 95 523.708 95C522.321 95 521.175 94.5467 520.268 93.64C519.361 92.68 518.908 91.5067 518.908 90.12V69.64C518.908 67.88 518.695 66.3067 518.268 64.92C517.841 63.48 517.068 62.3333 515.948 61.48C514.828 60.6267 513.228 60.2 511.148 60.2C509.121 60.2 507.388 60.6267 505.948 61.48C504.508 62.3333 503.415 63.48 502.668 64.92C501.975 66.3067 501.628 67.88 501.628 69.64V90.12C501.628 91.5067 501.175 92.68 500.268 93.64C499.361 94.5467 498.215 95 496.828 95C495.441 95 494.295 94.5467 493.388 93.64C492.481 92.68 492.028 91.5067 492.028 90.12V40.68C492.028 39.2933 492.481 38.1467 493.388 37.24C494.295 36.28 495.441 35.8 496.828 35.8C498.215 35.8 499.361 36.28 500.268 37.24C501.175 38.1467 501.628 39.2933 501.628 40.68V60.52L500.428 60.28C500.908 59.3733 501.575 58.4133 502.428 57.4C503.281 56.3333 504.321 55.3467 505.548 54.44C506.775 53.5333 508.135 52.8133 509.628 52.28C511.121 51.6933 512.748 51.4 514.508 51.4Z" fill="black"/>
<path d="M540.503 95C539.116 95 537.97 94.5467 537.063 93.64C536.156 92.68 535.703 91.5067 535.703 90.12V40.68C535.703 39.2933 536.156 38.1467 537.063 37.24C537.97 36.28 539.116 35.8 540.503 35.8C541.89 35.8 543.036 36.28 543.943 37.24C544.85 38.1467 545.303 39.2933 545.303 40.68V90.12C545.303 91.5067 544.85 92.68 543.943 93.64C543.036 94.5467 541.89 95 540.503 95ZM565.943 52.2C567.17 52.2 568.236 52.7067 569.143 53.72C570.05 54.7333 570.503 55.72 570.503 56.68C570.503 57.96 569.863 59.16 568.583 60.28L544.503 82.44L544.103 71.4L562.423 53.72C563.436 52.7067 564.61 52.2 565.943 52.2ZM567.143 94.92C565.756 94.92 564.583 94.3867 563.623 93.32L548.823 77.64L556.103 70.92L570.503 86.6C571.516 87.6667 572.023 88.8667 572.023 90.2C572.023 91.5867 571.463 92.7333 570.343 93.64C569.276 94.4933 568.21 94.92 567.143 94.92Z" fill="black"/>
<path d="M623.173 73.64C623.173 78.0133 622.186 81.88 620.213 85.24C618.293 88.5467 615.68 91.1333 612.373 93C609.12 94.8667 605.466 95.8 601.413 95.8C597.36 95.8 593.68 94.8667 590.373 93C587.12 91.1333 584.506 88.5467 582.533 85.24C580.613 81.88 579.653 78.0133 579.653 73.64C579.653 69.2667 580.613 65.4267 582.533 62.12C584.506 58.76 587.12 56.1467 590.373 54.28C593.68 52.36 597.36 51.4 601.413 51.4C605.466 51.4 609.12 52.36 612.373 54.28C615.68 56.1467 618.293 58.76 620.213 62.12C622.186 65.4267 623.173 69.2667 623.173 73.64ZM613.573 73.64C613.573 70.92 613.013 68.5733 611.893 66.6C610.826 64.5733 609.36 63 607.493 61.88C605.68 60.76 603.653 60.2 601.413 60.2C599.173 60.2 597.12 60.76 595.253 61.88C593.44 63 591.973 64.5733 590.853 66.6C589.786 68.5733 589.253 70.92 589.253 73.64C589.253 76.3067 589.786 78.6533 590.853 80.68C591.973 82.6533 593.44 84.2 595.253 85.32C597.12 86.44 599.173 87 601.413 87C603.653 87 605.68 86.44 607.493 85.32C609.36 84.2 610.826 82.6533 611.893 80.68C613.013 78.6533 613.573 76.3067 613.573 73.64Z" fill="black"/>
<path d="M636.375 95C634.988 95 633.842 94.5467 632.935 93.64C632.028 92.68 631.575 91.5067 631.575 90.12V57.08C631.575 55.6933 632.028 54.5467 632.935 53.64C633.842 52.68 634.988 52.2 636.375 52.2C637.762 52.2 638.908 52.68 639.815 53.64C640.722 54.5467 641.175 55.6933 641.175 57.08V64.6L640.615 59.24C641.202 57.96 641.948 56.84 642.855 55.88C643.815 54.8667 644.882 54.04 646.055 53.4C647.228 52.7067 648.482 52.2 649.815 51.88C651.148 51.56 652.482 51.4 653.815 51.4C655.415 51.4 656.748 51.8533 657.815 52.76C658.935 53.6667 659.495 54.7333 659.495 55.96C659.495 57.72 659.042 59 658.135 59.8C657.228 60.5467 656.242 60.92 655.175 60.92C654.162 60.92 653.228 60.7333 652.375 60.36C651.575 59.9867 650.642 59.8 649.575 59.8C648.615 59.8 647.628 60.04 646.615 60.52C645.655 60.9467 644.748 61.64 643.895 62.6C643.095 63.56 642.428 64.76 641.895 66.2C641.415 67.5867 641.175 69.24 641.175 71.16V90.12C641.175 91.5067 640.722 92.68 639.815 93.64C638.908 94.5467 637.762 95 636.375 95Z" fill="black"/>
<path d="M703.506 35.8C704.892 35.8 706.039 36.2533 706.946 37.16C707.852 38.0667 708.306 39.24 708.306 40.68V90.12C708.306 91.5067 707.852 92.68 706.946 93.64C706.039 94.5467 704.892 95 703.506 95C702.119 95 700.972 94.5467 700.066 93.64C699.159 92.68 698.706 91.5067 698.706 90.12V86.2L700.466 86.92C700.466 87.6133 700.092 88.4667 699.346 89.48C698.599 90.44 697.586 91.4 696.306 92.36C695.026 93.32 693.506 94.1467 691.746 94.84C690.039 95.48 688.172 95.8 686.146 95.8C682.466 95.8 679.132 94.8667 676.146 93C673.159 91.08 670.786 88.4667 669.026 85.16C667.319 81.8 666.466 77.96 666.466 73.64C666.466 69.2667 667.319 65.4267 669.026 62.12C670.786 58.76 673.132 56.1467 676.066 54.28C678.999 52.36 682.252 51.4 685.826 51.4C688.119 51.4 690.226 51.7467 692.146 52.44C694.066 53.1333 695.719 54.0133 697.106 55.08C698.546 56.1467 699.639 57.24 700.386 58.36C701.186 59.4267 701.586 60.3333 701.586 61.08L698.706 62.12V40.68C698.706 39.2933 699.159 38.1467 700.066 37.24C700.972 36.28 702.119 35.8 703.506 35.8ZM687.346 87C689.692 87 691.746 86.4133 693.506 85.24C695.266 84.0667 696.626 82.4667 697.586 80.44C698.599 78.4133 699.106 76.1467 699.106 73.64C699.106 71.08 698.599 68.7867 697.586 66.76C696.626 64.7333 695.266 63.1333 693.506 61.96C691.746 60.7867 689.692 60.2 687.346 60.2C685.052 60.2 683.026 60.7867 681.266 61.96C679.506 63.1333 678.119 64.7333 677.106 66.76C676.146 68.7867 675.666 71.08 675.666 73.64C675.666 76.1467 676.146 78.4133 677.106 80.44C678.119 82.4667 679.506 84.0667 681.266 85.24C683.026 86.4133 685.052 87 687.346 87Z" fill="black"/>
<path d="M748.46 52.2C749.847 52.2 750.993 52.68 751.9 53.64C752.807 54.5467 753.26 55.6933 753.26 57.08V91.08C753.26 95.9867 752.327 99.88 750.46 102.76C748.647 105.693 746.193 107.8 743.1 109.08C740.007 110.36 736.54 111 732.7 111C730.993 111 729.18 110.867 727.26 110.6C725.34 110.333 723.767 109.933 722.54 109.4C720.94 108.707 719.82 107.827 719.18 106.76C718.593 105.747 718.487 104.653 718.86 103.48C719.34 101.933 720.113 100.867 721.18 100.28C722.247 99.7467 723.367 99.6933 724.54 100.12C725.393 100.387 726.513 100.787 727.9 101.32C729.287 101.907 730.887 102.2 732.7 102.2C735.153 102.2 737.18 101.853 738.78 101.16C740.433 100.52 741.66 99.4 742.46 97.8C743.313 96.2533 743.74 94.12 743.74 91.4V86.04L745.42 87.96C744.513 89.72 743.367 91.1867 741.98 92.36C740.647 93.48 739.047 94.3333 737.18 94.92C735.313 95.5067 733.18 95.8 730.78 95.8C727.953 95.8 725.473 95.16 723.34 93.88C721.26 92.5467 719.633 90.7333 718.46 88.44C717.287 86.0933 716.7 83.4267 716.7 80.44V57.08C716.7 55.6933 717.153 54.5467 718.06 53.64C718.967 52.68 720.113 52.2 721.5 52.2C722.887 52.2 724.033 52.68 724.94 53.64C725.847 54.5467 726.3 55.6933 726.3 57.08V77.56C726.3 81.0267 727.047 83.48 728.54 84.92C730.087 86.3067 732.22 87 734.94 87C736.807 87 738.38 86.6533 739.66 85.96C740.94 85.2133 741.927 84.1467 742.62 82.76C743.313 81.32 743.66 79.5867 743.66 77.56V57.08C743.66 55.6933 744.113 54.5467 745.02 53.64C745.927 52.68 747.073 52.2 748.46 52.2Z" fill="black"/>
<rect x="28.1803" y="83.5654" width="13.9276" height="64.5732" rx="6.96378" fill="#335A6D"/>
<rect x="28.1803" width="13.9276" height="64.5732" rx="6.96378" fill="#C39935"/>
<rect x="53.5031" y="37.9843" width="13.9276" height="64.5732" rx="6.96378" fill="#335A6D"/>
<rect x="2.85748" y="45.5811" width="13.9276" height="64.5732" rx="6.96378" fill="#C39935"/>
<rect x="34.174" y="18.1421" width="13.9276" height="48.3293" rx="6.96378" transform="rotate(45 34.174 18.1421)" fill="#C39935"/>
<rect x="60.3755" y="86.0977" width="13.9276" height="48.3523" rx="6.96378" transform="rotate(45 60.3755 86.0977)" fill="#335A6D"/>
<rect x="45.7094" y="40.0388" width="13.9276" height="20.8632" rx="6.96378" transform="rotate(-45 45.7094 40.0388)" fill="#335A6D"/>
<rect x="0.0126953" y="103.23" width="13.9276" height="20.725" rx="6.96378" transform="rotate(-45 0.0126953 103.23)" fill="#C39935"/>
</svg>
