<?xml version="1.0" encoding="UTF-8"?>
<svg id="Layer_2" data-name="Layer 2" xmlns="http://www.w3.org/2000/svg" viewBox="0 0 920.05 200">
  <defs>
    <style>
      .cls-1 {
        fill: #573885;
      }
    </style>
  </defs>
  <g id="Layer_1-2" data-name="Layer 1">
    <g>
      <path class="cls-1" d="M64.03,23.27c0-6.15-3.07-10.76-16.65-10.76s-16.67,4.61-16.67,10.76v16.65c0,5.05,1.75,10.09,6.58,14.25l46.02,39.47c6.6,5.48,10.54,12.28,10.54,19.29v24.99c0,14.93-17.56,23.25-46.49,23.25C15.35,161.18-.01,153.95,0,137.93v-21.69h28.95v20.82c-.01,7.47,5.7,11.85,18.41,11.85,11.85,0,17.54-4.38,17.54-11.85v-22.15c0-5.48-2.19-9.65-8.32-15.12L14.02,62.74c-7.89-6.81-12.28-12.08-12.28-20.18v-19.07C1.74,7.92,17.97.24,47.37.24c32.45,0,45.59,7.68,45.59,22.15v20.18h-28.94v-19.3Z"/>
      <path class="cls-1" d="M372.25,133.73c0,8.77,3.49,14.92,21.92,14.92s21.93-6.15,21.93-14.92V27.16c0-8.76-3.51-14.91-21.92-14.91s-21.93,6.15-21.93,14.91v106.56ZM343.31,26.74c0-15.57,11.82-26.74,50.87-26.74s50.87,11.17,50.87,26.74v107.41c-.01,15.57-11.83,26.76-50.88,26.76s-50.87-11.19-50.87-26.76V26.74Z"/>
      <path class="cls-1" d="M504.8,75.87c13.16,0,22.36-1.75,22.36-9.87V23.24c0-8.12-9.2-9.87-22.36-9.87h-14.02v62.5h14.02ZM461.83,1.09h46.06c37.28,0,48.24,6.13,48.24,24.12l-.03,38.81c0,17.98-10.96,24.12-48.21,24.12h-17.11v71.26h-28.95V1.09Z"/>
      <path class="cls-1" d="M627.88,23.27c0-6.15-3.07-10.75-16.65-10.75s-16.68,4.61-16.68,10.75v16.65c0,5.05,1.75,10.09,6.58,14.25l46.06,39.47c6.57,5.48,10.51,12.28,10.51,19.29v25.01c0,14.92-17.53,23.24-46.48,23.24-32.01,0-47.37-7.23-47.37-23.25v-21.7h28.95v20.83c0,7.47,5.71,11.85,18.42,11.85,11.85,0,17.54-4.38,17.54-11.85v-22.15c0-5.48-2.17-9.64-8.34-15.12l-42.53-37.07c-7.91-6.8-12.28-12.07-12.28-20.17v-19.09c0-15.57,16.22-23.24,45.62-23.24,32.44,0,45.59,7.67,45.59,22.16v20.17h-28.94v-19.28Z"/>
      <path class="cls-1" d="M841.43,23.27c0-6.15-3.07-10.75-16.65-10.75s-16.67,4.61-16.67,10.75v16.67c0,5.03,1.75,10.07,6.58,14.23l46.04,39.49c6.58,5.48,10.51,12.27,10.51,19.28v25.01c0,14.92-17.53,23.24-46.47,23.24-32.02,0-47.39-7.23-47.39-23.24v-21.71h28.96v20.83c-.01,7.47,5.7,11.85,18.43,11.85,11.81,0,17.53-4.38,17.53-11.85v-22.15c0-5.48-2.19-9.64-8.34-15.12l-42.53-37.07c-7.9-6.78-12.28-12.04-12.28-20.17v-19.09c0-15.54,16.22-23.24,45.62-23.24,32.44,0,45.6,7.7,45.6,22.16v20.17h-28.95v-19.29Z"/>
      <path class="cls-1" d="M183.95,1.18h28.99l-63.43,198.72h-28.98L183.95,1.18Z"/>
      <path class="cls-1" d="M137.66,125.31L98.45,2.23h28.98l24.72,77.6-14.49,45.48Z"/>
      <path class="cls-1" d="M746.75,1.18h28.98l-63.43,198.82h-28.98L746.75,1.18Z"/>
      <path class="cls-1" d="M701.52,124.26L662.3,1.18h28.98l24.73,77.61-14.5,45.47Z"/>
      <path class="cls-1" d="M325.97,160.03h.15V25.9c0-17.99-10.97-24.13-48.23-24.13h-55.83v158.32s28.93,0,28.93,0v-.06s.01-146.01.01-146.01h23.82c13.15,0,22.35,1.77,22.35,9.87v136.12l28.8.02Z"/>
      <path class="cls-1" d="M901.39,20.11c2.73,0,5.16-.19,5.16-3.45,0-2.65-2.38-3.12-4.62-3.12h-4.39v6.57h3.86ZM897.54,32.06h-3.23V10.81h8.1c5.03,0,7.52,1.84,7.52,6.03,0,3.83-2.41,5.48-5.52,5.87l6.04,9.35h-3.6l-5.62-9.2h-3.7v9.2ZM901.45,36.8c8.34,0,14.91-6.54,14.91-15.42s-6.57-15.31-14.91-15.31-15.03,6.58-15.03,15.31,6.57,15.42,15.03,15.42M882.7,21.38c0-10.57,8.58-18.38,18.75-18.38s18.6,7.81,18.6,18.38-8.57,18.49-18.6,18.49-18.75-7.81-18.75-18.49"/>
    </g>
  </g>
</svg>