<svg width="1477" height="404" viewBox="0 0 1477 404" fill="none" xmlns="http://www.w3.org/2000/svg">
<path d="M392.872 402.567L1.10782 402.567L189.405 189.119L100.155 343.705L392.872 402.567Z" fill="url(#paint0_linear_101_38)"/>
<path d="M271.387 61.9374L467.27 401.215L188.27 344.87H366.77L271.387 61.9374Z" fill="url(#paint1_linear_101_38)"/>
<path d="M46.4566 327.015L234.784 1.20874L325.488 271.003L236.238 116.417L46.4566 327.015Z" fill="url(#paint2_linear_101_38)"/>
<path d="M392.872 402.567L1.10782 402.567L189.405 189.119L100.155 343.705L392.872 402.567Z" stroke="black"/>
<path d="M271.387 61.9374L467.27 401.215L188.27 344.87H366.77L271.387 61.9374Z" stroke="black"/>
<path d="M46.4566 327.015L234.784 1.20874L325.488 271.003L236.238 116.417L46.4566 327.015Z" stroke="black"/>
<mask id="path-2-outside-1_101_38" maskUnits="userSpaceOnUse" x="555.108" y="117.209" width="921" height="130" fill="black">
<rect fill="white" x="555.108" y="117.209" width="921" height="130"/>
<path d="M556.108 119.962H610.454C622.351 119.962 631.882 121.482 639.047 124.521C646.212 127.56 651.417 131.71 654.661 136.97C658.041 142.114 659.731 147.959 659.731 154.505C659.731 160.116 658.244 164.674 655.27 168.181C652.431 171.688 648.848 174.318 644.522 176.072C640.331 177.825 636.14 178.877 631.949 179.228V179.754C635.194 179.871 638.709 180.514 642.494 181.683C646.415 182.735 650.065 184.43 653.445 186.768C656.96 189.106 659.799 192.145 661.962 195.885C664.26 199.509 665.409 203.951 665.409 209.211C665.409 215.641 663.787 221.485 660.542 226.746C657.298 232.006 651.755 236.214 643.914 239.37C636.208 242.41 625.663 243.929 612.279 243.929H556.108V119.962ZM612.077 223.765C619.512 223.765 625.055 223.18 628.705 222.011C632.49 220.726 634.991 218.855 636.208 216.401C637.425 213.946 638.033 210.965 638.033 207.458C638.033 204.068 637.154 201.204 635.397 198.866C633.639 196.411 630.936 194.541 627.285 193.255C623.635 191.853 618.904 191.151 613.09 191.151H584.092V223.765H612.077ZM609.846 170.811C617.417 170.811 623.095 169.584 626.88 167.129C630.665 164.558 632.558 160.525 632.558 155.031C632.558 151.991 632.017 149.361 630.936 147.14C629.854 144.919 627.691 143.224 624.446 142.055C621.337 140.769 616.673 140.127 610.454 140.127H584.092V170.811H609.846Z"/>
<path d="M698.081 119.962L732.96 170.461H733.366L768.245 119.962H800.082L747.155 193.781V243.929H719.171V193.781L666.447 119.962H698.081Z"/>
<path d="M929.293 119.962V198.516C929.293 208.101 927.13 216.517 922.804 223.765C918.478 230.895 911.989 236.448 903.337 240.422C894.82 244.28 884.004 246.209 870.891 246.209C857.913 246.209 847.097 244.28 838.445 240.422C829.793 236.448 823.304 230.895 818.978 223.765C814.652 216.517 812.489 208.101 812.489 198.516V119.962H840.473V197.288C840.473 203.25 841.352 208.393 843.109 212.718C845.002 216.927 848.111 220.2 852.437 222.537C856.899 224.875 863.05 226.044 870.891 226.044C878.732 226.044 884.815 224.875 889.142 222.537C893.603 220.2 896.712 216.927 898.47 212.718C900.362 208.393 901.309 203.25 901.309 197.288V119.962H929.293Z"/>
<path d="M1033.86 182.91L1072.59 243.929H1040.95L1005.87 186.943L1033.86 182.91ZM1010.54 178.877C1017.7 178.877 1023.11 178.234 1026.76 176.948C1030.41 175.546 1032.84 173.442 1034.06 170.636C1035.41 167.831 1036.09 164.265 1036.09 159.94C1036.09 155.498 1035.41 151.816 1034.06 148.894C1032.84 145.971 1030.34 143.809 1026.56 142.406C1022.91 140.886 1017.5 140.127 1010.33 140.127H987.418V178.877H1010.54ZM1011.35 199.042H987.418V243.929H959.434V119.962H1011.14C1024.26 119.962 1034.67 121.774 1042.37 125.398C1050.08 128.905 1055.62 133.697 1059 139.776C1062.38 145.737 1064.07 152.459 1064.07 159.94C1064.07 164.967 1063.26 169.818 1061.64 174.494C1060.01 179.169 1057.24 183.378 1053.32 187.118C1049.4 190.742 1043.99 193.664 1037.1 195.885C1030.34 197.99 1021.76 199.042 1011.35 199.042Z"/>
<path d="M1099.46 119.962H1192.53V140.127H1127.44V171.513H1187.87V191.677H1127.44V223.765H1193.55V243.929H1099.46V119.962Z"/>
<path d="M1304.01 196.938H1271.36V176.773H1331.38V193.606C1331.38 203.074 1329.29 211.783 1325.1 219.732C1321.04 227.564 1314.55 233.876 1305.63 238.669C1296.71 243.345 1285.01 245.683 1270.55 245.683C1249.59 245.683 1233.44 240.247 1222.08 229.376C1210.86 218.505 1205.25 202.665 1205.25 181.858C1205.25 161.168 1210.86 145.387 1222.08 134.516C1233.44 123.644 1249.59 118.209 1270.55 118.209C1281.63 118.209 1291.5 119.962 1300.16 123.469C1308.94 126.976 1316.04 131.944 1321.45 138.373C1326.86 144.685 1329.96 152.167 1330.78 160.817H1303.2C1302.12 153.686 1298.87 148.192 1293.46 144.335C1288.19 140.36 1280.55 138.373 1270.55 138.373C1257.98 138.373 1248.58 141.997 1242.36 149.244C1236.28 156.375 1233.24 167.246 1233.24 181.858C1233.24 196.47 1236.28 207.4 1242.36 214.647C1248.58 221.895 1257.98 225.518 1270.55 225.518C1275.82 225.518 1280.35 224.992 1284.14 223.94C1287.92 222.888 1291.03 221.427 1293.46 219.557C1296.03 217.686 1298.06 215.524 1299.55 213.069C1301.17 210.614 1302.25 208.043 1302.79 205.354C1303.47 202.548 1303.87 199.743 1304.01 196.938Z"/>
<path d="M1357.29 119.962H1385.27V171.513H1447.12V119.962H1475.11V243.929H1447.12V191.677H1385.27V243.929H1357.29V119.962Z"/>
</mask>
<path d="M556.108 119.962H610.454C622.351 119.962 631.882 121.482 639.047 124.521C646.212 127.56 651.417 131.71 654.661 136.97C658.041 142.114 659.731 147.959 659.731 154.505C659.731 160.116 658.244 164.674 655.27 168.181C652.431 171.688 648.848 174.318 644.522 176.072C640.331 177.825 636.14 178.877 631.949 179.228V179.754C635.194 179.871 638.709 180.514 642.494 181.683C646.415 182.735 650.065 184.43 653.445 186.768C656.96 189.106 659.799 192.145 661.962 195.885C664.26 199.509 665.409 203.951 665.409 209.211C665.409 215.641 663.787 221.485 660.542 226.746C657.298 232.006 651.755 236.214 643.914 239.37C636.208 242.41 625.663 243.929 612.279 243.929H556.108V119.962ZM612.077 223.765C619.512 223.765 625.055 223.18 628.705 222.011C632.49 220.726 634.991 218.855 636.208 216.401C637.425 213.946 638.033 210.965 638.033 207.458C638.033 204.068 637.154 201.204 635.397 198.866C633.639 196.411 630.936 194.541 627.285 193.255C623.635 191.853 618.904 191.151 613.09 191.151H584.092V223.765H612.077ZM609.846 170.811C617.417 170.811 623.095 169.584 626.88 167.129C630.665 164.558 632.558 160.525 632.558 155.031C632.558 151.991 632.017 149.361 630.936 147.14C629.854 144.919 627.691 143.224 624.446 142.055C621.337 140.769 616.673 140.127 610.454 140.127H584.092V170.811H609.846Z" fill="#5F4CE4"/>
<path d="M698.081 119.962L732.96 170.461H733.366L768.245 119.962H800.082L747.155 193.781V243.929H719.171V193.781L666.447 119.962H698.081Z" fill="#5F4CE4"/>
<path d="M929.293 119.962V198.516C929.293 208.101 927.13 216.517 922.804 223.765C918.478 230.895 911.989 236.448 903.337 240.422C894.82 244.28 884.004 246.209 870.891 246.209C857.913 246.209 847.097 244.28 838.445 240.422C829.793 236.448 823.304 230.895 818.978 223.765C814.652 216.517 812.489 208.101 812.489 198.516V119.962H840.473V197.288C840.473 203.25 841.352 208.393 843.109 212.718C845.002 216.927 848.111 220.2 852.437 222.537C856.899 224.875 863.05 226.044 870.891 226.044C878.732 226.044 884.815 224.875 889.142 222.537C893.603 220.2 896.712 216.927 898.47 212.718C900.362 208.393 901.309 203.25 901.309 197.288V119.962H929.293Z" fill="#5F4CE4"/>
<path d="M1033.86 182.91L1072.59 243.929H1040.95L1005.87 186.943L1033.86 182.91ZM1010.54 178.877C1017.7 178.877 1023.11 178.234 1026.76 176.948C1030.41 175.546 1032.84 173.442 1034.06 170.636C1035.41 167.831 1036.09 164.265 1036.09 159.94C1036.09 155.498 1035.41 151.816 1034.06 148.894C1032.84 145.971 1030.34 143.809 1026.56 142.406C1022.91 140.886 1017.5 140.127 1010.33 140.127H987.418V178.877H1010.54ZM1011.35 199.042H987.418V243.929H959.434V119.962H1011.14C1024.26 119.962 1034.67 121.774 1042.37 125.398C1050.08 128.905 1055.62 133.697 1059 139.776C1062.38 145.737 1064.07 152.459 1064.07 159.94C1064.07 164.967 1063.26 169.818 1061.64 174.494C1060.01 179.169 1057.24 183.378 1053.32 187.118C1049.4 190.742 1043.99 193.664 1037.1 195.885C1030.34 197.99 1021.76 199.042 1011.35 199.042Z" fill="#5F4CE4"/>
<path d="M1099.46 119.962H1192.53V140.127H1127.44V171.513H1187.87V191.677H1127.44V223.765H1193.55V243.929H1099.46V119.962Z" fill="#5F4CE4"/>
<path d="M1304.01 196.938H1271.36V176.773H1331.38V193.606C1331.38 203.074 1329.29 211.783 1325.1 219.732C1321.04 227.564 1314.55 233.876 1305.63 238.669C1296.71 243.345 1285.01 245.683 1270.55 245.683C1249.59 245.683 1233.44 240.247 1222.08 229.376C1210.86 218.505 1205.25 202.665 1205.25 181.858C1205.25 161.168 1210.86 145.387 1222.08 134.516C1233.44 123.644 1249.59 118.209 1270.55 118.209C1281.63 118.209 1291.5 119.962 1300.16 123.469C1308.94 126.976 1316.04 131.944 1321.45 138.373C1326.86 144.685 1329.96 152.167 1330.78 160.817H1303.2C1302.12 153.686 1298.87 148.192 1293.46 144.335C1288.19 140.36 1280.55 138.373 1270.55 138.373C1257.98 138.373 1248.58 141.997 1242.36 149.244C1236.28 156.375 1233.24 167.246 1233.24 181.858C1233.24 196.47 1236.28 207.4 1242.36 214.647C1248.58 221.895 1257.98 225.518 1270.55 225.518C1275.82 225.518 1280.35 224.992 1284.14 223.94C1287.92 222.888 1291.03 221.427 1293.46 219.557C1296.03 217.686 1298.06 215.524 1299.55 213.069C1301.17 210.614 1302.25 208.043 1302.79 205.354C1303.47 202.548 1303.87 199.743 1304.01 196.938Z" fill="#5F4CE4"/>
<path d="M1357.29 119.962H1385.27V171.513H1447.12V119.962H1475.11V243.929H1447.12V191.677H1385.27V243.929H1357.29V119.962Z" fill="#5F4CE4"/>
<path d="M556.108 119.962H610.454C622.351 119.962 631.882 121.482 639.047 124.521C646.212 127.56 651.417 131.71 654.661 136.97C658.041 142.114 659.731 147.959 659.731 154.505C659.731 160.116 658.244 164.674 655.27 168.181C652.431 171.688 648.848 174.318 644.522 176.072C640.331 177.825 636.14 178.877 631.949 179.228V179.754C635.194 179.871 638.709 180.514 642.494 181.683C646.415 182.735 650.065 184.43 653.445 186.768C656.96 189.106 659.799 192.145 661.962 195.885C664.26 199.509 665.409 203.951 665.409 209.211C665.409 215.641 663.787 221.485 660.542 226.746C657.298 232.006 651.755 236.214 643.914 239.37C636.208 242.41 625.663 243.929 612.279 243.929H556.108V119.962ZM612.077 223.765C619.512 223.765 625.055 223.18 628.705 222.011C632.49 220.726 634.991 218.855 636.208 216.401C637.425 213.946 638.033 210.965 638.033 207.458C638.033 204.068 637.154 201.204 635.397 198.866C633.639 196.411 630.936 194.541 627.285 193.255C623.635 191.853 618.904 191.151 613.09 191.151H584.092V223.765H612.077ZM609.846 170.811C617.417 170.811 623.095 169.584 626.88 167.129C630.665 164.558 632.558 160.525 632.558 155.031C632.558 151.991 632.017 149.361 630.936 147.14C629.854 144.919 627.691 143.224 624.446 142.055C621.337 140.769 616.673 140.127 610.454 140.127H584.092V170.811H609.846Z" stroke="black" stroke-width="2" mask="url(#path-2-outside-1_101_38)"/>
<path d="M698.081 119.962L732.96 170.461H733.366L768.245 119.962H800.082L747.155 193.781V243.929H719.171V193.781L666.447 119.962H698.081Z" stroke="black" stroke-width="2" mask="url(#path-2-outside-1_101_38)"/>
<path d="M929.293 119.962V198.516C929.293 208.101 927.13 216.517 922.804 223.765C918.478 230.895 911.989 236.448 903.337 240.422C894.82 244.28 884.004 246.209 870.891 246.209C857.913 246.209 847.097 244.28 838.445 240.422C829.793 236.448 823.304 230.895 818.978 223.765C814.652 216.517 812.489 208.101 812.489 198.516V119.962H840.473V197.288C840.473 203.25 841.352 208.393 843.109 212.718C845.002 216.927 848.111 220.2 852.437 222.537C856.899 224.875 863.05 226.044 870.891 226.044C878.732 226.044 884.815 224.875 889.142 222.537C893.603 220.2 896.712 216.927 898.47 212.718C900.362 208.393 901.309 203.25 901.309 197.288V119.962H929.293Z" stroke="black" stroke-width="2" mask="url(#path-2-outside-1_101_38)"/>
<path d="M1033.86 182.91L1072.59 243.929H1040.95L1005.87 186.943L1033.86 182.91ZM1010.54 178.877C1017.7 178.877 1023.11 178.234 1026.76 176.948C1030.41 175.546 1032.84 173.442 1034.06 170.636C1035.41 167.831 1036.09 164.265 1036.09 159.94C1036.09 155.498 1035.41 151.816 1034.06 148.894C1032.84 145.971 1030.34 143.809 1026.56 142.406C1022.91 140.886 1017.5 140.127 1010.33 140.127H987.418V178.877H1010.54ZM1011.35 199.042H987.418V243.929H959.434V119.962H1011.14C1024.26 119.962 1034.67 121.774 1042.37 125.398C1050.08 128.905 1055.62 133.697 1059 139.776C1062.38 145.737 1064.07 152.459 1064.07 159.94C1064.07 164.967 1063.26 169.818 1061.64 174.494C1060.01 179.169 1057.24 183.378 1053.32 187.118C1049.4 190.742 1043.99 193.664 1037.1 195.885C1030.34 197.99 1021.76 199.042 1011.35 199.042Z" stroke="black" stroke-width="2" mask="url(#path-2-outside-1_101_38)"/>
<path d="M1099.46 119.962H1192.53V140.127H1127.44V171.513H1187.87V191.677H1127.44V223.765H1193.55V243.929H1099.46V119.962Z" stroke="black" stroke-width="2" mask="url(#path-2-outside-1_101_38)"/>
<path d="M1304.01 196.938H1271.36V176.773H1331.38V193.606C1331.38 203.074 1329.29 211.783 1325.1 219.732C1321.04 227.564 1314.55 233.876 1305.63 238.669C1296.71 243.345 1285.01 245.683 1270.55 245.683C1249.59 245.683 1233.44 240.247 1222.08 229.376C1210.86 218.505 1205.25 202.665 1205.25 181.858C1205.25 161.168 1210.86 145.387 1222.08 134.516C1233.44 123.644 1249.59 118.209 1270.55 118.209C1281.63 118.209 1291.5 119.962 1300.16 123.469C1308.94 126.976 1316.04 131.944 1321.45 138.373C1326.86 144.685 1329.96 152.167 1330.78 160.817H1303.2C1302.12 153.686 1298.87 148.192 1293.46 144.335C1288.19 140.36 1280.55 138.373 1270.55 138.373C1257.98 138.373 1248.58 141.997 1242.36 149.244C1236.28 156.375 1233.24 167.246 1233.24 181.858C1233.24 196.47 1236.28 207.4 1242.36 214.647C1248.58 221.895 1257.98 225.518 1270.55 225.518C1275.82 225.518 1280.35 224.992 1284.14 223.94C1287.92 222.888 1291.03 221.427 1293.46 219.557C1296.03 217.686 1298.06 215.524 1299.55 213.069C1301.17 210.614 1302.25 208.043 1302.79 205.354C1303.47 202.548 1303.87 199.743 1304.01 196.938Z" stroke="black" stroke-width="2" mask="url(#path-2-outside-1_101_38)"/>
<path d="M1357.29 119.962H1385.27V171.513H1447.12V119.962H1475.11V243.929H1447.12V191.677H1385.27V243.929H1357.29V119.962Z" stroke="black" stroke-width="2" mask="url(#path-2-outside-1_101_38)"/>
<mask id="path-3-outside-2_101_38" maskUnits="userSpaceOnUse" x="551.108" y="274.209" width="926" height="71" fill="black">
<rect fill="white" x="551.108" y="274.209" width="926" height="71"/>
<path d="M597.787 294.869C597.486 292.033 596.279 289.859 594.168 288.347C592.132 286.835 588.738 286.079 583.988 286.079C579.388 286.079 575.994 286.866 573.808 288.442C571.621 289.954 570.527 292.002 570.527 294.585C570.527 295.846 570.942 296.948 571.771 297.894C572.601 298.776 573.619 299.532 574.826 300.162C576.107 300.792 577.465 301.328 578.898 301.769C580.33 302.147 581.65 302.494 582.857 302.809L589.87 304.51C592.056 305.077 594.545 305.802 597.335 306.684C600.201 307.503 602.953 308.638 605.592 310.087C608.232 311.473 610.381 313.301 612.04 315.569C613.774 317.774 614.641 320.547 614.641 323.887C614.641 327.983 613.472 331.574 611.135 334.662C608.797 337.687 605.328 340.05 600.728 341.751C596.204 343.39 590.548 344.209 583.761 344.209C573.808 344.209 566.304 342.381 561.252 338.727C556.2 335.009 553.485 329.999 553.108 323.698H568.831C568.981 325.903 569.622 327.731 570.753 329.18C571.885 330.566 573.544 331.606 575.73 332.299C577.917 332.992 580.594 333.339 583.761 333.339C588.738 333.339 592.547 332.488 595.186 330.787C597.825 329.022 599.145 326.659 599.145 323.698C599.145 322.059 598.579 320.768 597.448 319.822C596.392 318.814 594.884 317.964 592.924 317.27C591.038 316.577 588.889 315.947 586.476 315.38L577.653 313.206C570.867 311.568 565.437 309.299 561.365 306.401C557.293 303.502 555.257 299.658 555.257 294.869C555.257 290.584 556.501 286.992 558.99 284.094C561.554 281.195 565.022 278.99 569.396 277.477C573.77 275.965 578.747 275.209 584.327 275.209C590.435 275.209 595.601 276.059 599.824 277.761C604.122 279.399 607.402 281.699 609.664 284.661C611.927 287.622 613.058 291.025 613.058 294.869H597.787Z"/>
<path d="M628.64 276.154H657.484C664.572 276.154 670.266 277.162 674.564 279.179C678.938 281.195 682.105 283.905 684.065 287.307C686.026 290.647 687.006 294.333 687.006 298.366C687.006 302.336 686.026 306.022 684.065 309.425C682.105 312.765 678.938 315.474 674.564 317.554C670.266 319.57 664.572 320.579 657.484 320.579H644.25V342.98H628.64V276.154ZM657.031 309.709C661.028 309.709 664.044 309.268 666.08 308.385C668.117 307.503 669.512 306.211 670.266 304.51C671.02 302.809 671.397 300.761 671.397 298.366C671.397 295.909 671.02 293.861 670.266 292.222C669.512 290.521 668.117 289.229 666.08 288.347C664.044 287.465 661.028 287.024 657.031 287.024H644.25V309.709H657.031Z"/>
<path d="M771.103 309.52C771.103 320.736 767.936 329.274 761.602 335.135C755.268 340.995 746.294 343.925 734.681 343.925C722.993 343.925 713.981 340.995 707.647 335.135C701.388 329.274 698.259 320.736 698.259 309.52C698.259 298.366 701.388 289.859 707.647 283.999C713.981 278.139 722.993 275.209 734.681 275.209C746.294 275.209 755.268 278.139 761.602 283.999C767.936 289.859 771.103 298.366 771.103 309.52ZM755.494 309.52C755.494 301.454 753.797 295.531 750.404 291.75C747.01 287.969 741.769 286.079 734.681 286.079C727.668 286.079 722.427 287.969 718.958 291.75C715.565 295.531 713.868 301.454 713.868 309.52C713.868 317.648 715.565 323.603 718.958 327.384C722.427 331.165 727.668 333.055 734.681 333.055C741.769 333.055 747.01 331.165 750.404 327.384C753.797 323.603 755.494 317.648 755.494 309.52Z"/>
<path d="M826.232 310.087L847.837 342.98H830.191L810.622 312.261L826.232 310.087ZM813.224 307.913C817.221 307.913 820.237 307.566 822.273 306.873C824.309 306.117 825.666 304.983 826.345 303.47C827.099 301.958 827.476 300.036 827.476 297.705C827.476 295.31 827.099 293.325 826.345 291.75C825.666 290.174 824.271 289.009 822.16 288.253C820.124 287.433 817.107 287.024 813.111 287.024H800.329V307.913H813.224ZM813.676 318.783H800.329V342.98H784.719V276.154H813.563C820.878 276.154 826.684 277.131 830.983 279.084C835.281 280.974 838.373 283.558 840.258 286.835C842.143 290.048 843.086 293.672 843.086 297.705C843.086 300.414 842.633 303.029 841.728 305.55C840.823 308.07 839.278 310.339 837.091 312.355C834.904 314.309 831.888 315.884 828.042 317.081C824.271 318.216 819.483 318.783 813.676 318.783Z"/>
<path d="M849.972 276.154H913.768V287.024H889.675V342.98H874.065V287.024H849.972V276.154Z"/>
<path d="M1003.07 298.461C1002.32 294.176 1000.47 291.057 997.527 289.103C994.587 287.087 990.552 286.079 985.424 286.079C978.562 286.079 973.397 288.032 969.928 291.939C966.534 295.783 964.838 301.643 964.838 309.52C964.838 317.459 966.534 323.383 969.928 327.29C973.397 331.133 978.562 333.055 985.424 333.055C990.552 333.055 994.587 332.079 997.527 330.125C1000.54 328.109 1002.43 324.99 1003.18 320.768H1018.79C1017.96 328.14 1014.61 333.843 1008.73 337.876C1002.84 341.909 995.077 343.925 985.424 343.925C974.113 343.925 965.253 340.995 958.843 335.135C952.433 329.211 949.228 320.673 949.228 309.52C949.228 298.366 952.433 289.859 958.843 283.999C965.328 278.139 974.188 275.209 985.424 275.209C991.382 275.209 996.736 276.122 1001.49 277.95C1006.31 279.714 1010.23 282.329 1013.25 285.795C1016.27 289.261 1018.08 293.483 1018.68 298.461H1003.07Z"/>
<path d="M1101.05 309.52C1101.05 320.736 1097.89 329.274 1091.55 335.135C1085.22 340.995 1076.24 343.925 1064.63 343.925C1052.94 343.925 1043.93 340.995 1037.6 335.135C1031.34 329.274 1028.21 320.736 1028.21 309.52C1028.21 298.366 1031.34 289.859 1037.6 283.999C1043.93 278.139 1052.94 275.209 1064.63 275.209C1076.24 275.209 1085.22 278.139 1091.55 283.999C1097.89 289.859 1101.05 298.366 1101.05 309.52ZM1085.44 309.52C1085.44 301.454 1083.75 295.531 1080.35 291.75C1076.96 287.969 1071.72 286.079 1064.63 286.079C1057.62 286.079 1052.38 287.969 1048.91 291.75C1045.51 295.531 1043.82 301.454 1043.82 309.52C1043.82 317.648 1045.51 323.603 1048.91 327.384C1052.38 331.165 1057.62 333.055 1064.63 333.055C1071.72 333.055 1076.96 331.165 1080.35 327.384C1083.75 323.603 1085.44 317.648 1085.44 309.52Z"/>
<path d="M1138.26 276.154L1157.49 327.29H1157.83L1177.96 276.154H1199V342.98H1184.3V295.153H1184.07L1165.41 342.98H1149.57L1131.7 295.153H1131.47V342.98H1116.65V276.154H1138.26Z"/>
<path d="M1213.97 276.154H1242.82C1249.91 276.154 1255.6 277.162 1259.9 279.179C1264.27 281.195 1267.44 283.905 1269.4 287.307C1271.36 290.647 1272.34 294.333 1272.34 298.366C1272.34 302.336 1271.36 306.022 1269.4 309.425C1267.44 312.765 1264.27 315.474 1259.9 317.554C1255.6 319.57 1249.91 320.579 1242.82 320.579H1229.58V342.98H1213.97V276.154ZM1242.37 309.709C1246.36 309.709 1249.38 309.268 1251.42 308.385C1253.45 307.503 1254.85 306.211 1255.6 304.51C1256.35 302.809 1256.73 300.761 1256.73 298.366C1256.73 295.909 1256.35 293.861 1255.6 292.222C1254.85 290.521 1253.45 289.229 1251.42 288.347C1249.38 287.465 1246.36 287.024 1242.37 287.024H1229.58V309.709H1242.37Z"/>
<path d="M1287.98 276.154H1303.59V332.11H1337.29V342.98H1287.98V276.154Z"/>
<path d="M1345.42 276.154H1397.34V287.024H1361.03V303.943H1394.73V314.813H1361.03V332.11H1397.9V342.98H1345.42V276.154Z"/>
<path d="M1437.46 302.242L1456.12 276.154H1474.11L1447.75 310.843L1437.46 302.242ZM1439.38 317.081L1420.27 342.98H1402.28L1429.32 308.196L1439.38 317.081ZM1428.52 309.803L1402.28 276.154H1420.38L1438.59 301.485L1448.54 309.236L1474.11 342.98H1456.12L1438.02 318.216L1428.52 309.803Z"/>
</mask>
<path d="M597.787 294.869C597.486 292.033 596.279 289.859 594.168 288.347C592.132 286.835 588.738 286.079 583.988 286.079C579.388 286.079 575.994 286.866 573.808 288.442C571.621 289.954 570.527 292.002 570.527 294.585C570.527 295.846 570.942 296.948 571.771 297.894C572.601 298.776 573.619 299.532 574.826 300.162C576.107 300.792 577.465 301.328 578.898 301.769C580.33 302.147 581.65 302.494 582.857 302.809L589.87 304.51C592.056 305.077 594.545 305.802 597.335 306.684C600.201 307.503 602.953 308.638 605.592 310.087C608.232 311.473 610.381 313.301 612.04 315.569C613.774 317.774 614.641 320.547 614.641 323.887C614.641 327.983 613.472 331.574 611.135 334.662C608.797 337.687 605.328 340.05 600.728 341.751C596.204 343.39 590.548 344.209 583.761 344.209C573.808 344.209 566.304 342.381 561.252 338.727C556.2 335.009 553.485 329.999 553.108 323.698H568.831C568.981 325.903 569.622 327.731 570.753 329.18C571.885 330.566 573.544 331.606 575.73 332.299C577.917 332.992 580.594 333.339 583.761 333.339C588.738 333.339 592.547 332.488 595.186 330.787C597.825 329.022 599.145 326.659 599.145 323.698C599.145 322.059 598.579 320.768 597.448 319.822C596.392 318.814 594.884 317.964 592.924 317.27C591.038 316.577 588.889 315.947 586.476 315.38L577.653 313.206C570.867 311.568 565.437 309.299 561.365 306.401C557.293 303.502 555.257 299.658 555.257 294.869C555.257 290.584 556.501 286.992 558.99 284.094C561.554 281.195 565.022 278.99 569.396 277.477C573.77 275.965 578.747 275.209 584.327 275.209C590.435 275.209 595.601 276.059 599.824 277.761C604.122 279.399 607.402 281.699 609.664 284.661C611.927 287.622 613.058 291.025 613.058 294.869H597.787Z" fill="#5F4CE4"/>
<path d="M628.64 276.154H657.484C664.572 276.154 670.266 277.162 674.564 279.179C678.938 281.195 682.105 283.905 684.065 287.307C686.026 290.647 687.006 294.333 687.006 298.366C687.006 302.336 686.026 306.022 684.065 309.425C682.105 312.765 678.938 315.474 674.564 317.554C670.266 319.57 664.572 320.579 657.484 320.579H644.25V342.98H628.64V276.154ZM657.031 309.709C661.028 309.709 664.044 309.268 666.08 308.385C668.117 307.503 669.512 306.211 670.266 304.51C671.02 302.809 671.397 300.761 671.397 298.366C671.397 295.909 671.02 293.861 670.266 292.222C669.512 290.521 668.117 289.229 666.08 288.347C664.044 287.465 661.028 287.024 657.031 287.024H644.25V309.709H657.031Z" fill="#5F4CE4"/>
<path d="M771.103 309.52C771.103 320.736 767.936 329.274 761.602 335.135C755.268 340.995 746.294 343.925 734.681 343.925C722.993 343.925 713.981 340.995 707.647 335.135C701.388 329.274 698.259 320.736 698.259 309.52C698.259 298.366 701.388 289.859 707.647 283.999C713.981 278.139 722.993 275.209 734.681 275.209C746.294 275.209 755.268 278.139 761.602 283.999C767.936 289.859 771.103 298.366 771.103 309.52ZM755.494 309.52C755.494 301.454 753.797 295.531 750.404 291.75C747.01 287.969 741.769 286.079 734.681 286.079C727.668 286.079 722.427 287.969 718.958 291.75C715.565 295.531 713.868 301.454 713.868 309.52C713.868 317.648 715.565 323.603 718.958 327.384C722.427 331.165 727.668 333.055 734.681 333.055C741.769 333.055 747.01 331.165 750.404 327.384C753.797 323.603 755.494 317.648 755.494 309.52Z" fill="#5F4CE4"/>
<path d="M826.232 310.087L847.837 342.98H830.191L810.622 312.261L826.232 310.087ZM813.224 307.913C817.221 307.913 820.237 307.566 822.273 306.873C824.309 306.117 825.666 304.983 826.345 303.47C827.099 301.958 827.476 300.036 827.476 297.705C827.476 295.31 827.099 293.325 826.345 291.75C825.666 290.174 824.271 289.009 822.16 288.253C820.124 287.433 817.107 287.024 813.111 287.024H800.329V307.913H813.224ZM813.676 318.783H800.329V342.98H784.719V276.154H813.563C820.878 276.154 826.684 277.131 830.983 279.084C835.281 280.974 838.373 283.558 840.258 286.835C842.143 290.048 843.086 293.672 843.086 297.705C843.086 300.414 842.633 303.029 841.728 305.55C840.823 308.07 839.278 310.339 837.091 312.355C834.904 314.309 831.888 315.884 828.042 317.081C824.271 318.216 819.483 318.783 813.676 318.783Z" fill="#5F4CE4"/>
<path d="M849.972 276.154H913.768V287.024H889.675V342.98H874.065V287.024H849.972V276.154Z" fill="#5F4CE4"/>
<path d="M1003.07 298.461C1002.32 294.176 1000.47 291.057 997.527 289.103C994.587 287.087 990.552 286.079 985.424 286.079C978.562 286.079 973.397 288.032 969.928 291.939C966.534 295.783 964.838 301.643 964.838 309.52C964.838 317.459 966.534 323.383 969.928 327.29C973.397 331.133 978.562 333.055 985.424 333.055C990.552 333.055 994.587 332.079 997.527 330.125C1000.54 328.109 1002.43 324.99 1003.18 320.768H1018.79C1017.96 328.14 1014.61 333.843 1008.73 337.876C1002.84 341.909 995.077 343.925 985.424 343.925C974.113 343.925 965.253 340.995 958.843 335.135C952.433 329.211 949.228 320.673 949.228 309.52C949.228 298.366 952.433 289.859 958.843 283.999C965.328 278.139 974.188 275.209 985.424 275.209C991.382 275.209 996.736 276.122 1001.49 277.95C1006.31 279.714 1010.23 282.329 1013.25 285.795C1016.27 289.261 1018.08 293.483 1018.68 298.461H1003.07Z" fill="#5F4CE4"/>
<path d="M1101.05 309.52C1101.05 320.736 1097.89 329.274 1091.55 335.135C1085.22 340.995 1076.24 343.925 1064.63 343.925C1052.94 343.925 1043.93 340.995 1037.6 335.135C1031.34 329.274 1028.21 320.736 1028.21 309.52C1028.21 298.366 1031.34 289.859 1037.6 283.999C1043.93 278.139 1052.94 275.209 1064.63 275.209C1076.24 275.209 1085.22 278.139 1091.55 283.999C1097.89 289.859 1101.05 298.366 1101.05 309.52ZM1085.44 309.52C1085.44 301.454 1083.75 295.531 1080.35 291.75C1076.96 287.969 1071.72 286.079 1064.63 286.079C1057.62 286.079 1052.38 287.969 1048.91 291.75C1045.51 295.531 1043.82 301.454 1043.82 309.52C1043.82 317.648 1045.51 323.603 1048.91 327.384C1052.38 331.165 1057.62 333.055 1064.63 333.055C1071.72 333.055 1076.96 331.165 1080.35 327.384C1083.75 323.603 1085.44 317.648 1085.44 309.52Z" fill="#5F4CE4"/>
<path d="M1138.26 276.154L1157.49 327.29H1157.83L1177.96 276.154H1199V342.98H1184.3V295.153H1184.07L1165.41 342.98H1149.57L1131.7 295.153H1131.47V342.98H1116.65V276.154H1138.26Z" fill="#5F4CE4"/>
<path d="M1213.97 276.154H1242.82C1249.91 276.154 1255.6 277.162 1259.9 279.179C1264.27 281.195 1267.44 283.905 1269.4 287.307C1271.36 290.647 1272.34 294.333 1272.34 298.366C1272.34 302.336 1271.36 306.022 1269.4 309.425C1267.44 312.765 1264.27 315.474 1259.9 317.554C1255.6 319.57 1249.91 320.579 1242.82 320.579H1229.58V342.98H1213.97V276.154ZM1242.37 309.709C1246.36 309.709 1249.38 309.268 1251.42 308.385C1253.45 307.503 1254.85 306.211 1255.6 304.51C1256.35 302.809 1256.73 300.761 1256.73 298.366C1256.73 295.909 1256.35 293.861 1255.6 292.222C1254.85 290.521 1253.45 289.229 1251.42 288.347C1249.38 287.465 1246.36 287.024 1242.37 287.024H1229.58V309.709H1242.37Z" fill="#5F4CE4"/>
<path d="M1287.98 276.154H1303.59V332.11H1337.29V342.98H1287.98V276.154Z" fill="#5F4CE4"/>
<path d="M1345.42 276.154H1397.34V287.024H1361.03V303.943H1394.73V314.813H1361.03V332.11H1397.9V342.98H1345.42V276.154Z" fill="#5F4CE4"/>
<path d="M1437.46 302.242L1456.12 276.154H1474.11L1447.75 310.843L1437.46 302.242ZM1439.38 317.081L1420.27 342.98H1402.28L1429.32 308.196L1439.38 317.081ZM1428.52 309.803L1402.28 276.154H1420.38L1438.59 301.485L1448.54 309.236L1474.11 342.98H1456.12L1438.02 318.216L1428.52 309.803Z" fill="#5F4CE4"/>
<path d="M597.787 294.869C597.486 292.033 596.279 289.859 594.168 288.347C592.132 286.835 588.738 286.079 583.988 286.079C579.388 286.079 575.994 286.866 573.808 288.442C571.621 289.954 570.527 292.002 570.527 294.585C570.527 295.846 570.942 296.948 571.771 297.894C572.601 298.776 573.619 299.532 574.826 300.162C576.107 300.792 577.465 301.328 578.898 301.769C580.33 302.147 581.65 302.494 582.857 302.809L589.87 304.51C592.056 305.077 594.545 305.802 597.335 306.684C600.201 307.503 602.953 308.638 605.592 310.087C608.232 311.473 610.381 313.301 612.04 315.569C613.774 317.774 614.641 320.547 614.641 323.887C614.641 327.983 613.472 331.574 611.135 334.662C608.797 337.687 605.328 340.05 600.728 341.751C596.204 343.39 590.548 344.209 583.761 344.209C573.808 344.209 566.304 342.381 561.252 338.727C556.2 335.009 553.485 329.999 553.108 323.698H568.831C568.981 325.903 569.622 327.731 570.753 329.18C571.885 330.566 573.544 331.606 575.73 332.299C577.917 332.992 580.594 333.339 583.761 333.339C588.738 333.339 592.547 332.488 595.186 330.787C597.825 329.022 599.145 326.659 599.145 323.698C599.145 322.059 598.579 320.768 597.448 319.822C596.392 318.814 594.884 317.964 592.924 317.27C591.038 316.577 588.889 315.947 586.476 315.38L577.653 313.206C570.867 311.568 565.437 309.299 561.365 306.401C557.293 303.502 555.257 299.658 555.257 294.869C555.257 290.584 556.501 286.992 558.99 284.094C561.554 281.195 565.022 278.99 569.396 277.477C573.77 275.965 578.747 275.209 584.327 275.209C590.435 275.209 595.601 276.059 599.824 277.761C604.122 279.399 607.402 281.699 609.664 284.661C611.927 287.622 613.058 291.025 613.058 294.869H597.787Z" stroke="black" stroke-width="2" mask="url(#path-3-outside-2_101_38)"/>
<path d="M628.64 276.154H657.484C664.572 276.154 670.266 277.162 674.564 279.179C678.938 281.195 682.105 283.905 684.065 287.307C686.026 290.647 687.006 294.333 687.006 298.366C687.006 302.336 686.026 306.022 684.065 309.425C682.105 312.765 678.938 315.474 674.564 317.554C670.266 319.57 664.572 320.579 657.484 320.579H644.25V342.98H628.64V276.154ZM657.031 309.709C661.028 309.709 664.044 309.268 666.08 308.385C668.117 307.503 669.512 306.211 670.266 304.51C671.02 302.809 671.397 300.761 671.397 298.366C671.397 295.909 671.02 293.861 670.266 292.222C669.512 290.521 668.117 289.229 666.08 288.347C664.044 287.465 661.028 287.024 657.031 287.024H644.25V309.709H657.031Z" stroke="black" stroke-width="2" mask="url(#path-3-outside-2_101_38)"/>
<path d="M771.103 309.52C771.103 320.736 767.936 329.274 761.602 335.135C755.268 340.995 746.294 343.925 734.681 343.925C722.993 343.925 713.981 340.995 707.647 335.135C701.388 329.274 698.259 320.736 698.259 309.52C698.259 298.366 701.388 289.859 707.647 283.999C713.981 278.139 722.993 275.209 734.681 275.209C746.294 275.209 755.268 278.139 761.602 283.999C767.936 289.859 771.103 298.366 771.103 309.52ZM755.494 309.52C755.494 301.454 753.797 295.531 750.404 291.75C747.01 287.969 741.769 286.079 734.681 286.079C727.668 286.079 722.427 287.969 718.958 291.75C715.565 295.531 713.868 301.454 713.868 309.52C713.868 317.648 715.565 323.603 718.958 327.384C722.427 331.165 727.668 333.055 734.681 333.055C741.769 333.055 747.01 331.165 750.404 327.384C753.797 323.603 755.494 317.648 755.494 309.52Z" stroke="black" stroke-width="2" mask="url(#path-3-outside-2_101_38)"/>
<path d="M826.232 310.087L847.837 342.98H830.191L810.622 312.261L826.232 310.087ZM813.224 307.913C817.221 307.913 820.237 307.566 822.273 306.873C824.309 306.117 825.666 304.983 826.345 303.47C827.099 301.958 827.476 300.036 827.476 297.705C827.476 295.31 827.099 293.325 826.345 291.75C825.666 290.174 824.271 289.009 822.16 288.253C820.124 287.433 817.107 287.024 813.111 287.024H800.329V307.913H813.224ZM813.676 318.783H800.329V342.98H784.719V276.154H813.563C820.878 276.154 826.684 277.131 830.983 279.084C835.281 280.974 838.373 283.558 840.258 286.835C842.143 290.048 843.086 293.672 843.086 297.705C843.086 300.414 842.633 303.029 841.728 305.55C840.823 308.07 839.278 310.339 837.091 312.355C834.904 314.309 831.888 315.884 828.042 317.081C824.271 318.216 819.483 318.783 813.676 318.783Z" stroke="black" stroke-width="2" mask="url(#path-3-outside-2_101_38)"/>
<path d="M849.972 276.154H913.768V287.024H889.675V342.98H874.065V287.024H849.972V276.154Z" stroke="black" stroke-width="2" mask="url(#path-3-outside-2_101_38)"/>
<path d="M1003.07 298.461C1002.32 294.176 1000.47 291.057 997.527 289.103C994.587 287.087 990.552 286.079 985.424 286.079C978.562 286.079 973.397 288.032 969.928 291.939C966.534 295.783 964.838 301.643 964.838 309.52C964.838 317.459 966.534 323.383 969.928 327.29C973.397 331.133 978.562 333.055 985.424 333.055C990.552 333.055 994.587 332.079 997.527 330.125C1000.54 328.109 1002.43 324.99 1003.18 320.768H1018.79C1017.96 328.14 1014.61 333.843 1008.73 337.876C1002.84 341.909 995.077 343.925 985.424 343.925C974.113 343.925 965.253 340.995 958.843 335.135C952.433 329.211 949.228 320.673 949.228 309.52C949.228 298.366 952.433 289.859 958.843 283.999C965.328 278.139 974.188 275.209 985.424 275.209C991.382 275.209 996.736 276.122 1001.49 277.95C1006.31 279.714 1010.23 282.329 1013.25 285.795C1016.27 289.261 1018.08 293.483 1018.68 298.461H1003.07Z" stroke="black" stroke-width="2" mask="url(#path-3-outside-2_101_38)"/>
<path d="M1101.05 309.52C1101.05 320.736 1097.89 329.274 1091.55 335.135C1085.22 340.995 1076.24 343.925 1064.63 343.925C1052.94 343.925 1043.93 340.995 1037.6 335.135C1031.34 329.274 1028.21 320.736 1028.21 309.52C1028.21 298.366 1031.34 289.859 1037.6 283.999C1043.93 278.139 1052.94 275.209 1064.63 275.209C1076.24 275.209 1085.22 278.139 1091.55 283.999C1097.89 289.859 1101.05 298.366 1101.05 309.52ZM1085.44 309.52C1085.44 301.454 1083.75 295.531 1080.35 291.75C1076.96 287.969 1071.72 286.079 1064.63 286.079C1057.62 286.079 1052.38 287.969 1048.91 291.75C1045.51 295.531 1043.82 301.454 1043.82 309.52C1043.82 317.648 1045.51 323.603 1048.91 327.384C1052.38 331.165 1057.62 333.055 1064.63 333.055C1071.72 333.055 1076.96 331.165 1080.35 327.384C1083.75 323.603 1085.44 317.648 1085.44 309.52Z" stroke="black" stroke-width="2" mask="url(#path-3-outside-2_101_38)"/>
<path d="M1138.26 276.154L1157.49 327.29H1157.83L1177.96 276.154H1199V342.98H1184.3V295.153H1184.07L1165.41 342.98H1149.57L1131.7 295.153H1131.47V342.98H1116.65V276.154H1138.26Z" stroke="black" stroke-width="2" mask="url(#path-3-outside-2_101_38)"/>
<path d="M1213.97 276.154H1242.82C1249.91 276.154 1255.6 277.162 1259.9 279.179C1264.27 281.195 1267.44 283.905 1269.4 287.307C1271.36 290.647 1272.34 294.333 1272.34 298.366C1272.34 302.336 1271.36 306.022 1269.4 309.425C1267.44 312.765 1264.27 315.474 1259.9 317.554C1255.6 319.57 1249.91 320.579 1242.82 320.579H1229.58V342.98H1213.97V276.154ZM1242.37 309.709C1246.36 309.709 1249.38 309.268 1251.42 308.385C1253.45 307.503 1254.85 306.211 1255.6 304.51C1256.35 302.809 1256.73 300.761 1256.73 298.366C1256.73 295.909 1256.35 293.861 1255.6 292.222C1254.85 290.521 1253.45 289.229 1251.42 288.347C1249.38 287.465 1246.36 287.024 1242.37 287.024H1229.58V309.709H1242.37Z" stroke="black" stroke-width="2" mask="url(#path-3-outside-2_101_38)"/>
<path d="M1287.98 276.154H1303.59V332.11H1337.29V342.98H1287.98V276.154Z" stroke="black" stroke-width="2" mask="url(#path-3-outside-2_101_38)"/>
<path d="M1345.42 276.154H1397.34V287.024H1361.03V303.943H1394.73V314.813H1361.03V332.11H1397.9V342.98H1345.42V276.154Z" stroke="black" stroke-width="2" mask="url(#path-3-outside-2_101_38)"/>
<path d="M1437.46 302.242L1456.12 276.154H1474.11L1447.75 310.843L1437.46 302.242ZM1439.38 317.081L1420.27 342.98H1402.28L1429.32 308.196L1439.38 317.081ZM1428.52 309.803L1402.28 276.154H1420.38L1438.59 301.485L1448.54 309.236L1474.11 342.98H1456.12L1438.02 318.216L1428.52 309.803Z" stroke="black" stroke-width="2" mask="url(#path-3-outside-2_101_38)"/>
<defs>
<linearGradient id="paint0_linear_101_38" x1="234.189" y1="1.20874" x2="234.189" y2="402.567" gradientUnits="userSpaceOnUse">
<stop stop-color="#DF94F3"/>
<stop offset="1" stop-color="#5F4CE4"/>
</linearGradient>
<linearGradient id="paint1_linear_101_38" x1="234.189" y1="1.20874" x2="234.189" y2="402.567" gradientUnits="userSpaceOnUse">
<stop stop-color="#DF94F3"/>
<stop offset="1" stop-color="#5F4CE4"/>
</linearGradient>
<linearGradient id="paint2_linear_101_38" x1="234.189" y1="1.20874" x2="234.189" y2="402.567" gradientUnits="userSpaceOnUse">
<stop stop-color="#DF94F3"/>
<stop offset="1" stop-color="#5F4CE4"/>
</linearGradient>
</defs>
</svg>
