<svg width="1602" height="1602" viewBox="0 0 1602 1602" fill="none" xmlns="http://www.w3.org/2000/svg">
<mask id="mask0_8_81" style="mask-type:alpha" maskUnits="userSpaceOnUse" x="0" y="0" width="1602" height="1602">
<path d="M1602 801C1602 1243.38 1243.38 1602 801 1602C358.62 1602 0 1243.38 0 801C0 358.62 358.62 0 801 0C1243.38 0 1602 358.62 1602 801Z" fill="#DB3737"/>
</mask>
<g mask="url(#mask0_8_81)">
<rect width="1602" height="534" fill="#D70011"/>
<rect y="534" width="1602" height="534" fill="#001387"/>
<rect y="1068" width="1602" height="534" fill="#FE9D1A"/>
</g>
<path d="M481 892L481.199 808.364C481.258 793.511 481.228 775.111 481.228 752.32L481.199 635.536L462 635V578.761H493.267C493.267 578.761 493.267 563.385 493.267 548.071C493.267 548.071 502.771 548.071 509.58 548.071C510.471 546.603 508.551 493.748 505.313 433.881C501.252 358.776 500.339 321.792 502.368 314.582C506.646 299.37 506.749 299.487 489.079 299.487C474.279 299.487 472.684 300.163 470.962 307.16C468.408 317.535 457.928 317.535 455.374 307.16C453.964 301.429 451.499 299.487 445.636 299.487C434.063 299.487 412 290.105 412 285.184C412 282.84 415.386 279.609 419.525 278.005C426.916 275.139 427.049 274.494 427.049 241.629C427.049 218.528 428.214 207.231 430.812 205.134C432.881 203.464 441.624 201.184 450.24 200.068C458.857 198.951 471.356 196.077 478.016 193.682C484.675 191.286 498.369 188.374 508.445 187.212L526.766 185.099L524.689 172.475C523.547 165.531 520.75 157.126 518.474 153.797C507.621 137.919 521.174 112.282 540.42 112.282C562.221 112.282 576.143 138.423 567.681 163.467C562.335 179.289 565.23 185.054 579.884 187.758C600.016 191.474 607.094 197.274 618.02 219.007C623.726 230.357 631.166 243.786 634.553 248.85C642.467 260.68 642.365 261.571 632.475 267.042C624.57 271.415 625.327 271.627 649.318 271.744C667.396 271.832 676.786 270.453 682.815 266.821C690.993 261.896 691.491 262.019 703.597 271.938C710.418 277.528 716 283.108 716 284.338C716 288.1 694.997 305.625 690.489 305.625C688.161 305.625 685.419 304.244 684.396 302.556C681.288 297.429 639.093 298.733 634.732 304.091C629.951 309.965 616.528 310.016 608.971 304.188C605.758 301.71 598.194 299.639 592.162 299.585L581.194 299.487L584.216 311.625C586.33 320.118 585.78 353.993 582.383 424.409C575.851 559.799 578 543.429 578 547C588.236 547 599.201 547 599.201 547V578.222H612.119C625.5 578.222 628.667 578.222 628.667 578.222C628.667 578.222 628.667 627 628.667 633.833H612.019V845.191L611.5 892H550C517 892 488 892 481 892ZM602.529 268.84C607.364 268.802 607.158 267.72 600.621 258.824C596.591 253.338 592.324 245.603 591.139 241.636C588.204 231.801 584.706 236.77 582.56 253.822C580.557 269.749 582.184 272.971 591.013 270.552C594.366 269.633 599.548 268.863 602.529 268.84ZM454.139 264.195C455.712 259.975 458.356 256.522 460.014 256.522C461.673 256.522 465.248 259.975 467.96 264.195C472.294 270.94 475.031 271.867 490.603 271.867C509.661 271.867 509.916 271.577 506.436 253.837C505.401 248.562 502.875 244.246 500.822 244.246C498.769 244.246 493.859 241.695 489.911 238.576C481.167 231.67 469.652 228.55 461.21 230.801C456.31 232.107 454.546 235.648 453.237 246.802C452.313 254.68 450.638 263.542 449.515 266.496C448.393 269.45 448.33 271.867 449.376 271.867C450.422 271.867 452.565 268.414 454.139 264.195ZM603.252 611.665V600L546.667 600.122H490.257C490.257 600.122 490.257 605.136 490.257 611.665H546.238H603.252ZM520.356 653H537V867.241H551.96V653H561C564.939 653 571.525 653 571.525 653C571.5 656 571.525 715.411 571.525 769.286V867.241H589.584V633.833L503.802 635.536L502.225 867.241H520.356V653Z" fill="white"/>
<path d="M1144.57 779.896L1106.29 741.612V733.429L1144.57 694.853H1153.33L1193.36 733.429V741.612L1153.33 779.896H1144.57ZM1114.48 710.634H1105.71L1067.15 672.351V664.168L1105.71 625.593H1114.48L1149.53 659.493L1183.42 625.593H1192.19L1232.22 664.168V672.351L1192.19 710.634H1183.42L1149.53 677.027L1114.48 710.634ZM1175.24 598.122L1056 598.739V470.737L1173.78 470.705C1192.48 470.705 1208.75 469.926 1222.57 468.367C1236.6 466.614 1246.92 465.055 1253.54 463.692C1260.36 462.133 1266.3 459.698 1271.37 456.385C1276.43 452.879 1279.25 450.638 1279.84 449.664C1280.62 448.69 1281.98 446.644 1283.93 443.527C1282.56 442.748 1276.14 439.143 1264.65 432.714C1253.35 426.09 1243.42 420.537 1234.85 416.056C1226.28 411.381 1216.15 406.899 1204.46 402.613C1192.97 398.132 1183.62 395.892 1176.41 395.892C1171.15 395.892 1166.58 396.281 1162.68 397.061C1146.13 399.983 1139.99 408.458 1144.28 422.486C1146.61 427.551 1147.78 430.084 1147.78 430.084L1125.58 446.157L1114.18 426.577C1109.9 418.979 1107.66 410.796 1107.46 402.029C1107.27 393.067 1109.22 384.689 1113.31 376.896L1115.35 373.097C1116.72 370.564 1117.79 368.519 1118.57 366.96C1119.54 365.207 1121.1 362.674 1123.24 359.362C1125.38 355.855 1127.33 352.932 1129.08 350.594C1130.84 348.062 1133.08 345.139 1135.8 341.827C1138.53 338.321 1141.16 335.301 1143.69 332.768C1146.22 330.235 1149.14 327.702 1152.46 325.17C1155.77 322.442 1159.08 320.299 1162.39 318.74C1165.7 316.987 1169.3 315.623 1173.2 314.649C1177.29 313.48 1181.28 312.896 1185.18 312.896C1194.53 312.896 1203.78 314.844 1212.93 318.74C1220.33 321.857 1230.66 326.631 1243.9 333.06C1257.34 339.489 1267.47 344.165 1274.29 347.088C1304.09 359.557 1337.1 365.791 1373.33 365.791H1400.5L1375.67 441.481L1371.28 440.897C1368.36 440.507 1364.27 441.286 1359.01 443.235C1353.75 445.183 1348.01 448.203 1341.78 452.294C1335.74 456.386 1328.92 463.692 1321.32 474.212C1313.92 484.733 1307.01 497.689 1300.58 513.08C1299.41 515.808 1297.85 519.607 1295.91 524.478C1292.4 533.05 1289.67 539.479 1287.73 543.765C1285.97 547.857 1283.25 553.117 1279.55 559.546C1275.85 565.781 1272.24 570.457 1268.74 573.574C1265.42 576.496 1260.85 579.906 1255 583.802C1249.16 587.504 1242.64 590.232 1235.43 591.985C1228.22 593.544 1219.56 595.005 1209.43 596.369C1199.49 597.538 1188.1 598.122 1175.24 598.122Z" fill="white"/>
<path d="M832.635 759.178C806.564 759.178 783.217 755.574 762.594 748.365C742.165 741.157 725.725 731.513 713.274 719.434C700.822 707.354 691.094 693.23 684.09 677.059C677.086 661.083 673.389 644.231 673 626.501C672.611 608.772 674.848 590.751 679.712 572.437C684.576 554.123 692.067 536.589 702.184 519.834H750.045C741.485 536.589 736.426 551.785 734.87 565.423C733.508 579.061 735.064 590.166 739.539 598.739C744.014 607.506 750.629 614.714 759.384 620.364C768.333 626.209 778.061 630.301 788.568 632.638C799.074 635.171 810.261 636.438 822.129 636.438H898.59C917.268 636.438 930.887 632.541 939.448 624.748C948.203 617.15 952.677 608.285 952.872 598.154H837.013V575.359C837.013 569.515 837.304 563.767 837.888 558.117C838.472 552.272 839.542 545.746 841.098 538.537C842.849 531.329 845.087 524.704 847.811 518.665C850.534 512.43 854.328 506.293 859.192 500.253C864.056 494.214 869.601 489.148 875.827 485.057C882.053 480.771 889.738 477.361 898.882 474.829C908.221 472.101 918.532 470.737 929.817 470.737L1056.5 470.705V598.154H1003.94V645.205C1003.94 665.856 998.885 684.949 988.768 702.484C978.651 720.018 964.837 733.851 947.327 743.982C929.817 754.113 910.75 759.178 890.127 759.178H832.635Z" fill="white"/>
<path d="M599.351 1283.29C566.585 1283.29 538.668 1271.77 515.601 1248.71C492.534 1225.66 481 1197.76 481 1165.02V907.5H611.54V1095.08C611.54 1096.91 611.802 1098.88 612.326 1100.97C614.948 1108.31 619.535 1111.97 626.088 1111.97H712.59V1283.29H599.351Z" fill="white"/>
<path d="M764.446 1430.25L712.938 1378.38V1367.38L764.446 1315.91H776.241L830.109 1367.38V1378.38L776.241 1430.25H764.446ZM776.635 1283.29H657.891V1111.97H795.901C821.065 1111.97 842.953 1110.93 861.564 1108.83C880.438 1106.47 894.33 1104.38 903.243 1102.54C912.417 1100.45 920.412 1097.17 927.227 1092.72C934.043 1088 937.844 1084.99 938.63 1083.68C939.679 1082.37 941.513 1079.62 944.135 1075.43C942.3 1074.38 933.65 1069.54 918.184 1060.89C902.981 1051.99 889.612 1044.52 878.078 1038.49C866.545 1032.21 852.914 1026.18 837.186 1020.42C821.721 1014.39 809.139 1011.38 799.44 1011.38C792.362 1011.38 786.202 1011.91 780.96 1012.95C758.679 1016.88 750.422 1028.28 756.189 1047.14C759.334 1053.95 760.907 1057.36 760.907 1057.36L731.024 1078.97L715.69 1052.64C709.923 1042.42 706.909 1031.42 706.646 1019.63C706.384 1007.58 709.006 996.32 714.51 985.842L717.263 980.733C719.098 977.328 720.539 974.577 721.588 972.482C722.898 970.124 724.995 966.719 727.879 962.265C730.762 957.55 733.383 953.621 735.743 950.477C738.102 947.072 741.116 943.143 744.786 938.689C748.456 933.974 751.995 929.914 755.402 926.508C758.81 923.103 762.742 919.698 767.198 916.292C771.654 912.625 776.11 909.743 780.567 907.648C785.023 905.29 789.872 903.456 795.115 902.147C800.619 900.575 805.993 899.789 811.236 899.789C823.818 899.789 836.269 902.409 848.589 907.648C858.55 911.839 872.443 918.257 890.267 926.901C908.354 935.546 921.985 941.833 931.159 945.762C971.265 962.527 1015.7 970.91 1064.45 970.91L1096.3 970.517L1067.6 1072.68L1061.31 1071.89C1057.11 1071.37 1050.82 1072.68 1042.43 1075.82C1034.31 1078.7 1026.18 1083.55 1018.05 1090.36C1028.54 1104.51 1048.33 1111.71 1077.43 1111.97H1204.43V1283.29H1048.33C1024.74 1283.29 1003.77 1276.35 985.42 1262.47C967.333 1248.58 954.882 1230.38 948.067 1207.85C940.989 1220.69 933.125 1231.56 924.475 1240.46C916.087 1249.11 905.34 1256.84 892.233 1263.65C879.127 1270.46 863.006 1275.43 843.871 1278.58C824.997 1281.72 802.585 1283.29 776.635 1283.29Z" fill="white"/>
<path d="M1149.77 1283.29V1111.97H1274.41C1291.71 1111.97 1305.21 1109.48 1314.91 1104.51C1324.6 1099.27 1329.45 1090.1 1329.45 1077C1329.45 1069.14 1326.83 1062.33 1321.59 1056.57C1316.35 1050.54 1309.79 1045.96 1301.93 1042.82C1294.33 1039.41 1285.15 1036.66 1274.41 1034.57C1263.66 1032.47 1253.83 1031.16 1244.92 1030.64C1236.27 1029.85 1227.09 1029.46 1217.39 1029.46C1207.7 1029.46 1201.14 1029.59 1197.73 1029.85C1194.33 1029.85 1191.71 1029.98 1189.87 1030.24V889.966C1189.87 878.702 1193.15 868.485 1199.7 859.317C1206.52 850.148 1215.3 843.73 1226.04 840.063L1425 776.801V893.502L1286.99 937.511L1293.67 938.296C1297.87 939.082 1303.37 940.785 1310.19 943.405C1317.27 945.762 1325 948.906 1333.39 952.835C1342.04 956.502 1350.56 962.004 1358.94 969.338C1367.33 976.673 1374.93 985.056 1381.75 994.486C1388.83 1003.92 1394.46 1015.97 1398.66 1030.64C1403.11 1045.31 1405.34 1061.42 1405.34 1078.97L1404.95 1180.34C1404.95 1192.66 1403.11 1204.71 1399.44 1216.49C1395.77 1228.28 1390.4 1239.28 1383.32 1249.5C1376.51 1259.72 1367.2 1267.97 1355.4 1274.26C1343.61 1280.28 1330.37 1283.29 1315.69 1283.29H1149.77Z" fill="white"/>
<path d="M308.394 1210.35L269.391 1232.96C247.939 1245.4 228.998 1255.93 227.3 1256.38C224.402 1257.14 224.241 1256.19 224.682 1241.07L225.151 1224.94L254.123 1210.29C270.057 1202.23 283.095 1195.17 283.095 1194.61C283.095 1194.05 269.874 1186.82 253.715 1178.56L224.335 1163.54V1148.13C224.335 1135.12 224.739 1132.72 226.938 1132.72C228.37 1132.72 246.916 1143.19 268.152 1155.98L306.762 1179.24L362.257 1180.87L363.196 1209.16L308.394 1210.35ZM224.335 1111.51V1023.37H250.45V1082.13H279.83V1031.53H305.946V1082.13H336.884L337.774 1022.55H362.257L363.125 1111.51H224.335ZM224 993.987L224.766 960.935C225.594 925.219 226.566 919.979 234.58 908.043C242.285 896.568 254.25 890.817 270.254 890.896C287.861 890.983 297.915 896.393 308.51 911.482L311.891 916.296L334.484 901.872C346.911 893.939 358.427 887.095 360.075 886.664C362.83 885.944 363.073 887.149 363.073 901.539C363.073 919.701 366.309 915.963 334.588 934.441L314.923 945.895L313.946 964.519L362.257 965.423L363.2 993.987H224ZM286.933 929.374C279.049 917.342 259.309 917.934 252.866 930.395C250.985 934.032 250.45 939.195 250.798 950.362L251.267 965.423L268.294 965.892C277.66 966.149 286.29 965.989 287.473 965.535C290.872 964.231 290.431 934.713 286.933 929.374ZM361.057 859.39C359.92 859.826 328.876 859.991 292.07 859.756L225.151 859.33L224.283 772.401L227.981 771.41C232.783 770.123 244.564 770.097 247.869 771.365C250.09 772.217 250.45 776.435 250.45 801.561V830.766H279.83V778.535H305.946V830.766H336.886L337.774 769.558H362.257L362.691 814.077C363.03 848.827 362.672 858.77 361.057 859.39ZM295.744 725.539C258.714 738.843 227.498 750.045 226.375 750.433C224.837 750.964 224.335 747.327 224.335 735.648V720.158L274.104 703.237C301.476 693.93 323.878 685.817 323.886 685.209C323.903 683.837 314.585 680.3 270.037 664.769C250.736 658.039 232.557 651.542 229.64 650.33L224.335 648.125V634.168C224.335 622.071 224.708 620.211 227.135 620.211C228.675 620.211 259.889 631.045 296.499 644.286L363.063 668.361L363.073 701.349L295.744 725.539ZM361.526 621.843C360.289 621.843 247.324 579.946 227.191 572.02C224.757 571.062 224.335 568.657 224.335 555.739C224.335 542.83 224.759 540.412 227.191 539.433C248.015 531.055 359.17 489.634 360.831 489.634C362.565 489.634 363.073 492.936 363.073 504.201V518.768L335.247 529.27L336.141 581.854L362.257 592.12L362.726 606.982C363.021 616.326 362.576 621.843 361.526 621.843ZM307.389 539.497C306.521 538.632 268.993 551.725 264.655 554.406C263.776 554.95 264.137 555.961 265.477 556.711C269.545 558.987 304.727 571.245 307.193 571.245C309.089 571.245 309.419 568.371 308.96 555.872C308.648 547.417 307.942 540.048 307.389 539.497ZM361.031 466.037C359.908 466.468 328.876 466.629 292.07 466.394L225.151 465.967L224.214 435.882L313.291 376.196L224.335 375.327V346H363.073V376.798L318.962 405.972C294.701 422.017 275.36 435.654 275.981 436.275C276.602 436.896 296.452 437.404 320.091 437.404H363.073V451.329C363.073 460.969 362.445 465.495 361.031 466.037Z" fill="#FEFEFE"/>
</svg>
