<svg width="544" height="172" viewBox="0 0 544 172" fill="none" xmlns="http://www.w3.org/2000/svg">
<path d="M187 139.375V124.293L192.394 123.425V102.019L187 101.151V86H219.643V101.151L214.525 102.019V108.587H232.23V102.019L227.112 101.151V86H259.755V101.151L254.361 102.019V123.425L259.755 124.293V139.375H227.112V124.293L232.23 123.425V116.44H214.525V123.425L219.643 124.293V139.375H187Z" fill="#335A6D"/>
<path d="M295.545 140C286.992 140 280.353 137.88 275.627 133.641C270.901 129.378 268.538 122.915 268.538 114.251V104.938L264.389 104.139V90.4479H291.395V104.139L287.246 104.938V110.741C287.246 111.228 287.246 111.714 287.246 112.201C287.269 112.687 287.28 113.151 287.28 113.591V114.32C287.28 117.448 287.868 119.927 289.044 121.757C290.243 123.587 292.41 124.502 295.545 124.502C298.703 124.502 300.882 123.587 302.081 121.757C303.302 119.903 303.913 117.402 303.913 114.251V113.452C303.913 113.035 303.902 112.595 303.879 112.131C303.879 111.645 303.879 111.158 303.879 110.672V104.938L299.729 104.139V90.4479H323.727V104.139L319.543 104.938C319.52 105.286 319.509 105.633 319.509 105.981C319.509 106.305 319.509 106.629 319.509 106.954V114.251C319.509 122.405 317.515 128.741 313.526 133.259C309.538 137.753 303.544 140 295.545 140Z" fill="#335A6D"/>
<path d="M327.981 139.375V125.51L332.13 124.71V104.938L327.981 104.139V90.4479H352.947L369.58 116.822V105.008L365.43 104.139V90.4479H386.213V104.139L382.063 104.938V124.71L386.213 125.51V139.375H361.246L344.613 113.695V124.71L348.798 125.475V139.375H327.981Z" fill="#335A6D"/>
<path d="M399.664 139.375V125.51L403.814 124.71V103.374C402.684 103.374 401.543 103.56 400.39 103.93C399.261 104.301 398.316 104.846 397.555 105.564C396.794 106.282 396.414 107.174 396.414 108.239H390.639V90.4479H437.806V108.239H432.031C432.031 107.174 431.639 106.282 430.855 105.564C430.094 104.846 429.149 104.301 428.02 103.93C426.89 103.56 425.761 103.374 424.631 103.374V124.71L428.78 125.51V139.375H399.664Z" fill="#335A6D"/>
<path d="M442.301 139.375V125.51L446.451 124.71V105.008L442.301 104.208V90.4479H485.041V108.239H480.304C478.759 107.081 476.869 106.154 474.633 105.459C472.397 104.764 469.942 104.417 467.268 104.417V111.958L476.846 109.907V119.811L467.268 117.726V125.405C469.965 125.405 472.431 125.069 474.668 124.398C476.927 123.726 478.806 122.788 480.304 121.583H485.041V139.375H442.301Z" fill="#335A6D"/>
<path d="M489.952 139.375V125.51L494.101 124.71V104.938L489.952 104.139V90.4479H518.272C521.269 90.4479 524.186 90.5521 527.021 90.7606C529.857 90.9691 532.45 91.4324 534.801 92.1506C537.153 92.8687 539.101 93.9575 540.645 95.417C542.213 96.8764 543.216 98.8571 543.654 101.359C543.884 102.656 544 104.081 544 105.633C544 108.251 543.573 110.371 542.72 111.992C541.89 113.614 540.738 114.923 539.262 115.919C537.787 116.915 536.069 117.795 534.11 118.56C535.263 120.853 536.796 123.1 538.709 125.301C540.622 127.479 542.386 129.494 544 131.347V139.375H523.321C521.915 136.734 520.543 133.977 519.206 131.104C517.892 128.208 516.843 125.116 516.059 121.826H514.918V139.375H489.952ZM514.918 112.409C517.569 112.409 519.621 112.027 521.073 111.263C522.526 110.498 523.252 108.784 523.252 106.12C523.252 103.456 522.514 101.73 521.039 100.942C519.586 100.154 517.546 99.7606 514.918 99.7606V112.409Z" fill="#335A6D"/>
<path d="M216.921 76C210.796 76 205.491 74.9537 201.007 72.8611C196.546 70.7685 193.09 67.6413 190.64 63.4794C188.213 59.3175 187 54.1442 187 47.9594C187 41.7979 188.19 36.7292 190.571 32.7533C192.975 28.7774 196.395 25.8246 200.833 23.8947C205.271 21.9649 210.541 21 216.643 21C221.058 21 225.022 21.3953 228.536 22.1858C232.049 22.9763 235.273 24.0459 238.209 25.3944V42.7628H227.773C226.848 41.0655 225.704 39.6123 224.34 38.4033C222.977 37.171 221.324 36.5549 219.382 36.5549C216.979 36.5549 214.979 37.0664 213.384 38.0894C211.813 39.1124 210.634 40.4377 209.848 42.0653C209.085 43.6929 208.704 45.4134 208.704 47.227C208.704 50.1566 209.293 52.4701 210.472 54.1674C211.674 55.8647 213.257 57.0738 215.222 57.7945C217.21 58.4921 219.394 58.8408 221.775 58.8408C224.525 58.8408 227.357 58.5037 230.269 57.8294C233.182 57.1319 235.828 56.3297 238.209 55.423V72.4426C234.927 73.5586 231.564 74.4306 228.12 75.0583C224.676 75.6861 220.943 76 216.921 76Z" fill="#C39935"/>
<path d="M243.167 75.3722V61.4566L247.327 60.6544V40.8098L243.167 40.0076V26.2663H272.36V40.0076L268.165 40.8098V61.9797C270.199 61.9797 271.944 61.5147 273.4 60.5847C274.879 59.6546 276.093 58.6316 277.04 57.5155H282.831V75.3722H243.167Z" fill="#C39935"/>
<path d="M287.199 75.3722V61.4566L291.36 60.6544V40.8098L287.199 40.0076V26.2663H316.392V40.0076L312.232 40.8098V60.6544L316.392 61.4566V75.3722H287.199Z" fill="#C39935"/>
<path d="M321.107 75.3722V61.4566L325.268 60.6544V40.8795L321.107 40.0774V26.2663H363.961V44.123H359.211C357.662 42.9605 355.767 42.0304 353.525 41.3329C351.283 40.6354 348.821 40.2866 346.14 40.2866V47.8548L355.744 45.7971V55.7368L346.14 53.6443V61.3519C348.844 61.3519 351.318 61.0148 353.56 60.3405C355.825 59.6662 357.709 58.7246 359.211 57.5155H363.961V75.3722H321.107Z" fill="#C39935"/>
<path d="M368.884 75.3722V61.4566L373.045 60.6544V40.8098L368.884 40.0076V26.2663H393.917L410.594 52.7375V40.8795L406.433 40.0076V26.2663H427.27V40.0076L423.11 40.8098V60.6544L427.27 61.4566V75.3722H402.238L385.561 49.5986V60.6544L389.756 61.4217V75.3722H368.884Z" fill="#C39935"/>
<path d="M440.757 75.3722V61.4566L444.918 60.6544V39.2403C443.785 39.2403 442.641 39.4263 441.486 39.7984C440.353 40.1704 439.405 40.7168 438.642 41.4375C437.88 42.1583 437.498 43.0535 437.498 44.123H431.708V26.2663H479V44.123H473.21C473.21 43.0535 472.817 42.1583 472.031 41.4375C471.268 40.7168 470.32 40.1704 469.188 39.7984C468.055 39.4263 466.923 39.2403 465.79 39.2403V60.6544L469.95 61.4566V75.3722H440.757Z" fill="#C39935"/>
<path d="M34.6774 0C37.1546 7.90569e-05 39.5529 0.875249 41.4479 2.4707C43.343 4.06632 44.6138 6.28055 45.0358 8.72168C45.4577 11.1626 45.0047 13.6744 43.7555 15.8135C42.5061 17.9527 40.5402 19.5823 38.2067 20.4141V47.418L48.7204 57.625H57.2428L76.7926 37.5469L96.3434 57.625H104.865L115.379 47.4189V20.4141C113.046 19.5823 111.081 17.9532 109.832 15.8145C108.582 13.6754 108.128 11.1635 108.55 8.72266C108.972 6.28175 110.243 4.06808 112.138 2.47266C114.033 0.877391 116.431 0.00203073 118.908 0.00195312C121.385 0.00203222 123.783 0.877456 125.677 2.47266C127.572 4.06808 128.843 6.2818 129.265 8.72266C129.687 11.1635 129.234 13.6754 127.985 15.8145C126.736 17.9534 124.77 19.5823 122.437 20.4141V50.4053L107.727 64.6836H96.9879V73.9844H114.519L133.374 55.1299C132.383 52.8586 132.226 50.3103 132.93 47.9346C133.635 45.5588 135.157 43.5081 137.226 42.1445C139.295 40.7811 141.78 40.1919 144.241 40.4814C146.702 40.7711 148.982 41.921 150.678 43.7275C152.374 45.5341 153.378 47.8821 153.512 50.3564C153.646 52.8307 152.902 55.2727 151.411 57.252C149.92 59.2312 147.777 60.6209 145.362 61.1748C142.947 61.7286 140.413 61.4111 138.209 60.2793L117.443 81.043H96.9879V90.2002H117.443L138.209 110.965C139.691 110.197 141.338 109.795 143.007 109.795C145.269 109.794 147.472 110.524 149.286 111.875C151.1 113.226 152.43 115.127 153.078 117.294C153.725 119.461 153.657 121.779 152.882 123.904C152.106 126.029 150.665 127.848 148.774 129.089C146.883 130.33 144.641 130.927 142.383 130.792C140.125 130.657 137.971 129.796 136.241 128.339C134.511 126.881 133.297 124.904 132.78 122.702C132.263 120.5 132.472 118.19 133.374 116.115L114.518 97.2598H96.9879V106.562H107.727L122.438 120.839V150.829C124.771 151.661 126.736 153.291 127.985 155.43C129.234 157.569 129.688 160.08 129.266 162.521C128.844 164.961 127.573 167.175 125.678 168.771C123.784 170.366 121.386 171.241 118.909 171.241C116.432 171.241 114.034 170.366 112.139 168.771C110.244 167.175 108.973 164.961 108.551 162.521C108.129 160.08 108.584 157.569 109.833 155.43C111.082 153.291 113.046 151.661 115.38 150.829V123.826L104.865 113.62H96.32L76.7926 135.258L57.2663 113.619H48.7204L38.2067 123.826V150.829C40.5399 151.661 42.5044 153.291 43.7536 155.43C45.0026 157.569 45.4567 160.08 45.0348 162.521C44.6128 164.961 43.3418 167.175 41.4469 168.771C39.5521 170.366 37.1544 171.241 34.6774 171.241C32.2004 171.241 29.8027 170.366 27.9079 168.771C26.013 167.175 24.742 164.961 24.32 162.521C23.8981 160.08 24.3522 157.569 25.6012 155.43C26.8505 153.291 28.8149 151.661 31.1481 150.829V120.839L45.8581 106.561H56.5983V97.2588H39.068L20.2126 116.114C21.2034 118.385 21.3606 120.934 20.6559 123.31C19.9512 125.685 18.43 127.736 16.361 129.1C14.2918 130.463 11.8064 131.052 9.34537 130.763C6.88462 130.473 4.60497 129.324 2.90884 127.518C1.21266 125.711 0.209061 123.363 0.0748596 120.889C-0.0592437 118.414 0.684432 115.972 2.17545 113.992C3.66653 112.013 5.80888 110.623 8.22427 110.069C10.6396 109.516 13.1732 109.833 15.3776 110.965L36.1432 90.2002H56.5983V81.043H36.1432L15.3776 60.2793C13.1666 61.4177 10.6243 61.7383 8.19986 61.1846C5.77542 60.6308 3.62415 59.2384 2.12662 57.2529C0.629134 55.2674 -0.118523 52.8163 0.0152893 50.333C0.14918 47.8496 1.15577 45.4928 2.85806 43.6797C4.56036 41.8667 6.84907 40.7138 9.319 40.4238C11.789 40.134 14.2822 40.7262 16.3581 42.0957C18.4338 43.4653 19.9594 45.5244 20.6647 47.9092C21.3699 50.2939 21.2095 52.8516 20.2126 55.1299L39.068 73.9844H56.5983V64.6826H45.8581L31.1491 50.4053V20.4141C28.8155 19.5823 26.8497 17.9527 25.6003 15.8135C24.351 13.6744 23.8981 11.1627 24.32 8.72168C24.742 6.28048 26.0127 4.06632 27.9079 2.4707C29.8028 0.875385 32.2003 0.000108342 34.6774 0ZM35.9694 157.527C35.3388 157.266 34.6447 157.198 33.9753 157.331C33.3056 157.464 32.6895 157.793 32.2067 158.275C31.7239 158.758 31.3956 159.374 31.2624 160.044C31.1293 160.713 31.1974 161.407 31.4586 162.038C31.72 162.669 32.1624 163.209 32.7301 163.588C33.2978 163.967 33.9655 164.17 34.6481 164.17C35.5632 164.168 36.4414 163.803 37.0885 163.156C37.7354 162.509 38.0998 161.632 38.1012 160.717C38.1012 160.034 37.8984 159.366 37.5192 158.799C37.1399 158.231 36.6001 157.789 35.9694 157.527ZM120.2 157.527C119.569 157.266 118.875 157.198 118.206 157.331C117.536 157.464 116.921 157.793 116.438 158.275C115.955 158.758 115.626 159.374 115.493 160.044C115.36 160.713 115.428 161.407 115.689 162.038C115.95 162.669 116.393 163.209 116.961 163.588C117.528 163.967 118.197 164.17 118.88 164.17C119.794 164.169 120.672 163.804 121.319 163.157C121.966 162.51 122.331 161.632 122.332 160.717C122.332 160.034 122.129 159.366 121.75 158.799C121.37 158.231 120.831 157.789 120.2 157.527ZM63.6266 61.1543V110.162L76.7633 124.72L89.9001 110.162V61.1543L76.7633 47.6631L63.6266 61.1543ZM11.8717 117.115C11.241 116.854 10.5462 116.785 9.87662 116.918C9.20705 117.051 8.59183 117.381 8.10904 117.863C7.62625 118.346 7.29697 118.961 7.16373 119.631C7.03051 120.301 7.0987 120.995 7.36002 121.626C7.62133 122.257 8.06476 122.795 8.63248 123.175C9.20016 123.554 9.86776 123.757 10.5504 123.757C11.4655 123.756 12.3428 123.391 12.9899 122.744C13.6369 122.097 14.0014 121.22 14.0026 120.305C14.0026 119.622 13.7998 118.954 13.4206 118.387C13.0414 117.819 12.5022 117.377 11.8717 117.115ZM144.299 117.114C143.669 116.853 142.974 116.785 142.304 116.918C141.635 117.051 141.02 117.381 140.537 117.863C140.054 118.346 139.725 118.961 139.591 119.631C139.458 120.3 139.527 120.994 139.788 121.625C140.049 122.256 140.492 122.795 141.059 123.175C141.627 123.554 142.295 123.757 142.978 123.757C143.893 123.756 144.771 123.391 145.418 122.744C146.065 122.097 146.429 121.22 146.43 120.305C146.43 119.622 146.228 118.953 145.848 118.386C145.469 117.818 144.93 117.376 144.299 117.114ZM11.8717 47.748C11.241 47.4868 10.5462 47.4186 9.87662 47.5518C9.20698 47.685 8.59185 48.0143 8.10904 48.4971C7.62628 48.9799 7.29694 49.595 7.16373 50.2646C7.03064 50.9341 7.09888 51.6281 7.36002 52.2588C7.62133 52.8896 8.06475 53.4293 8.63248 53.8086C9.2001 54.1877 9.86785 54.3906 10.5504 54.3906C11.4654 54.3894 12.3429 54.0248 12.9899 53.3779C13.637 52.7308 14.0015 51.8527 14.0026 50.9375C14.0025 50.2549 13.7998 49.5872 13.4206 49.0195C13.0413 48.4521 12.5022 48.0094 11.8717 47.748ZM142.977 47.4854C142.062 47.4865 141.185 47.8502 140.538 48.4971C139.891 49.1443 139.526 50.0222 139.525 50.9375C139.525 51.6203 139.728 52.2877 140.107 52.8555C140.486 53.423 141.025 53.8656 141.656 54.127C142.287 54.3882 142.981 54.4564 143.651 54.3232C144.321 54.19 144.936 53.8616 145.419 53.3789C145.901 52.8961 146.231 52.2809 146.364 51.6113C146.497 50.9417 146.429 50.247 146.168 49.6162C145.906 48.9857 145.464 48.4467 144.896 48.0674C144.328 47.6881 143.66 47.4854 142.977 47.4854ZM34.6481 7.07129C33.7328 7.07216 32.8551 7.4369 32.2077 8.08398C31.5603 8.73123 31.1961 9.609 31.195 10.5244C31.1951 11.2071 31.3978 11.8748 31.777 12.4424C32.1563 13.0098 32.6953 13.4526 33.3258 13.7139C33.9566 13.9751 34.6514 14.0433 35.321 13.9102C35.9903 13.7769 36.6058 13.4484 37.0885 12.9658C37.5713 12.4831 37.9005 11.8678 38.0338 11.1982C38.1671 10.5287 38.0986 9.83394 37.8376 9.20312C37.5764 8.57246 37.1335 8.03373 36.5661 7.6543C35.9985 7.27486 35.3308 7.07156 34.6481 7.07129ZM118.88 7.07129C117.964 7.07241 117.086 7.43686 116.439 8.08398C115.792 8.73121 115.428 9.60913 115.426 10.5244C115.426 11.2071 115.629 11.8747 116.008 12.4424C116.388 13.01 116.927 13.4526 117.558 13.7139C118.189 13.975 118.883 14.0432 119.552 13.9102C120.222 13.7769 120.838 13.4476 121.321 12.9648C121.804 12.4821 122.132 11.8668 122.265 11.1973C122.398 10.5278 122.33 9.8338 122.069 9.20312C121.808 8.57241 121.365 8.03266 120.798 7.65332C120.23 7.2741 119.562 7.07139 118.88 7.07129Z" fill="#335A6D"/>
<path d="M66.3696 62.2688C66.3696 77.8823 66.3696 93.4958 66.3696 109.109C69.834 112.948 73.2984 116.787 76.7627 120.625C80.2271 116.787 83.6916 112.948 87.156 109.109C87.156 93.4958 87.156 77.8823 87.156 62.2688C83.6916 58.7115 80.2271 55.1542 76.7627 51.597C73.2984 55.1542 69.834 58.7115 66.3696 62.2688Z" fill="#335A6D"/>
<path d="M82.569 87.7836H81.6534C81.2309 87.7836 80.8256 87.9514 80.5268 88.2502C80.2281 88.549 80.0602 88.9542 80.0602 89.3768V93.0245C80.0602 93.2337 80.1014 93.4409 80.1815 93.6342C80.2615 93.8275 80.3789 94.0031 80.5268 94.151C80.6748 94.299 80.8504 94.4163 81.0437 94.4964C81.237 94.5765 81.4442 94.6177 81.6534 94.6177H82.569C82.7782 94.6177 82.9853 94.5765 83.1786 94.4964C83.3719 94.4163 83.5476 94.299 83.6955 94.151C83.8434 94.0031 83.9608 93.8275 84.0408 93.6342C84.1209 93.4409 84.1621 93.2337 84.1621 93.0245V89.3768C84.1621 88.9542 83.9943 88.549 83.6955 88.2502C83.3967 87.9514 82.9915 87.7836 82.569 87.7836ZM82.7924 93.0245C82.7924 93.0838 82.7689 93.1406 82.727 93.1825C82.6851 93.2244 82.6282 93.248 82.569 93.248H81.6534C81.5941 93.248 81.5373 93.2244 81.4954 93.1825C81.4534 93.1406 81.4299 93.0838 81.4299 93.0245V89.3768C81.429 89.3468 81.434 89.317 81.4448 89.289C81.4556 89.2611 81.4719 89.2356 81.4928 89.2141C81.5136 89.1925 81.5386 89.1754 81.5662 89.1637C81.5938 89.1521 81.6234 89.1461 81.6534 89.1461H82.569C82.5989 89.1461 82.6286 89.1521 82.6562 89.1637C82.6838 89.1754 82.7087 89.1925 82.7296 89.2141C82.7504 89.2356 82.7667 89.2611 82.7775 89.289C82.7883 89.317 82.7934 89.3468 82.7924 89.3768V93.0245Z" fill="#C39935"/>
<path d="M72.4043 90.1121L71.7411 89.9751L72.6927 85.2821C72.7115 85.1944 72.7126 85.1038 72.6958 85.0157C72.6791 84.9277 72.6448 84.8438 72.595 84.7692C72.5453 84.6946 72.4811 84.6307 72.4062 84.5814C72.3314 84.532 72.2474 84.4982 72.1592 84.4819L70.8111 84.2079C70.7229 84.1891 70.6319 84.1883 70.5434 84.2055C70.4549 84.2228 70.3708 84.2576 70.2961 84.3081C70.2214 84.3586 70.1576 84.4236 70.1086 84.4993C70.0596 84.575 70.0264 84.6598 70.0109 84.7486C69.9932 84.8367 69.9931 84.9275 70.0107 85.0156C70.0284 85.1037 70.0634 85.1874 70.1137 85.2619C70.164 85.3364 70.2286 85.4001 70.3038 85.4493C70.379 85.4986 70.4632 85.5324 70.5516 85.5488L71.2148 85.6858L70.4002 89.7156L69.737 89.5786C69.6466 89.5548 69.5523 89.5497 69.4599 89.5637C69.3675 89.5778 69.279 89.6105 69.1997 89.6601C69.1204 89.7096 69.0521 89.7748 68.999 89.8517C68.9459 89.9286 68.9091 90.0156 68.8908 90.1072C68.8726 90.1989 68.8733 90.2933 68.893 90.3847C68.9126 90.4761 68.9508 90.5625 69.005 90.6386C69.0593 90.7147 69.1286 90.7788 69.2086 90.8271C69.2886 90.8754 69.3776 90.9069 69.4702 90.9195L72.1592 91.4601C72.2473 91.4779 72.338 91.478 72.4262 91.4603C72.5143 91.4427 72.5981 91.4077 72.6725 91.3574C72.747 91.307 72.8107 91.2424 72.8599 91.1672C72.9092 91.0921 72.943 91.0078 72.9594 90.9195C72.9856 90.7397 72.943 90.5567 72.8401 90.407C72.7372 90.2573 72.5815 90.1519 72.4043 90.1121Z" fill="#C39935"/>
<path d="M81.0875 99.6044L80.1864 99.7414C79.7694 99.8088 79.3958 100.038 79.1474 100.38C78.8989 100.722 78.7956 101.148 78.86 101.565L79.4223 105.17C79.4539 105.376 79.5261 105.575 79.6346 105.753C79.7432 105.932 79.8859 106.088 80.0548 106.211C80.2236 106.334 80.4151 106.423 80.6184 106.472C80.8216 106.521 81.0325 106.529 81.2389 106.496L82.1473 106.359C82.3549 106.327 82.5541 106.254 82.7333 106.144C82.9125 106.034 83.0683 105.89 83.1916 105.72C83.3149 105.55 83.4033 105.357 83.4517 105.152C83.5002 104.948 83.5076 104.736 83.4737 104.528L82.9114 100.924C82.8441 100.507 82.6143 100.134 82.2723 99.8868C81.9304 99.6395 81.5043 99.5379 81.0875 99.6044ZM82.1184 104.752C82.1235 104.781 82.1228 104.811 82.1161 104.84C82.1094 104.869 82.0969 104.897 82.0795 104.921C82.062 104.945 82.0398 104.966 82.0144 104.981C81.9889 104.997 81.9605 105.007 81.931 105.011L81.0299 105.148C81 105.154 80.9691 105.154 80.9392 105.148C80.9092 105.142 80.8809 105.13 80.8559 105.112C80.8309 105.095 80.8098 105.072 80.7938 105.046C80.7779 105.02 80.7675 104.991 80.7632 104.961L80.2008 101.356C80.1904 101.296 80.2042 101.234 80.2394 101.184C80.2745 101.134 80.3281 101.1 80.3883 101.089L81.2894 100.953C81.3496 100.942 81.4115 100.956 81.4615 100.991C81.5115 101.026 81.5456 101.08 81.5561 101.14L82.1184 104.752Z" fill="#C39935"/>
<path d="M76.0875 107.604L75.1864 107.741C74.7694 107.809 74.3958 108.038 74.1474 108.38C73.8989 108.722 73.7956 109.148 73.86 109.565L74.4223 113.17C74.4539 113.376 74.5261 113.575 74.6346 113.753C74.7432 113.932 74.8859 114.088 75.0548 114.211C75.2236 114.334 75.4151 114.423 75.6184 114.472C75.8216 114.521 76.0325 114.529 76.2389 114.496L77.1473 114.359C77.3549 114.327 77.5541 114.254 77.7333 114.144C77.9125 114.034 78.0683 113.89 78.1916 113.72C78.3149 113.55 78.4033 113.357 78.4517 113.152C78.5002 112.948 78.5076 112.736 78.4737 112.528L77.9114 108.924C77.8441 108.507 77.6143 108.134 77.2723 107.887C76.9304 107.64 76.5043 107.538 76.0875 107.604ZM77.1184 112.752C77.1235 112.781 77.1228 112.811 77.1161 112.84C77.1094 112.869 77.0969 112.897 77.0795 112.921C77.062 112.945 77.0398 112.966 77.0144 112.981C76.9889 112.997 76.9605 113.007 76.931 113.011L76.0299 113.148C76 113.154 75.9691 113.154 75.9392 113.148C75.9092 113.142 75.8809 113.13 75.8559 113.112C75.8309 113.095 75.8098 113.072 75.7938 113.046C75.7779 113.02 75.7675 112.991 75.7632 112.961L75.2008 109.356C75.1904 109.296 75.2042 109.234 75.2394 109.184C75.2745 109.134 75.3281 109.1 75.3883 109.089L76.2894 108.953C76.3496 108.942 76.4115 108.956 76.4615 108.991C76.5115 109.026 76.5456 109.08 76.5561 109.14L77.1184 112.752Z" fill="#C39935"/>
<path d="M71.4781 101.911L70.8148 101.753L71.9178 97.0957C71.9523 96.9205 71.9205 96.7386 71.8286 96.5855C71.7367 96.4323 71.5913 96.3187 71.4204 96.2667L70.0867 95.9567C69.997 95.9272 69.9022 95.9165 69.8082 95.9254C69.7142 95.9343 69.623 95.9626 69.5404 96.0084C69.4579 96.0542 69.3856 96.1166 69.3283 96.1917C69.271 96.2667 69.2299 96.3528 69.2074 96.4446C69.185 96.5363 69.1818 96.6316 69.198 96.7247C69.2142 96.8177 69.2494 96.9064 69.3015 96.9851C69.3537 97.0639 69.4215 97.131 69.5008 97.1823C69.5801 97.2336 69.6691 97.2679 69.7623 97.2831L70.4255 97.4489L69.4739 101.436L68.8107 101.277C68.6391 101.245 68.4618 101.279 68.3148 101.374C68.1678 101.468 68.0624 101.615 68.0201 101.784C67.9778 101.953 68.0017 102.132 68.087 102.285C68.1723 102.437 68.3126 102.551 68.4791 102.603L71.1392 103.245C71.3154 103.279 71.498 103.246 71.6514 103.153C71.8047 103.06 71.9177 102.913 71.9683 102.74C71.993 102.654 71.9999 102.563 71.9884 102.473C71.9769 102.384 71.9473 102.298 71.9015 102.22C71.8556 102.143 71.7944 102.075 71.7216 102.022C71.6488 101.969 71.5659 101.931 71.4781 101.911Z" fill="#C39935"/>
<path d="M81.8275 66.1519L80.9552 66.4042C80.7535 66.4607 80.5651 66.5565 80.4006 66.6862C80.2362 66.8159 80.0991 66.9769 79.9972 67.1599C79.8954 67.3429 79.8307 67.5442 79.8071 67.7523C79.7834 67.9604 79.8012 68.1711 79.8594 68.3722L80.8615 71.8686C80.9789 72.2754 81.2526 72.619 81.6228 72.8244C81.993 73.0298 82.4295 73.0801 82.8367 72.9644L83.709 72.712C83.9107 72.6556 84.0992 72.5597 84.2636 72.43C84.428 72.3003 84.5651 72.1393 84.667 71.9563C84.7688 71.7734 84.8335 71.572 84.8571 71.3639C84.8808 71.1559 84.863 70.9452 84.8048 70.744L83.8027 67.2404C83.6838 66.835 83.4095 66.493 83.0395 66.2891C82.6694 66.0852 82.2337 66.0358 81.8275 66.1519ZM83.5 71.1333C83.5087 71.1612 83.5117 71.1906 83.5088 71.2197C83.5059 71.2488 83.497 71.277 83.4829 71.3026C83.4687 71.3283 83.4496 71.3507 83.4265 71.3687C83.4034 71.3867 83.3769 71.3998 83.3486 71.4072L82.4691 71.6595C82.4412 71.6683 82.4117 71.6713 82.3826 71.6684C82.3535 71.6654 82.3253 71.6566 82.2997 71.6425C82.2741 71.6283 82.2516 71.6091 82.2336 71.586C82.2157 71.5629 82.2026 71.5364 82.1951 71.5081L81.1931 68.0046C81.1832 67.9767 81.1794 67.947 81.1818 67.9175C81.1842 67.8881 81.1928 67.8594 81.2071 67.8335C81.2214 67.8076 81.2411 67.7851 81.2648 67.7673C81.2884 67.7496 81.3156 67.7371 81.3445 67.7306L82.2167 67.4783C82.2451 67.4695 82.2751 67.4664 82.3047 67.4693C82.3343 67.4721 82.363 67.4808 82.3891 67.4949C82.4153 67.509 82.4384 67.5282 82.4571 67.5514C82.4758 67.5745 82.4897 67.6011 82.4979 67.6297L83.5 71.1333Z" fill="#C39935"/>
<path d="M72.5351 69.5112H71.8142V64.7173C71.805 64.5324 71.725 64.3582 71.5908 64.2307C71.4566 64.1032 71.2784 64.0322 71.0933 64.0324H69.7309C69.623 63.9989 69.5087 63.9912 69.3973 64.01C69.2859 64.0288 69.1805 64.0735 69.0895 64.1404C68.9986 64.2074 68.9246 64.2949 68.8737 64.3957C68.8227 64.4965 68.7961 64.6079 68.7961 64.7209C68.7961 64.8339 68.8227 64.9453 68.8737 65.0461C68.9246 65.1469 68.9986 65.2343 69.0895 65.3013C69.1805 65.3683 69.2859 65.413 69.3973 65.4318C69.5087 65.4505 69.623 65.4429 69.7309 65.4093H70.4157V69.5112H69.7309C69.6234 69.4799 69.5102 69.474 69.4 69.494C69.2899 69.5141 69.186 69.5594 69.0965 69.6266C69.007 69.6937 68.9343 69.7808 68.8842 69.8809C68.8342 69.981 68.8081 70.0914 68.8081 70.2033C68.8081 70.3152 68.8342 70.4256 68.8842 70.5257C68.9343 70.6258 69.007 70.7129 69.0965 70.78C69.186 70.8472 69.2899 70.8926 69.4 70.9126C69.5102 70.9326 69.6234 70.9267 69.7309 70.8954H72.4631C72.6543 70.8954 72.8376 70.8194 72.9728 70.6842C73.108 70.549 73.184 70.3657 73.184 70.1745C73.1804 70.0021 73.1114 69.8376 72.9908 69.7144C72.8703 69.5912 72.7073 69.5185 72.5351 69.5112Z" fill="#C39935"/>
<path d="M72.7538 74.1028L71.8527 73.9875C71.6449 73.9612 71.4339 73.9762 71.2319 74.0316C71.0299 74.087 70.8407 74.1817 70.6753 74.3102C70.5099 74.4388 70.3715 74.5987 70.268 74.7808C70.1645 74.963 70.0979 75.1637 70.0721 75.3716L69.6179 78.9761C69.5668 79.3963 69.6835 79.8197 69.9426 80.1544C70.2017 80.4891 70.5824 80.7082 71.002 80.7639L71.9031 80.872C72.1106 80.8993 72.3214 80.8853 72.5234 80.8307C72.7254 80.7762 72.9146 80.6822 73.0801 80.5542C73.2456 80.4262 73.3842 80.2668 73.4878 80.085C73.5914 79.9032 73.658 79.7027 73.6838 79.4951L74.138 75.8906C74.1652 75.6822 74.151 75.4705 74.0961 75.2677C74.0412 75.0648 73.9466 74.8748 73.818 74.7086C73.6893 74.5425 73.5291 74.4034 73.3464 74.2994C73.1638 74.1954 72.9624 74.1286 72.7538 74.1028ZM72.3285 79.3293C72.3269 79.3598 72.3189 79.3896 72.3049 79.4167C72.291 79.4439 72.2715 79.4678 72.2476 79.4868C72.2238 79.5059 72.1962 79.5197 72.1666 79.5274C72.1371 79.535 72.1062 79.5363 72.0762 79.5312L71.175 79.423C71.1158 79.4141 71.0622 79.3832 71.0247 79.3364C70.9873 79.2896 70.9689 79.2305 70.9732 79.1707L71.4274 75.5662C71.43 75.5361 71.4388 75.5069 71.453 75.4803C71.4673 75.4537 71.4868 75.4302 71.5104 75.4114C71.5339 75.3925 71.5611 75.3786 71.5902 75.3705C71.6193 75.3625 71.6497 75.3604 71.6797 75.3644L72.5808 75.4797C72.6109 75.4824 72.6401 75.4911 72.6667 75.5054C72.6933 75.5196 72.7168 75.5392 72.7357 75.5627C72.7545 75.5863 72.7684 75.6135 72.7765 75.6426C72.7846 75.6717 72.7867 75.7021 72.7827 75.732L72.3285 79.3293Z" fill="#C39935"/>
<path d="M84.4251 81.7659H83.7042V76.9864C83.7042 76.7952 83.6283 76.6118 83.4931 76.4766C83.3579 76.3414 83.1745 76.2655 82.9833 76.2655H81.6929C81.5855 76.2342 81.4723 76.2283 81.3621 76.2483C81.252 76.2683 81.1481 76.3137 81.0585 76.3808C80.969 76.448 80.8963 76.5351 80.8463 76.6352C80.7962 76.7353 80.7702 76.8456 80.7702 76.9576C80.7702 77.0695 80.7962 77.1799 80.8463 77.28C80.8963 77.3801 80.969 77.4671 81.0585 77.5343C81.1481 77.6014 81.252 77.6468 81.3621 77.6668C81.4723 77.6868 81.5855 77.681 81.6929 77.6496H82.3778V81.7515H81.6929C81.5017 81.7515 81.3184 81.8275 81.1832 81.9627C81.048 82.0979 80.972 82.2812 80.972 82.4724C80.9709 82.5658 80.989 82.6584 81.0253 82.7444C81.0616 82.8304 81.1152 82.908 81.1829 82.9723C81.2506 83.0366 81.3308 83.0862 81.4186 83.118C81.5064 83.1499 81.5998 83.1632 81.6929 83.1573H84.4251C84.5778 83.1158 84.7127 83.0252 84.8088 82.8994C84.9049 82.7737 84.957 82.6199 84.957 82.4616C84.957 82.3033 84.9049 82.1495 84.8088 82.0238C84.7127 81.898 84.5778 81.8074 84.4251 81.7659Z" fill="#C39935"/>
<path d="M78.4251 61.7659H77.7042V56.9864C77.7042 56.7952 77.6283 56.6118 77.4931 56.4766C77.3579 56.3414 77.1745 56.2655 76.9833 56.2655H75.6929C75.5855 56.2342 75.4723 56.2283 75.3621 56.2483C75.252 56.2683 75.1481 56.3137 75.0585 56.3808C74.969 56.448 74.8963 56.5351 74.8463 56.6352C74.7962 56.7353 74.7702 56.8456 74.7702 56.9576C74.7702 57.0695 74.7962 57.1799 74.8463 57.28C74.8963 57.3801 74.969 57.4671 75.0585 57.5343C75.1481 57.6014 75.252 57.6468 75.3621 57.6668C75.4723 57.6868 75.5855 57.681 75.6929 57.6496H76.3778V61.7515H75.6929C75.5017 61.7515 75.3184 61.8275 75.1832 61.9627C75.048 62.0979 74.972 62.2812 74.972 62.4724C74.9709 62.5658 74.989 62.6584 75.0253 62.7444C75.0616 62.8304 75.1152 62.908 75.1829 62.9723C75.2506 63.0366 75.3308 63.0862 75.4186 63.118C75.5064 63.1499 75.5998 63.1632 75.6929 63.1573H78.4251C78.5778 63.1158 78.7127 63.0252 78.8088 62.8994C78.9049 62.7737 78.957 62.6199 78.957 62.4616C78.957 62.3033 78.9049 62.1495 78.8088 62.0238C78.7127 61.898 78.5778 61.8074 78.4251 61.7659Z" fill="#C39935"/>
</svg>
