<?xml version="1.0" encoding="UTF-8"?>
<svg id="Layer_2" data-name="Layer 2" xmlns="http://www.w3.org/2000/svg" viewBox="0 0 2645.82 5548">
  <defs>
    <style>
      .cls-1 {
        font-size: 757px;
      }

      .cls-1, .cls-2 {
        fill: #fff;
      }

      .cls-1, .cls-3 {
        font-family: AbrilFatface-Regular, 'Abril Fatface';
      }

      .cls-4, .cls-3 {
        fill: #ec1f27;
      }

      .cls-5 {
        fill: #231f20;
      }

      .cls-6 {
        letter-spacing: -.02em;
      }

      .cls-7 {
        fill: #1f3528;
      }

      .cls-3 {
        font-size: 753px;
      }

      .cls-8 {
        fill: #dcad75;
      }
    </style>
  </defs>
  <g id="PROD">
    <path class="cls-5" d="M2645.8,1878.52c-.01-3.74-.03-7.48-.07-11.22-.04-3.32-.1-6.63-.17-9.95-.03-1.69-.06-3.38-.1-5.06-.09-3.95-.2-7.89-.33-11.82-.03-.91-.06-1.81-.09-2.72-.15-4.51-.33-9.02-.52-13.52,0-.04,0-.08,0-.12-30.74-700.87-613.51-1264.7-1321.61-1264.7h0C614.68,559.41,31.82,1123.44,1.28,1824.49c0,.02,0,.03,0,.05-.19,4.46-.37,8.92-.51,13.38-.03.93-.06,1.87-.09,2.81-.12,3.88-.23,7.76-.32,11.65-.04,1.73-.07,3.45-.1,5.18-.06,3.26-.12,6.52-.16,9.78-.04,3.77-.06,7.54-.07,11.32,0,1.22-.02,2.44-.02,3.66v2342.77c0,1.22.02,2.44.02,3.66.01,3.78.03,7.55.07,11.32.04,3.26.1,6.52.16,9.78.03,1.73.06,3.46.1,5.18.09,3.89.2,7.77.32,11.65.03.94.06,1.87.09,2.81.15,4.47.32,8.93.51,13.38,0,.02,0,.03,0,.05,30.54,701.05,613.4,1265.08,1321.63,1265.08h0c708.1,0,1290.87-563.83,1321.61-1264.7,0-.04,0-.08,0-.12.2-4.5.37-9.01.52-13.52.03-.91.06-1.81.09-2.72.12-3.94.24-7.88.33-11.82.04-1.69.06-3.38.1-5.06.06-3.31.13-6.63.17-9.95.04-3.74.06-7.48.07-11.22,0-1.27.02-2.53.02-3.8V1882.32c0-1.27-.02-2.53-.02-3.8Z"/>
    <g>
      <g>
        <path class="cls-2" d="M2012,1302.99c-1.13-1.11-1.65-2.98-1.94-4.53l-11.01-69.95c-5.49-16.27-28.51-32.24-65.42-45.99-3.11-1.16-5.18-3.81-5.18-7.12l-1.3-40.8v-1.3c-.41-13.55-8.69-26.24-19.43-33.03-48.05-31.78-295.67-55.36-583.64-55.7h0c-.31,0-.62,0-.93,0-.31,0-.62,0-.93,0h0c-287.97.34-535.59,23.92-583.64,55.7-10.74,6.79-19.02,19.49-19.43,33.03v1.3l-1.3,40.8c0,3.32-2.07,5.97-5.18,7.12-36.9,13.74-59.92,29.72-65.42,45.99l-11.01,69.95c-.3,1.56-.81,3.42-1.94,4.53-14.11,13.85-21.33,28.19-21.33,43.14,0,28.89,28.06,56.14,77.71,80.19l180.67,1848.71c4.5,74.17,205.07,131.08,451.51,130.98h0c.09,0,.19,0,.28,0s.19,0,.28,0h0c246.44.11,447-56.81,451.51-130.98l180.67-1848.71c49.65-24.04,77.71-51.3,77.71-80.19,0-14.94-7.22-29.28-21.33-43.14ZM1786.47,2706.67l-53.22,546.71s0,.03-.02.05c-45.97,57.81-212.66,99.62-407.12,101.41-1.66.02-2.52-.17-2.96,0-.43-.17-1.29.02-2.96,0-194.46-1.79-361.15-43.6-407.12-101.41-.01-.01-.02-.03-.02-.05l-53.22-546.71c-.54-5.57,4.71-9.91,10.09-8.36,84.51,24.36,255.79,40.99,453.13,40.86h0s.06,0,.09,0,.06,0,.09,0h0c197.34.12,368.62-16.5,453.13-40.86,5.38-1.55,10.63,2.79,10.09,8.36ZM1861.3,1937.94c-.38,3.9-3.56,6.94-7.47,7.14-116.31,5.94-200.06,10.86-522.86,9.68-5.34-.02-10.3-.02-15.64,0-322.8,1.18-406.55-3.74-522.86-9.68-3.92-.2-7.09-3.23-7.47-7.14l-53.77-552.33c90.93-23.79,320.6-44.41,589.61-44.41h4.62c269.01,0,498.68,20.62,589.61,44.41l-53.77,552.33Z"/>
        <path class="cls-2" d="M1132.37,769.95c20.96,25.47,53.76,56.35,53.76,56.35.55.35,5.91,3.66,11.66,1.3,3.7-1.52,5.46-4.52,5.83-5.18.53-.94,2.24-4.01,1.3-7.77-.58-2.3-1.89-3.82-2.59-4.53-.97-1.64-2.36-4.09-3.89-7.12-6.9-13.69-23.11-52.18-5.18-122.41,8.91-34.9,27.53-67.31,64.77-132.13,23.26-40.48,28.99-46.78,51.17-87.44,21.45-39.31,32.46-59.67,43.39-88.73,9.86-26.21,22.97-61.02,25.91-105.57,1.73-26.14,5.11-78.23-23.32-134.07,0,0-35.96-70.64-117.88-109.46-8.34-3.95-4.5-1.22-38.21-14.25,0,0-33.28-12.86-48.18-7.71-1.84.64-2.99,1.88-2.99,1.88-.32.35-1.18,1.37-1.82,4.08-.65,2.74-1.22,5.15-.12,7.58.96,2.11,2.71,3.17,3.89,3.89,3.05,1.85,5.18,1.43,10.36,2.59,0,0,1.39.31,6.48,1.94,3.76,1.2,40.4,15.42,64.77,44.04,34.8,40.87,32.01,96.32,31.09,114.64-2.18,43.2-17.05,72.31-42.75,121.76-42.19,81.21-62.24,84.02-101.69,163.86-30.01,60.75-36.81,96.39-39.51,116.58-3.27,24.51-7.45,58.45,4.53,99.09,12.39,42.02,36.04,70.76,49.22,86.79Z"/>
        <path class="cls-2" d="M1462.77,666.01c-25.97,49.99-38.31,51.72-62.59,100.87-18.47,37.39-22.66,59.33-24.32,71.76-2.02,15.09-4.59,35.98,2.79,61,7.63,25.87,22.19,43.56,30.3,53.42,12.9,15.68,33.09,34.69,33.09,34.69.34.22,3.64,2.25,7.18.8,2.28-.94,3.36-2.78,3.59-3.19.32-.58,1.38-2.47.8-4.78-.36-1.42-1.16-2.35-1.59-2.79-.59-1.01-1.45-2.52-2.39-4.39-4.25-8.43-14.23-32.12-3.19-75.35,5.48-21.48,16.95-41.43,39.87-81.33,14.32-24.92,17.84-28.8,31.5-53.82,13.2-24.2,19.98-36.73,26.71-54.62,6.07-16.13,14.14-37.56,15.95-64.98,1.06-16.09,3.15-48.15-14.35-82.53,0,0-22.14-43.48-72.56-67.38-5.13-2.43-2.77-.75-23.52-8.77,0,0-20.49-7.92-29.66-4.75-1.13.39-1.84,1.16-1.84,1.16-.2.21-.73.84-1.12,2.51-.4,1.69-.75,3.17-.07,4.67.59,1.3,1.67,1.95,2.39,2.39,1.88,1.14,3.19.88,6.38,1.59,0,0,.86.19,3.99,1.2,2.31.74,24.87,9.49,39.87,27.11,21.42,25.16,19.7,59.29,19.14,70.57-1.34,26.59-10.5,44.51-26.31,74.95Z"/>
      </g>
      <rect class="cls-8" x="327.23" y="3501.75" width="1992" height="108.5"/>
    </g>
    <path class="cls-8" d="M1639.63,598.6c2.5,21.79,1.34,39.42.65,49.95-1.62,24.51-6.7,45.59-11.95,62.4,55.88,14.68,110.81,33.42,164.56,56.26,71.69,30.46,140.9,68.15,205.71,112.03,64.22,43.48,124.66,93.4,179.62,148.36,54.96,54.96,104.88,115.4,148.36,179.62,43.88,64.81,81.57,134.02,112.03,205.71,63.36,149.15,95.49,307.27,95.49,469.98v2342.18c0,162.71-32.13,320.83-95.49,469.98-30.46,71.69-68.15,140.9-112.03,205.71-43.48,64.22-93.4,124.66-148.36,179.62-54.96,54.96-115.4,104.88-179.62,148.36-64.81,43.88-134.02,81.57-205.71,112.03-149.15,63.36-307.27,95.49-469.98,95.49s-320.83-32.13-469.98-95.49c-71.69-30.46-140.9-68.15-205.71-112.03-64.22-43.48-124.66-93.4-179.62-148.36-54.96-54.96-104.88-115.4-148.36-179.62-43.88-64.81-81.57-134.02-112.03-205.71-63.36-149.15-95.49-307.27-95.49-469.98V1882.91c0-162.71,32.13-320.83,95.49-469.98,30.46-71.69,68.15-140.9,112.03-205.71,43.48-64.22,93.4-124.66,148.36-179.62,54.96-54.96,115.4-104.88,179.62-148.36,64.81-43.88,134.02-81.57,205.71-112.03,50.95-21.64,102.95-39.62,155.81-53.94-.8-2.46-1.59-4.94-2.33-7.48-12.16-41.23-12.35-77.7-10.2-104.68C425.26,747.53,0,1267.96,0,1882.91v2342.18c0,727.6,595.31,1322.91,1322.91,1322.91h0c727.6,0,1322.91-595.31,1322.91-1322.91V1882.91c0-618.53-430.22-1141.43-1006.19-1284.31Z"/>
    <g>
      <g>
        <path class="cls-2" d="M986.09,4104.97c0,103.97-29.28,176.38-87.81,217.26-54.01,37.85-128.19,56.78-222.56,56.78h-214.23v-14.38h49.96v-501.13h-49.96v-14.38h233.91c96.9,0,169.57,19.81,218.02,59.42,48.45,39.62,72.67,105.1,72.67,196.44ZM659.07,4364.62h28.77c50.97,0,87.43-18.04,109.39-54.13,21.95-36.08,32.93-96.52,32.93-181.3v-43.91c0-113.55-21.7-181.93-65.1-205.15-20.7-11.09-49.96-16.65-87.81-16.65h-18.17v501.13Z"/>
        <path class="cls-2" d="M1202.6,4201.11h21.95v-58.29c0-47.94-2.65-80.11-7.95-96.52-5.3-16.39-15.52-24.6-30.66-24.6-9.08,0-17.29,2.4-24.6,7.19-7.32,4.8-10.98,11.35-10.98,19.68s1.51,16.78,4.54,25.36h18.92c4.03,10.6,6.06,23.35,6.06,38.23s-6.32,27.76-18.92,38.61c-12.62,10.86-28.52,16.28-47.69,16.28-43.41,0-65.1-20.94-65.1-62.83,0-62.07,52.73-93.11,158.21-93.11,60.05,0,101.55,10.22,124.53,30.66,22.96,20.44,34.44,57.91,34.44,112.41v153.67c0,26.25,7.31,39.36,21.95,39.36,17.15,0,27.25-25.99,30.28-77.97l11.35.76c-2.02,44.41-10.35,74.94-24.98,91.6-14.64,16.65-38.61,24.98-71.91,24.98-60.56,0-95.38-18.67-104.47-56.02-6.56,19.19-16.41,33.31-29.52,42.39-13.13,9.08-32.3,13.63-57.53,13.63-74.7,0-112.04-30.53-112.04-91.6,0-35.83,14.25-60.43,42.77-73.81,28.51-13.37,72.29-20.06,131.34-20.06ZM1176.48,4344.93c2.77,7.57,8.07,11.36,15.9,11.36s15.14-6.43,21.95-19.3c6.81-12.87,10.22-30.66,10.22-53.37v-70.4h-5.3c-31.3,0-46.93,22.97-46.93,68.89v12.11c0,26.25,1.38,43.15,4.16,50.72Z"/>
        <path class="cls-2" d="M1433.48,4018.67h185.46v346.71h42.39v13.63h-224.83v-13.63h41.63v-333.08h-44.66v-13.63Z"/>
        <path class="cls-2" d="M1673.44,3811.25h185.46v554.12h42.39v13.63h-224.83v-13.63h41.63v-540.5h-44.66v-13.63Z"/>
        <path class="cls-2" d="M1900.53,4032.29v-13.63h219.53v13.63h-40.88l82.51,251.32,87.81-251.32h-50.72v-13.63h106.74v13.63h-37.85l-141.56,408.02c-16.65,47.43-35.33,80.62-56.02,99.54-20.7,18.92-45.93,28.39-75.7,28.39s-53.25-6.81-70.4-20.44c-17.16-13.63-25.74-31.04-25.74-52.23s5.55-37.35,16.65-48.45c11.09-11.11,25.74-16.65,43.91-16.65,41.88,0,62.83,17.41,62.83,52.23,0,7.57-1.51,16.65-4.54,27.25h-26.5c-4.04,11.6-4.54,21.2-1.51,28.77,3.03,7.57,9.84,11.36,20.44,11.36,20.69,0,39.1-10.22,55.26-30.66,16.15-20.44,31.53-51.61,46.18-93.49l16.65-46.93h-66.62l-129.45-346.71h-31.04Z"/>
      </g>
      <text class="cls-1" transform="translate(429.39 5007)"><tspan class="cls-6" x="0" y="0">C</tspan><tspan x="507.19" y="0">up</tspan></text>
      <text class="cls-3" transform="translate(1839.69 5030.93)"><tspan x="0" y="0">s</tspan></text>
      <path class="cls-4" d="M1544.99,3990.74c.59.08,1.24-1.55,1.35-1.8,4.22-9.99,90.7-97.68,94.39-202.13,1.41-39.78-10.05-57.74-15.34-64.81-12.43-16.6-28.97-24.02-37.65-27.04-29.93-10.41-55.9.39-63.99,4.26-5.4,2.59-14.67,7.14-23.17,16.9-11.65,13.36-14.39,27.94-15.77,35.8-2.48,14.12-.77,26.21,1.42,33.24,1.28,4.11,3.16,7.92,3.95,9.52,1.13,2.28,5.33,10.78,7.11,10.17.05-.02.07-.03.11-.05,1.93-1.1-.11-9.52-.15-9.69-1.74-7.18-.95-29,8.65-42.96,13.52-19.66,35.86-22.87,42.66-23.84,6.65-.96,21.69-2.92,36.93,5.41,11.49,6.28,17.47,15.33,19.94,19.19,16.64,25.87,9.8,58,5.86,76.5-1.08,5.05-2.26,9.31-2.91,11.62-4.18,14.86-9.24,26.72-16.49,41.52-16.59,33.9-40.73,75.39-40.94,75.78l-.17.32c-.1.2-.1.21-.12.22-.31.09-1.71-4.18-1.71-4.18-1.21-3.69-3.51-6.51-6.35-10.01-8.66-10.65-22.5-18.69-22.5-18.69-13.63-7.92-24.99-12.32-44.3-19.72-12.37-4.74-18.44-6.68-28.77-11.93-12.46-6.33-18.08-10.84-19.74-12.21-6.45-5.31-13.52-11.12-18.05-21.29-6.56-14.74-3.32-28.54-2.63-31.26.59-2.32,5.41-20.14,22.91-30.09,12.49-7.1,24.48-6.24,33.34-5.61,20.71,1.48,31.36,14.32,34.44,10.95,2.51-2.75-2.35-13.2-10-18.84-2.03-1.49-3.97-2.31-7.76-3.89-7.53-3.14-15.26-5.3-23.32-6.71-5.63-.98-11.95-2.09-20.51-1.86-5.56.15-13.96.43-23.94,4.13-9.37,3.47-15.52,8.23-16.74,9.19-13.23,10.42-18.12,24.05-20.44,30.79-1.82,5.29-5.71,17.03-3.72,32.35.7,5.37,3.35,20.63,14.88,34.16,3.87,4.55,7.47,7.4,11.61,10.68,9.93,7.87,18.77,12.07,25.32,15.13,6.45,3.02,12.89,5.26,25.78,9.76,8.68,3.03,9.37,3.09,22.48,7.5,23.42,7.88,27.66,9.86,31.59,11.98,9.41,5.08,15.53,10.16,17.08,11.47,8.26,6.98,12.93,13.4,17,18.99,5.91,8.13,6.73,11.34,7.05,13.23.58,3.41.43,7.68,1.36,7.81Z"/>
    </g>
    <g>
      <path class="cls-7" d="M1131.4,2258.84c-58.98,37.83-62.6,137.41-8.09,222.41,47.43,73.96,123.24,112.49,180.99,96.34,4.63-1.34,9.99-3.27,15.7-6.1,8.6-4.27,15.25-9.21,20.08-13.42,47.92-42.76,47.63-134.61-3.17-213.82-54.52-85-146.53-123.24-205.51-85.41ZM1239.22,2534.34c-31.16-12.95-61.56-39.9-83.39-73.95-25.19-39.28-36.81-84.47-31.08-120.88,1.44-9.13,4.38-20.16,10.3-30.07,11.32,11.27,35.89,27.41,54.88,53.79,33.49,46.55,11.44,71.97,43.02,118.92,9.17,13.64,25.72,33.34,23.78,57.92-6.76-1.62-12.78-3.77-17.5-5.74ZM1221.01,2291.15c31.16,12.95,61.56,39.9,83.39,73.95,25.19,39.28,36.81,84.47,31.08,120.87h0c-1.96,12.44-6.7,28.37-17.97,40.26-20.58-6.67-38.35-39.25-45.9-54.44-32.7-65.83-9.87-79.31-38.16-117.13-17.15-22.92-35.86-31.76-44.84-61.59-.85-2.83-1.81-6.48-2.86-10.16,13.8.48,26.68,4.68,35.25,8.24Z"/>
      <g>
        <path class="cls-7" d="M1400.06,2363.24c-12.04-71.06-1.98-108.52,10.15-129.74,3.38-5.92,13.92-22.88,24.82-48.51,7.9-18.57,12.83-34.47,15.79-45.13.19-2,1.53-18.9-11.28-30.46-7.95-7.17-17.07-8.44-20.49-8.73-38.94,13.79-71.61,60.59-79.21,119.58-9.04,70.12,31.26,122.67,36.74,128.09,4.71,4.67,9.94,8.12,9.94,8.12,5.3,3.5,10.17,5.56,13.54,6.77Z"/>
        <path class="cls-7" d="M1481.25,2108.67c-3.99-2.52-7.87-4.9-7.87-4.9-9.27-4.81-18.2-6.33-24.82-6.77,13.71,10.07,19.63,20.98,22.23,26.93,9.29,21.25,3.89,42.57-.8,61.07-1.82,7.18-4.25,16.75-10.15,28.2-5.94,11.51-10.69,16.78-20.31,34.97,0,0-3.33,6.29-6.77,13.54-13.62,28.66-20.46,93.15-21.43,102.66.99,1.11,2.46,2.44,4.51,3.38,0,0,4.8,2.21,11.55.37,5.62-1.53,88.92-36.1,100.2-123.66,9.02-69.98-33.56-127.72-46.35-135.79Z"/>
      </g>
      <g>
        <path class="cls-7" d="M1399.57,2429.34c39.18-18.1,62.41-18.16,76.57-14.47,3.95,1.03,15.41,4.46,31.93,6.74,11.97,1.65,21.93,2.01,28.56,2.05,1.19-.2,11.16-2.08,15.83-11.3,2.9-5.72,2.2-11.19,1.83-13.21-14.08-20.34-46.24-31.89-81.53-27.03-41.94,5.77-65.99,37.3-68.27,41.32-1.96,3.45-3.13,7.02-3.13,7.02-1.19,3.61-1.62,6.75-1.79,8.89Z"/>
        <path class="cls-7" d="M1559.42,2436.35c.83-2.7,1.6-5.32,1.6-5.32,1.32-6.11.81-11.51.02-15.4-3.67,9.5-9.04,14.64-12.08,17.07-10.83,8.7-23.99,8.92-35.42,9.11-4.43.07-10.34.17-17.89-1.45-7.59-1.63-11.38-3.55-23.4-6.25,0,0-4.16-.94-8.89-1.79-18.7-3.38-57.04,2.78-62.69,3.71-.49.75-1.03,1.81-1.25,3.14,0,0-.52,3.12,1.6,6.74,1.77,3.01,34.8,45.73,87.18,38.52,41.86-5.76,68.55-39.42,71.21-48.08Z"/>
      </g>
    </g>
  </g>
</svg>