<?xml version="1.0" encoding="UTF-8"?>
<svg id="Layer_2" data-name="Layer 2" xmlns="http://www.w3.org/2000/svg" viewBox="0 0 810 810">
  <defs>
    <style>
      .cls-1 {
        fill: #fff;
      }

      .cls-2 {
        fill: #1c1d1f;
      }

      .cls-3 {
        fill: #5b574e;
      }

      .cls-4 {
        fill: #b98c48;
      }
    </style>
  </defs>
  <g id="Layer_1-2" data-name="Layer 1">
    <circle class="cls-1" cx="405" cy="405" r="405"/>
    <g id="A">
      <path class="cls-2" d="M392.6,644.83c.03-1.15.06-2.29.1-3.44.07-2.27.13-4.54.22-6.81.04-1.16.09-2.32.14-3.48.09-2.25.19-4.5.31-6.74.06-1.17.13-2.35.19-3.52.12-2.22.25-4.45.39-6.67.08-1.19.16-2.37.24-3.56.15-2.2.3-4.4.47-6.59.09-1.2.19-2.39.29-3.59.18-2.18.36-4.36.55-6.53.11-1.21.22-2.41.34-3.61.2-2.16.41-4.32.63-6.47.12-1.21.25-2.42.38-3.63.23-2.14.46-4.28.71-6.42.14-1.22.29-2.43.43-3.65.26-2.12.52-4.24.79-6.36.16-1.23.32-2.45.48-3.68.28-2.1.57-4.2.86-6.3.17-1.23.35-2.46.53-3.68.31-2.09.62-4.18.94-6.26.19-1.23.38-2.45.58-3.68.33-2.08.67-4.15,1.02-6.22.21-1.23.42-2.46.63-3.69.36-2.06.72-4.11,1.09-6.17.22-1.24.45-2.47.68-3.7.38-2.04.77-4.07,1.16-6.11.24-1.24.49-2.49.73-3.73.4-2.02.81-4.04,1.23-6.05.26-1.24.52-2.48.78-3.72.43-2.01.86-4.01,1.31-6.02.27-1.24.55-2.48.83-3.72.45-1.99.91-3.98,1.38-5.97.29-1.24.58-2.48.88-3.72.47-1.98.96-3.95,1.45-5.93.31-1.24.62-2.48.93-3.72.5-1.96,1-3.92,1.52-5.87.33-1.24.65-2.49.98-3.73.52-1.95,1.05-3.89,1.58-5.83.34-1.24.68-2.48,1.03-3.72.54-1.93,1.1-3.86,1.65-5.79.36-1.24.72-2.48,1.08-3.72.56-1.92,1.14-3.83,1.72-5.74.38-1.24.75-2.48,1.13-3.72.59-1.9,1.18-3.8,1.78-5.69.39-1.24.78-2.48,1.18-3.72.61-1.88,1.22-3.76,1.84-5.64.41-1.24.82-2.48,1.23-3.72.63-1.87,1.27-3.73,1.91-5.59.43-1.24.85-2.48,1.28-3.71.65-1.86,1.31-3.71,1.98-5.56.44-1.23.88-2.46,1.33-3.69.67-1.84,1.36-3.68,2.04-5.52.46-1.23.91-2.46,1.38-3.69.69-1.83,1.4-3.65,2.1-5.47.47-1.22.94-2.45,1.42-3.67.72-1.82,1.44-3.63,2.17-5.44.49-1.22.97-2.43,1.47-3.65.74-1.81,1.49-3.61,2.24-5.41.5-1.21,1-2.42,1.51-3.63.76-1.79,1.53-3.58,2.3-5.36.52-1.21,1.03-2.41,1.56-3.62.78-1.78,1.57-3.55,2.36-5.32.54-1.2,1.06-2.4,1.61-3.6.8-1.76,1.61-3.52,2.42-5.28.55-1.2,1.1-2.4,1.65-3.59.82-1.75,1.65-3.5,2.48-5.24.57-1.19,1.13-2.38,1.7-3.56.84-1.75,1.7-3.48,2.56-5.22.58-1.17,1.15-2.35,1.73-3.52.87-1.74,1.75-3.47,2.63-5.2.59-1.16,1.17-2.33,1.77-3.49.89-1.73,1.8-3.46,2.7-5.19.6-1.14,1.19-2.29,1.79-3.43.93-1.75,1.87-3.49,2.81-5.23.6-1.11,1.19-2.22,1.79-3.33.96-1.77,1.95-3.53,2.92-5.29.59-1.07,1.18-2.15,1.78-3.21,1.03-1.84,2.09-3.67,3.14-5.51.56-.97,1.1-1.95,1.66-2.92,1.19-2.07,2.41-4.12,3.62-6.18.43-.73.85-1.46,1.28-2.19,1.65-2.77,3.31-5.53,4.99-8.28.62-1.01,1.25-2.01,1.87-3.01,1.07-1.74,2.14-3.48,3.23-5.21.8-1.27,1.62-2.54,2.42-3.81.92-1.45,1.84-2.9,2.77-4.35.86-1.34,1.74-2.67,2.61-4,.89-1.36,1.78-2.73,2.68-4.09.91-1.37,1.83-2.73,2.75-4.09.88-1.31,1.75-2.62,2.64-3.92.95-1.4,1.91-2.78,2.87-4.17.87-1.26,1.73-2.52,2.61-3.78.98-1.4,1.97-2.79,2.96-4.19.87-1.23,1.74-2.47,2.62-3.69,1.01-1.4,2.02-2.79,3.04-4.19.88-1.21,1.75-2.41,2.63-3.62,1.03-1.4,2.07-2.79,3.11-4.18.88-1.19,1.76-2.38,2.66-3.56,1.05-1.39,2.11-2.77,3.16-4.15.9-1.17,1.79-2.35,2.69-3.52,1.07-1.38,2.15-2.75,3.22-4.12.91-1.16,1.81-2.32,2.73-3.47,1.09-1.37,2.19-2.73,3.28-4.09.92-1.14,1.83-2.28,2.76-3.42,1.11-1.36,2.23-2.71,3.34-4.06.93-1.13,1.86-2.25,2.79-3.38,1.12-1.35,2.26-2.69,3.39-4.03.94-1.11,1.88-2.23,2.83-3.34,1.14-1.34,2.29-2.66,3.45-3.99.95-1.1,1.9-2.2,2.86-3.29,1.16-1.32,2.33-2.64,3.5-3.95.97-1.09,1.93-2.18,2.9-3.26,1.17-1.31,2.36-2.6,3.54-3.9.98-1.08,1.96-2.16,2.95-3.23,1.19-1.29,2.39-2.58,3.59-3.86,12.43-13.32,25.31-26.21,38.64-38.65-68.6,48.48-130.66,105.42-184.76,169.22-.04.05-.08.1-.12.14-2.3,2.71-4.58,5.44-6.85,8.17-.09.1-.17.21-.26.31-2.22,2.68-4.43,5.38-6.63,8.09-.13.16-.26.32-.39.48-2.15,2.65-4.28,5.32-6.4,7.99-.17.22-.35.44-.52.66-2.08,2.62-4.14,5.25-6.19,7.89-.22.28-.43.56-.65.83-2,2.59-3.99,5.19-5.97,7.79-.26.34-.51.68-.77,1.01-1.93,2.56-3.85,5.12-5.76,7.7-.29.4-.59.79-.88,1.19-1.87,2.52-3.72,5.06-5.56,7.6-.33.45-.66.9-.98,1.36-1.8,2.49-3.59,5-5.37,7.51-.36.51-.72,1.01-1.08,1.52-1.74,2.46-3.46,4.94-5.18,7.42-.39.56-.78,1.13-1.17,1.69-1.68,2.43-3.34,4.88-4.99,7.33-.42.62-.84,1.24-1.26,1.86-1.61,2.4-3.21,4.81-4.81,7.22-.45.68-.9,1.36-1.35,2.04-1.55,2.37-3.09,4.74-4.63,7.12-.47.73-.95,1.47-1.42,2.21-1.5,2.34-2.98,4.68-4.46,7.03-.5.79-.99,1.58-1.49,2.37-1.44,2.31-2.87,4.62-4.29,6.93-.52.85-1.04,1.69-1.55,2.54-1.38,2.27-2.76,4.55-4.12,6.83-.54.91-1.08,1.81-1.62,2.72-1.33,2.24-2.65,4.48-3.96,6.73-.56.96-1.12,1.92-1.68,2.89-1.28,2.21-2.55,4.42-3.81,6.64-.57,1.01-1.15,2.02-1.72,3.03-1.23,2.18-2.45,4.36-3.66,6.55-.59,1.06-1.18,2.13-1.76,3.2-1.18,2.15-2.35,4.3-3.51,6.46-.6,1.12-1.2,2.24-1.8,3.36-1.13,2.12-2.25,4.24-3.37,6.36-.62,1.17-1.23,2.34-1.84,3.52-1.08,2.09-2.16,4.17-3.23,6.27-.63,1.22-1.25,2.45-1.87,3.68-1.04,2.05-2.07,4.11-3.1,6.18-.63,1.27-1.26,2.55-1.89,3.83-1,2.03-1.99,4.06-2.97,6.1-.64,1.32-1.28,2.65-1.91,3.97-.96,2-1.9,4-2.85,6.01-.64,1.37-1.28,2.74-1.92,4.12-.92,1.98-1.83,3.95-2.73,5.94-.64,1.42-1.29,2.83-1.92,4.25-.88,1.95-1.75,3.9-2.62,5.86-.65,1.46-1.29,2.92-1.93,4.38-.84,1.93-1.68,3.86-2.51,5.79-.64,1.5-1.28,3.01-1.92,4.52-.81,1.9-1.61,3.81-2.4,5.72-.64,1.55-1.28,3.09-1.91,4.64-.77,1.88-1.54,3.76-2.3,5.65-.64,1.59-1.27,3.18-1.91,4.78-.74,1.85-1.47,3.71-2.19,5.57-.64,1.63-1.27,3.27-1.89,4.91-.7,1.83-1.4,3.67-2.09,5.51-.63,1.67-1.25,3.34-1.87,5.01-.67,1.82-1.34,3.64-2.01,5.46-.62,1.7-1.23,3.41-1.84,5.12-.64,1.8-1.28,3.6-1.92,5.41-.61,1.74-1.21,3.49-1.82,5.23-.61,1.78-1.22,3.56-1.83,5.35-.6,1.78-1.19,3.56-1.78,5.34-.59,1.77-1.17,3.53-1.75,5.3-.59,1.81-1.17,3.62-1.74,5.43-.56,1.76-1.12,3.51-1.67,5.27-.57,1.83-1.14,3.67-1.7,5.5-.54,1.75-1.07,3.5-1.6,5.25-.56,1.86-1.11,3.72-1.65,5.58-.51,1.74-1.02,3.47-1.52,5.22-.54,1.88-1.07,3.77-1.61,5.66-.49,1.73-.97,3.46-1.45,5.2-.52,1.91-1.04,3.81-1.55,5.72-.46,1.73-.93,3.46-1.38,5.19-.51,1.92-1,3.84-1.49,5.77-.44,1.73-.89,3.46-1.32,5.19-.49,1.94-.96,3.88-1.44,5.82-.28,1.13-.56,2.25-.83,3.38,0,0,.01,0,.02,0-3.83,15.92-7.29,31.98-10.34,48.18,47.4,24.45,101.13,38.32,158.09,38.52-2.14-18.71-3.66-37.63-4.47-56.75-.66-15.51-.84-30.94-.6-46.27.04-2.3.08-4.6.13-6.9Z"/>
      <path class="cls-2" d="M122.31,551c-7.39,12-14.41,24.12-21.09,36.35,27.04,44.45,63.76,82.35,107.23,110.8,16.07-92.55,48.88-183.72,99.48-269.14.49-.87.97-1.74,1.47-2.6,2.26-3.91,4.64-7.74,7.1-11.54,37.4-60.3,81.55-113.88,130.88-160.35-129.75,64.04-243.63,164.17-325.07,296.49Z"/>
    </g>
    <g id="G">
      <path class="cls-4" d="M577.39,108.05c-52.22-31.3-113.33-49.3-178.64-49.3-192.2,0-348,155.8-348,348,0,55.62,13.06,108.19,36.26,154.82,4.56-7.99,9.24-15.91,14.01-23.67,15-24.37,31.2-47.84,48.49-70.36-4.74-19.49-7.27-39.85-7.27-60.79,0-141.66,114.84-256.5,256.5-256.5,37.6,0,73.31,8.09,105.48,22.62,23.35-22.77,47.77-44.41,73.16-64.83Z"/>
      <path class="cls-4" d="M746.5,418.23v-11.23h-6.69s0-.01-.02-.02c0,0,0,.01-.01.02h-233.28v91h132.01c-34.68,91.08-119.74,157.3-221.14,164.57-.03,11.55.19,23.06.67,34.36.77,18.09,2.22,36.58,4.33,54.96l.23,2.04c176.64-11.96,317.09-155.74,323.85-333.77.02-.02.03-.03.04-.05v-.96c.01-.31.03-.62.04-.93-.01,0-.03,0-.04,0Z"/>
    </g>
    <g>
      <path class="cls-3" d="M588.14,307.63c-.38.68-.57,2.3-.57,4.86v9.25c0,2.8-1.45,5.24-4.35,7.31-3,2.17-6.68,3.25-11.04,3.25-6.05,0-10.87-1.9-14.47-5.7-3.48-3.62-5.22-8.23-5.22-13.84,0-5.97,1.77-10.94,5.31-14.91,3.96-4.47,9.41-6.71,16.35-6.71,4.63,0,8.3.89,11.01,2.68l-.48,8.8-.24.06c-.7-1.21-2.07-2.21-4.12-2.98-1.95-.74-3.99-1.1-6.13-1.1s-4.01.34-5.61,1.01c-1.6.68-2.96,1.64-4.07,2.89-2.35,2.57-3.52,5.96-3.52,10.17,0,3.68,1.03,6.63,3.1,8.86,2.07,2.21,4.73,3.31,7.99,3.31,3.6,0,6.03-.93,7.28-2.8.4-.6.6-1.27.6-2.03v-4.95h-3.85c-2.07,0-3.19.18-3.37.54l-.09-.03-.27-7.78c.56.16,2.81.24,6.77.24h3.52c2.19,0,3.98-.15,5.37-.45l.09.06Z"/>
      <path class="cls-3" d="M593.13,316.13c0-2.19.37-4.28,1.12-6.28s1.81-3.74,3.21-5.23c3.04-3.22,6.99-4.83,11.84-4.83s8.67,1.52,11.51,4.56c2.72,2.9,4.09,6.67,4.09,11.3s-1.4,8.47-4.21,11.51c-2.96,3.22-6.89,4.83-11.78,4.83s-9.01-1.58-11.87-4.74c-2.61-2.88-3.91-6.59-3.91-11.13ZM600.37,315.95c0,1.25.21,2.47.63,3.64.42,1.17,1.01,2.18,1.79,3.01,1.65,1.81,3.82,2.71,6.5,2.71,2.49,0,4.44-.88,5.88-2.65,1.39-1.71,2.09-3.94,2.09-6.68s-.72-5.03-2.15-6.74c-1.53-1.83-3.63-2.74-6.29-2.74s-4.82.97-6.35,2.92c-1.39,1.79-2.09,3.97-2.09,6.53Z"/>
      <path class="cls-3" d="M638.02,328.21c0,1.71.04,2.82.12,3.34h-7.58v-44.44h7.46v41.1Z"/>
      <path class="cls-3" d="M667.78,329.88c-2.53,1.41-5.05,2.12-7.58,2.12s-4.73-.4-6.62-1.19c-1.89-.79-3.5-1.89-4.83-3.28-2.74-2.86-4.12-6.58-4.12-11.16s1.59-8.67,4.77-11.81c3.2-3.18,7.3-4.77,12.29-4.77,1.53,0,3.03.2,4.5.6v-13.27h7.31v31.89c0,2.64.12,4.37.37,5.19.25.82.53,1.41.84,1.79.31.38.7.74,1.18,1.07l-5.61,4.95c-1.03-.56-1.87-1.26-2.51-2.12ZM661.61,325.14c1.67,0,3.2-.32,4.59-.95v-16.52c-1.39-.58-2.9-.86-4.53-.86s-3.03.22-4.19.66c-1.16.44-2.16,1.04-3,1.82-1.75,1.63-2.62,3.75-2.62,6.35,0,2.84.79,5.11,2.39,6.8,1.71,1.81,4.17,2.71,7.37,2.71Z"/>
      <path class="cls-3" d="M680.61,316.22c0-2.33.4-4.48,1.19-6.47.8-1.99,1.92-3.73,3.37-5.22,3.1-3.16,7.16-4.74,12.17-4.74,4.24,0,7.64,1.4,10.2,4.21,2.53,2.7,3.79,6.1,3.79,10.2,0,1.57-.12,2.64-.36,3.22-1.99.56-6.04.84-12.14.84h-10.5c.52,2.13,1.72,3.78,3.61,4.97,1.89,1.18,4.34,1.77,7.37,1.77s5.88-.57,8.14-1.7c.6-.3,1.04-.58,1.34-.84-.04.84-.09,1.69-.15,2.57l-.33,4.65c-1.51,1.03-3.96,1.75-7.34,2.15-.99.12-1.95.18-2.86.18-5.05,0-9.23-1.47-12.53-4.41-3.32-2.96-4.98-6.75-4.98-11.36ZM703.4,312.46c-.82-4.28-3.14-6.41-6.98-6.41-3.02,0-5.32,1.3-6.89,3.91-.48.8-.85,1.67-1.1,2.62.48.02,1.06.04,1.76.06h2.21c.74.02,1.44.03,2.12.03h1.7c1.01,0,2.01,0,2.98-.03l2.45-.09c.66-.02,1.24-.05,1.76-.09Z"/>
      <path class="cls-3" d="M725.65,327.73c0,1.75.08,3.02.24,3.82h-7.49v-31.17h7.25v2.65c2.62-2.17,5.43-3.25,8.41-3.25,3.26,0,5.87,1.11,7.81,3.33,1.95,2.22,2.92,5.14,2.92,8.75v11.87c0,3.36.05,5.38.15,6.05.1.68.23,1.11.4,1.31.17.2.31.38.43.54l-.06.12c-1.61-.14-2.78-.21-3.52-.21h-2.09c-.64,0-1.49.03-2.57.09v-16.26c0-5.83-1.77-8.74-5.31-8.74-2.62,0-4.82,1.35-6.59,4.06v17.03Z"/>
    </g>
    <g>
      <path class="cls-3" d="M521.29,399.84c-3.03-.28-6.57-.42-10.62-.42h-4.17l22.98-64.4c1.02-2.89,1.53-4.57,1.53-5.05s-.02-.77-.05-.87l.05-.11c2.29.11,4.72.16,7.29.16,2.11,0,4.65-.03,7.61-.11l.05.11c-.07.14-.11.34-.11.58,0,.67.53,2.45,1.58,5.34l23.46,64.5c-.71-.04-1.53-.05-2.48-.05l-2.75-.11h-10.57l-4.97-15.21h-23.88l-4.97,15.64ZM546.02,371.53l-7.98-24.57-7.77,24.57h15.74Z"/>
      <path class="cls-3" d="M590.55,393.5c0,3.03.07,5,.21,5.92h-13.15v-55.21h12.94v4.07c2.99-3.42,6.14-5.12,9.43-5.12s5.89.41,7.79,1.22l-.95,14.21-.21.16c-1.23-2.18-3.79-3.28-7.66-3.28-1.48,0-2.98.5-4.52,1.51s-2.83,2.33-3.88,3.99v32.54Z"/>
      <path class="cls-3" d="M628.48,384.15c0,7.92.14,13.01.42,15.27h-13.79v-55.21h13.37v4.75c4.82-3.87,9.77-5.81,14.84-5.81,5.99,0,10.34,2.59,13.05,7.77,2.71-2.78,4.97-4.61,6.76-5.49,2.99-1.51,6-2.27,9.01-2.27s5.57.51,7.69,1.53c2.11,1.02,3.86,2.47,5.23,4.33,2.78,3.77,4.17,8.95,4.17,15.53v21.03c0,5.95.09,9.53.26,10.72.18,1.2.41,1.97.71,2.32.3.35.55.67.77.95l-.11.21c-2.82-.25-4.9-.37-6.23-.37h-3.96c-1.3,0-2.91.05-4.81.16v-28.58c0-8.24-1.27-13.14-3.8-14.69-.85-.49-1.84-.74-2.98-.74s-2.16.13-3.04.4-1.71.7-2.48,1.29c-1.3.95-2.78,2.82-4.44,5.6.04.28.05.56.05.85v13.95c0,9.02.21,16.27.63,21.77h-7.63c-2.1,0-4.09.05-6,.16v-28.63c0-5.74-.34-9.47-1.03-11.2-.69-1.72-1.42-2.85-2.19-3.38-.77-.53-1.73-.79-2.85-.79-4.65,0-8.52,2.24-11.62,6.71v21.87Z"/>
      <path class="cls-3" d="M723.15,400.21c-9.93,0-17.42-1.81-22.45-5.44.07-1.06.18-2.25.32-3.59l.48-3.8c.28-2.5.46-4.06.53-4.68.07-.62.12-.95.16-1s.32.23.85.85c.53.62,1.53,1.37,3.01,2.25,1.48.88,3.19,1.66,5.12,2.32,4.19,1.44,8.56,2.17,13.1,2.17,6.09,0,9.14-2.03,9.14-6.08,0-1.3-.58-2.27-1.74-2.91-2.08-1.06-5.13-1.86-9.17-2.4-4.03-.55-7.33-1.35-9.91-2.4s-4.67-2.32-6.29-3.8c-2.99-2.78-4.49-6.43-4.49-10.94,0-5.49,2.11-9.81,6.34-12.94,4.19-3.1,9.98-4.65,17.38-4.65s13.58,2.08,18.75,6.23c-.25.92-.51,1.8-.79,2.64-.81,2.32-1.41,4-1.8,5.02l-1.22,3.12c-.07.28-.12.42-.16.42-.07,0-.35-.37-.85-1.11-2.22-2.57-5.67-4.26-10.35-5.07-1.44-.28-2.92-.42-4.44-.42-6.41,0-9.61,1.94-9.61,5.81,0,1.34.67,2.36,2.01,3.06,2.5,1.34,5.93,2.32,10.28,2.96s7.65,1.49,9.91,2.56c2.25,1.07,4.07,2.37,5.44,3.88,2.54,2.75,3.8,6.39,3.8,10.94,0,4.97-1.99,9-5.97,12.1-4.16,3.28-9.95,4.91-17.38,4.91Z"/>
    </g>
  </g>
</svg>