<svg width="2508" height="583" viewBox="0 10 2508 583" preserveAspectRatio="xMinYMid meet" fill="none" xmlns="http://www.w3.org/2000/svg">
<g>
<path d="M2430.7 179.001C2449.1 177.152 2451.69 177.098 2456.42 182.693C2459.47 185.833 2462.66 190.793 2465.2 196.726C2466.15 198.957 2466.94 201.16 2467.57 203.272C2468.13 204.506 2468.62 206.092 2469 207.953C2472.33 224.627 2470.97 236.664 2464.93 243.862C2462.86 246.336 2461.41 247.858 2460.26 248.529C2458.1 250.059 2455.2 251 2452 251C2449.09 251 2446.42 250.224 2444.35 248.933C2441.92 247.602 2439.09 245.543 2436.03 242.793C2435.78 242.565 2435.53 242.334 2435.3 242.104C2434.24 241.267 2433.16 240.383 2432.06 239.46C2430.22 237.909 2428.5 236.372 2426.93 234.901C2426.47 234.521 2426 234.135 2425.53 233.743C2423.51 232.037 2421.6 230.306 2419.83 228.582C2418.55 227.726 2417.26 226.766 2416 225.703C2415.61 225.373 2415.23 225.037 2414.85 224.7C2414.12 224.443 2413.39 224.167 2412.68 223.87C2401.04 219.013 2358.28 217.934 2351.33 222.323C2346.28 225.523 2341.82 261.053 2344.97 272.971C2346.61 279.154 2349.18 281.064 2356.87 281.815C2369.18 283.018 2377.08 276.25 2381.2 260.978C2386.98 239.527 2406.89 238.854 2415.65 259.817C2420.97 272.548 2421.44 317.208 2416.43 333.932C2412.42 347.313 2402.28 355.615 2393.39 352.793C2389.85 351.667 2385.33 345.235 2382.18 336.832C2379.28 329.092 2375.49 321.767 2373.75 320.557C2368.83 317.12 2355.72 317.895 2351.76 321.859C2346.07 327.548 2347.06 372.213 2353.06 380.791C2357.71 387.429 2359.34 387.716 2385.23 386.504C2419.25 384.915 2430.58 379.453 2446.1 357.175C2455.34 343.904 2459.4 340.535 2467.02 339.789C2474.46 339.062 2477.56 340.522 2481.56 346.621C2491.27 361.445 2481.39 401.795 2463.27 421.357L2456.18 429.003L2343.01 426.127C2249.66 424.565 2246.37 424.31 2240.2 418.133C2231.92 409.841 2234.54 401.351 2247.97 393.056C2255.37 388.483 2258.83 383.694 2260.53 375.698C2264 359.377 2263.44 233.922 2259.88 227.934C2258.23 225.165 2252.17 219.735 2246.41 215.867C2244.1 214.315 2242.22 212.684 2240.72 211.029C2239.22 209.638 2237.99 207.826 2237.17 205.738C2235.54 202.173 2235.43 198.764 2236.34 196.061C2237.36 190.979 2240.6 186.947 2244.75 185.54C2247.13 184.604 2250.84 184 2255 184C2255.59 184 2256.17 184.013 2256.74 184.037C2257.47 184.013 2258.23 184 2259 184C2259.34 184 2259.67 184.004 2260 184.008C2260.33 184.004 2260.66 184 2261 184C2261.86 184 2262.69 184.016 2263.5 184.044C2264.31 184.016 2265.14 184 2266 184C2266.86 184 2267.69 184.016 2268.5 184.044C2269.31 184.016 2270.14 184 2271 184C2272.04 184 2273.04 184.025 2274 184.066C2274.96 184.025 2275.96 184 2277 184C2278.22 184 2279.39 184.031 2280.5 184.087C2281.61 184.031 2282.78 184 2284 184C2284.86 184 2285.69 184.016 2286.5 184.044C2287.31 184.016 2288.14 184 2289 184C2290.35 184 2291.66 184.039 2292.87 184.108C2303.29 183.737 2314.75 183.395 2326.71 183.11C2372.25 182.023 2419.05 180.175 2430.7 179.001Z" fill="#EA098D"/>
<path d="M2106.18 175.992C2127.36 172.491 2163.18 173.979 2175.41 178.868C2181.26 181.21 2186.03 185.106 2188.55 188.772C2188.79 189.111 2189.01 189.469 2189.22 189.845C2189.69 190.653 2190.03 191.442 2190.24 192.19C2190.73 193.662 2191 195.29 2191 197.001C2191 200.665 2189.77 203.943 2187.82 206.145C2185.76 209.521 2180.64 214.047 2173 219.042C2163.55 225.222 2160.92 250.072 2160.75 334.773C2160.68 371.281 2159.3 404.625 2157.69 408.882C2153.36 420.257 2143.03 423.993 2130.45 418.731C2121.38 414.938 2087.32 388.3 2073.61 375.249C2070.38 372.608 2067.08 369.857 2063.75 367.011C2059.25 363.18 2054.94 359.391 2050.86 355.706C2044.65 350.725 2036.91 344.258 2028.79 337.212C2010.78 321.575 1993.37 308.779 1990.11 308.779C1982.4 308.779 1979.66 318.956 1979.75 347.289L1979.82 369.34L1992.46 380.21C2000.55 387.169 2005.08 393.556 2005.05 397.952C2004.99 407.792 1992.62 418.806 1979.16 421.012C1972.8 422.053 1965.58 423.335 1963.11 423.858C1955 424.501 1930.71 423.222 1923.46 421.273C1894.96 413.605 1890.03 399.99 1908.95 381.252C1919.54 370.764 1920.83 367.768 1922.84 348.974C1925.09 327.994 1922.71 251.355 1919.35 236.176C1917.56 228.104 1913.94 223.918 1895.84 209.007C1887.91 202.469 1887.25 200.722 1889.93 193.124C1894.14 181.161 1906.71 176.151 1936.18 174.702C1950.71 173.989 1963.12 174.695 1972.29 176.58C1974.31 176.54 1977.09 177.346 1980.36 178.857C1982.77 179.785 1984.74 180.849 1986.22 182.036C1990.18 184.455 1994.5 187.595 1998.8 191.289C1999.51 191.895 2000.2 192.505 2000.87 193.114C2002.21 194.192 2003.67 195.413 2005.19 196.725C2006.88 198.181 2008.44 199.586 2009.8 200.853C2010.13 201.111 2010.45 201.372 2010.78 201.639C2012.51 203.049 2014.12 204.46 2015.57 205.818C2023.55 212.051 2033.08 219.758 2043.14 228.17C2069.07 249.853 2093.42 269.042 2097.24 270.813C2107.05 275.341 2109.65 269.822 2109.68 244.434C2109.7 223.787 2109.55 223.381 2099.09 216.256C2093.97 212.765 2089.84 208.992 2087.13 205.621C2084.63 203.349 2083 199.664 2083 195.501C2083 192.741 2083.72 190.191 2084.93 188.123C2087.09 183.622 2096.72 177.558 2106.18 175.992Z" fill="#EA098D"/>
<path d="M1460.85 179.411C1519.38 178.693 1559.37 179.388 1564.62 181.216C1571.72 183.694 1576.01 190.336 1575.75 196.057C1575.75 196.283 1575.73 196.537 1575.69 196.818C1575.59 197.592 1575.41 198.346 1575.14 199.064C1572.94 206.118 1564.92 221.036 1554.03 238.03C1552.84 240.706 1551.25 243.469 1549.58 245.778C1547.36 249.684 1545.01 253.714 1542.55 257.818C1539.81 262.413 1537.08 266.852 1534.42 271.077C1532.35 275.048 1529.69 279.847 1526.37 285.58C1518.48 300.313 1507.51 319.024 1494.85 339.051C1492.61 342.592 1490.39 346.067 1488.19 349.464C1487.8 350.159 1487.41 350.859 1487.01 351.555C1472.89 376.132 1473.57 378.138 1496.05 378.06C1520.52 377.973 1536.84 370.61 1544.63 356.149C1545.19 355.119 1545.77 354.121 1546.38 353.175C1547.73 350.101 1549.29 347.298 1550.96 344.847C1551.6 343.498 1552.39 342.229 1553.31 341.059C1553.27 340.869 1553.78 340.28 1554.77 339.382C1558.6 335.452 1564.01 333.001 1570 333.001C1575.63 333.001 1580.73 335.162 1584.5 338.678C1585.4 339.375 1586.27 340.139 1587.1 340.969C1594.17 348.038 1594.7 350.296 1593.35 367.214C1591.71 387.636 1581.38 411.181 1569.74 421.519C1569.73 421.512 1569.71 421.507 1569.69 421.5C1568.48 422.564 1566.91 423.539 1565.09 424.277C1562.82 425.192 1560.58 425.583 1558.72 425.488C1526.35 426.444 1391.53 425.001 1391.53 425.001C1343.22 423.684 1342.83 421.311 1342.72 411.412C1342.69 407.504 1352.6 389.037 1358.72 380.235C1361.43 375.273 1364.54 369.983 1367.97 364.568C1369.09 362.807 1370.21 361.083 1371.32 359.401C1373.2 355.909 1375.69 351.68 1378.81 346.644C1383.54 339.006 1388.22 332.024 1391.63 327.409C1395.06 321.366 1398.91 314.921 1403.11 308.299C1403.66 307.429 1404.21 306.565 1404.76 305.708C1408.79 298.336 1414.77 288.102 1421.43 277.341C1433.47 257.877 1444.2 239.614 1445.26 236.758C1448.09 229.161 1437.2 224.515 1420.88 226.352C1406.42 227.983 1403.93 230.12 1383.54 258.411C1372.22 274.115 1365 276.174 1353.36 267.022C1335.49 252.958 1333.45 232.082 1347.25 204.54C1350.8 197.466 1352.87 192.484 1356.38 188.952C1365.38 179.926 1383.88 180.356 1460.85 179.411Z" fill="#EA098D"/>
<path d="M1131.62 181.045C1162.21 180.075 1175.99 180.91 1185.3 187.728C1190.65 190.92 1194 195.462 1194 200.5C1194 202.985 1193.18 205.348 1191.72 207.489C1191.11 208.512 1190.22 209.523 1189.03 210.532C1187.06 212.326 1184.57 213.873 1181.7 215.086C1179.23 216.299 1176.34 217.534 1173.01 218.806C1157.28 224.815 1150.32 230.231 1126.55 255.001C1094.89 287.996 1091.2 295.941 1091.47 330.586C1091.76 367.019 1094.26 375.574 1107.06 383.864C1128.13 397.509 1119.02 416.149 1088.04 422.796C1073.89 425.831 1017.8 426.606 1001.52 423.993C986.441 421.572 971.49 413.153 969.715 406.081C967.173 395.95 969.863 391.265 983.005 382.97C996.745 374.294 998.53 368.245 998.53 330.334C998.53 298.081 994.59 289.95 961.413 253.766C944.635 235.466 933.113 225.77 921.763 220.392C907.002 213.404 905.761 212.02 905.761 202.539C905.761 193.558 907.173 191.626 916.983 187.225C926.107 183.128 938.002 182.176 980.574 182.14C1052.29 182.074 1066.65 187.943 1053.69 212.003C1049.08 220.558 1048.91 223.065 1052.35 231.373C1054.53 236.622 1059.47 242.987 1063.33 245.517C1069.69 249.686 1071.07 249.65 1077.97 245.128C1090.2 237.113 1093.25 227.251 1087.33 214.834C1075.31 189.634 1084.61 182.538 1131.62 181.045Z" fill="#EA098D"/>
<path fill-rule="evenodd" clip-rule="evenodd" d="M720.099 182.092C793.671 182.092 801.074 182.58 820.516 188.697C859.702 201.03 881.605 221.549 894.401 257.907C899.291 271.802 900.177 280.626 899.291 306.667C898.289 336.193 897.449 339.929 887.572 359.042C883.62 366.684 879.426 373.234 876.52 376.557C875.807 377.521 875.06 378.501 874.284 379.484C872.053 382.312 869.813 384.888 867.706 387.09C861.493 395.483 842.974 408.752 828.191 414.512C814.417 419.884 803.907 421.197 768.104 422.035C669.361 424.345 638.471 424.918 628.811 420.891C626.958 420.222 624.82 418.854 622.839 416.947C621.238 415.405 619.983 413.747 619.172 412.204C618.695 411.682 618.259 410.536 617.786 408.732C616.235 402.786 618.446 397.187 622.67 394.596C625.413 392.062 629.293 389.09 633.778 386.19C634.625 385.643 635.467 385.116 636.296 384.612C636.764 384.084 637.268 383.545 637.801 383.012C644.263 376.552 644.606 373.486 646.725 303.136C647.34 282.676 648.146 264.957 649.021 251.684C649.008 250.15 649 248.585 649 247C649 242.838 649.046 238.83 649.127 235.082C649.045 233.267 649 231.401 649 229.5C649 227.61 649.043 225.754 649.125 223.949C647.691 223.571 646.018 222.961 644.286 222.147C643.894 221.963 643.512 221.772 643.141 221.58C641.277 220.691 638.979 219.336 636.218 217.51C621.46 207.741 619.989 195.634 632.566 187.398C639.811 182.656 649.107 182.092 720.099 182.092ZM789.642 239.438C775.676 224.734 752.157 216.62 740.926 222.628C735.501 225.531 735.187 229.838 735.187 300.927C735.187 368.274 735.736 376.76 740.405 381.926C751.75 394.462 779.784 382.419 793.418 359.149C815.893 320.79 814.144 265.233 789.642 239.438Z" fill="#EA098D"/>
<path fill-rule="evenodd" clip-rule="evenodd" d="M415.299 180.596C444.185 180.596 465.826 198.761 486.642 240.482C493.257 253.745 499.395 268.743 499.5 269C499.5 269 546.629 358.868 546.656 363.83C546.657 367.365 562.285 382.47 574.886 391.113C586.2 398.876 584.403 410.297 570.597 418.381C561.35 423.795 554.168 424.616 509.25 425.388C465.117 426.145 456.989 425.552 447.903 420.898C439.78 416.739 437.226 413.428 436.517 406.132C435.778 398.521 437.347 395.482 444.746 390.213C456.329 381.965 456.73 373.049 445.658 369.951C441.131 368.685 422.202 367.691 403.596 367.742C377.182 367.817 369.157 368.801 366.984 372.231C362.125 379.916 363.842 384.152 374.319 390.335C386.096 397.283 389.229 403.251 385.132 410.911C381.515 417.669 370.632 421.454 370.5 421.5C370.5 421.5 367.517 423.006 363.017 424.215C353.452 426.783 300.658 425.992 293.787 423.182C284.832 419.515 280.348 409.18 281.5 403C282.063 399.998 283.556 395.227 289.308 392.358C298.714 387.668 317.779 366.219 317.838 366.153C318.006 365.921 329.511 349.964 331 345C331.998 342.504 331.667 343.5 332 342.5C332.506 340.992 337.004 333.492 341.5 323.5C358.754 289.314 367.299 255.132 373.11 226.884C376.342 211.179 380.434 195.617 382.205 192.31C386.459 184.363 397.101 180.596 415.299 180.596ZM410.332 276.367C402.041 276.367 385.46 310.164 389.091 319.65C390.423 323.125 395.472 324.241 409.655 324.208C437.899 324.139 438.746 322.693 425.22 297.649C418.897 285.946 412.2 276.368 410.332 276.367Z" fill="#EA098D"/>
<path d="M40.0469 185.098C65.5528 179.943 130.645 180.023 145.656 188.115C153.371 192.275 154.455 194.407 154.5 194.501L155.5 196.501C155.5 196.501 156 197.502 156.5 199.001C157.5 205 153.487 211.088 143.176 218.097C139.107 220.862 136.136 222.459 134.022 222.963C132.695 223.793 131.219 224.477 129.633 224.984C128.866 233.963 128.452 260.979 128.677 293.661C129.082 352.269 128.838 370.206 137.319 376.652C141.423 379.77 147.571 380.199 156.822 381.244C166.317 382.315 174.758 382.389 175.582 381.405C176.414 380.425 183.279 380.161 188.5 376.501C194.498 371.002 195 370.5 196.5 368.501C196.573 368.401 196.504 368.34 197.5 367.001C201.5 361.997 209.5 343.002 210.718 341.462C211.934 339.926 212.002 339 215 337.501C225.998 334.001 230.681 337.183 236.687 349.483C241.767 359.897 242.028 363.167 238.946 377.916C235.017 396.745 222.334 416.92 211.364 421.793C206.286 424.05 176.159 424.515 113.944 423.291C19.0215 421.426 14.1841 420.956 13.9932 406.26C13.464 404.415 13.7879 402.359 14.8281 400.243C15.6717 397.976 17.0693 396.173 18.6514 395.089C24.9992 390.742 29.0112 388.129 36 385.501C37.8321 384.811 38.7112 384.477 40.5 384.001C40.5535 383.772 41 382.501 41 382.501C43.8164 377.369 40.8966 357.307 39.9062 303.961C39.1821 264.92 38.2157 231.375 37.7578 229.421C37.2943 227.468 30.4145 223.165 22.4629 219.86L22.501 219.69C16.192 217.033 12 212.343 12 207.001C12.001 204.127 13.214 201.44 15.3164 199.159C17.6938 196.076 21.6008 192.772 26.4355 190.016C31.3042 187.241 36.1696 185.559 40.0469 185.098Z" fill="#EA098D"/>
<path fill="white" fill-rule="evenodd" clip-rule="evenodd" d="M1854 10C1856.34 10 1858.52 10.3347 1860.37 10.9131C1862.23 11.3919 1864.4 12.4457 1866.64 13.9766C1869.31 14.5282 1872.6 16.7435 1875.36 20.0967C1877.01 22.1039 1878.22 24.2224 1878.94 26.1836C1879.56 26.8203 1880.18 27.4744 1880.8 28.1455C1887.75 35.6433 1892.63 43.0856 1893.68 47.3213C1895.38 49.3797 1892.88 55.9608 1887.84 62.46C1886.82 63.7861 1885.76 65.0093 1884.7 66.1094C1882.29 70.478 1878.04 76.0421 1872.66 81.5908C1869.18 85.1776 1865.67 88.2905 1862.47 90.7305C1857.97 95.7487 1852.48 101.278 1846.35 106.864C1843.47 109.485 1840.61 111.964 1837.84 114.272C1835.68 116.424 1833.1 118.537 1830.17 120.46C1829.85 120.672 1829.53 120.878 1829.21 121.08C1827.03 122.698 1824.96 124.167 1823 125.469V145.001H1819.41C1818.64 141.69 1816.6 138.334 1813.45 135.698C1812.32 134.748 1811.12 133.955 1809.89 133.321C1809.37 132.968 1808.69 132.667 1807.9 132.443C1807.4 132.258 1806.89 132.096 1806.39 131.961C1805.94 131.986 1805.47 132.001 1805 132.001C1804.19 132.001 1803.4 131.961 1802.64 131.888C1794.51 133.825 1782.61 144.241 1772.56 159.051C1768.39 165.201 1765.04 171.37 1762.63 177.071C1823.7 187.899 1870 239.937 1870 302.501C1870 372.917 1811.35 430.001 1739 430.001C1666.65 430.001 1608 372.917 1608 302.501C1608 246.031 1645.72 198.135 1697.98 181.379C1699.99 171.299 1702.43 162.785 1704.76 157.413C1705.29 155.803 1705.81 154.23 1706.34 152.712C1709.66 141.778 1713.32 131.664 1717.06 122.853C1719.42 114.827 1725.7 102.935 1734.49 90.6445C1734.71 90.3292 1734.94 90.0161 1735.17 89.7041C1737.07 85.5938 1739.68 81.135 1742.9 76.6973C1749.11 68.13 1756.08 61.6707 1761.57 58.8945C1764.28 56.5058 1767.13 54.0849 1770.12 51.668C1784.43 40.0752 1798.19 31.3289 1807.23 27.6387C1808.21 27.0545 1809.23 26.4806 1810.28 25.9199C1816.69 22.4936 1822.89 20.3325 1827.38 19.7324C1827.76 19.5151 1828.15 19.2986 1828.54 19.085C1832.93 16.6859 1837.19 14.9644 1840.64 14.0781C1841.76 13.1566 1843.39 12.3841 1845.35 11.8438C1847.53 10.7081 1850.6 10 1854 10ZM1735 249.001C1730.29 249.001 1726.09 252.255 1723.34 257.345C1723.25 257.289 1723.16 257.23 1723.07 257.172C1720.84 261.266 1718.36 265.595 1715.66 270.028C1713.55 273.501 1711.44 276.833 1709.37 279.969C1708.42 281.801 1707.49 283.562 1706.56 285.233C1705.67 287.312 1704.74 289.296 1703.79 291.164C1701.54 296.239 1698.82 301.845 1695.76 307.662C1695.31 308.521 1694.85 309.372 1694.4 310.212C1692.69 314.689 1690.75 318.736 1688.73 322.147C1688.54 322.547 1688.35 322.951 1688.15 323.353C1685.46 328.77 1682.12 333.15 1679.04 335.64C1677.81 341.532 1675.49 348.326 1672.19 355.267C1667.73 364.62 1662.35 372.405 1657.34 377.306C1677.87 398.656 1707.09 412.001 1739.5 412.001C1766.02 412.001 1790.39 403.07 1809.62 388.133C1806.47 383.819 1803.33 378.308 1800.63 372.08C1800.4 371.561 1800.19 371.039 1799.97 370.522C1798.7 368.896 1797.6 366.975 1796.75 364.832C1795.66 363.061 1794.62 361.113 1793.64 359.022C1790.2 352.394 1786.59 344.568 1783.12 336.071C1779.47 327.11 1776.46 318.564 1774.25 311.142C1771.77 305.87 1769.25 300.276 1766.73 294.429C1765.87 292.763 1765.01 291.071 1764.15 289.357C1762.33 285.735 1760.6 282.168 1758.96 278.693C1757.68 276.557 1756.38 274.373 1755.08 272.149C1752.63 267.941 1750.3 263.808 1748.11 259.81C1747.18 258.296 1746.24 256.737 1745.3 255.145C1742.61 251.337 1738.99 249.001 1735 249.001ZM1762.88 195.373C1762.91 195.799 1762.93 196.235 1762.95 196.674C1763.26 197.493 1763.51 198.378 1763.71 199.308C1763.81 199.831 1763.89 200.351 1763.95 200.859C1770.22 210.864 1776.93 226.079 1782.38 243.63C1785.16 252.621 1787.33 261.297 1788.85 269.204C1790.16 272.942 1791.43 276.88 1792.61 280.962C1795.06 289.36 1796.9 297.41 1798.11 304.592C1798.7 306.446 1799.27 308.272 1799.82 310.062C1804.64 317.445 1808.46 324.628 1810.9 330.619C1812.58 333.974 1814.08 337.755 1815.29 341.824C1815.64 342.991 1815.96 344.154 1816.24 345.303C1817.54 349.344 1818.79 353.747 1819.94 358.375C1820.73 361.565 1821.42 364.684 1822.02 367.682C1822.9 369.996 1823.66 372.269 1824.3 374.459C1841.55 355.216 1852 330.046 1852 302.501C1852 249.83 1813.79 205.847 1762.88 195.373ZM1694.82 201.979C1654.92 218.805 1627 257.48 1627 302.501C1627 323.031 1632.81 342.243 1642.91 358.664C1643.43 357.416 1644.04 356.152 1644.72 354.894C1645.34 353.749 1646 352.654 1646.68 351.62C1647.57 349.307 1648.59 346.944 1649.72 344.566C1654.86 333.783 1661.22 325.085 1666.83 320.487C1667.36 318.958 1667.92 317.537 1668.51 316.259C1668.81 314.414 1669.19 312.507 1669.64 310.565C1671.08 301.438 1673.59 290.534 1677.07 279C1677.45 277.715 1677.85 276.442 1678.25 275.185C1678.88 271.348 1679.74 267.323 1680.85 263.21C1683.51 253.287 1687.12 244.516 1690.94 238.026C1691.72 236.528 1692.52 235.06 1693.34 233.63C1693.4 233.168 1693.49 232.699 1693.58 232.23C1693.72 231.595 1693.88 230.975 1694.07 230.378C1694.02 228.783 1694 227.153 1694 225.501C1694 224.579 1694.01 223.663 1694.02 222.758C1693.67 217.538 1693.93 210.286 1694.82 201.979ZM1857.7 22.3945C1855.98 22.782 1854.04 23.001 1852 23.001C1850.52 23.001 1849.1 22.8859 1847.77 22.6748C1846.27 23.4096 1844.69 24.151 1843.06 24.8828C1839.94 26.2836 1836.93 27.5124 1834.19 28.5293C1834.06 28.5993 1833.94 28.6707 1833.81 28.7402C1831.21 30.1574 1828.66 31.3356 1826.3 32.2471C1824.27 33.8083 1821.92 35.385 1819.33 36.8906C1816.05 39.9245 1812.28 43.1818 1808.19 46.4775C1805.19 48.8904 1802.26 51.1393 1799.46 53.1758C1794.67 57.8286 1789.13 62.7503 1783.07 67.6592C1782.18 68.3764 1781.3 69.0806 1780.42 69.7754C1779.49 70.8335 1778.51 71.9022 1777.47 72.9658C1774.56 75.9347 1771.62 78.4897 1768.92 80.4736C1769.28 82.3887 1769.11 84.9994 1768.45 88.0127C1769.02 88.5808 1769.58 89.1844 1770.12 89.8213C1772.43 86.5772 1774.95 84.0389 1777.39 82.4629C1779.15 80.032 1781.07 77.9335 1783.05 76.2422C1791.53 62.1763 1806.61 55.6153 1817.23 61.5723C1828.15 67.6943 1830.25 84.7157 1821.91 99.5908C1821.83 99.728 1821.75 99.8652 1821.67 100.001H1823V100.338C1825.36 99.0974 1827.69 98.1175 1829.9 97.4111C1831.04 96.5879 1832.21 95.7616 1833.41 94.9375C1836.13 93.0747 1838.8 91.3541 1841.36 89.8057C1848.62 83.5916 1855.48 78.4484 1861.1 74.9092C1861.82 74.1209 1862.56 73.3283 1863.33 72.5371C1867.96 67.7668 1872.62 63.835 1876.57 61.21C1877.5 59.6196 1878.61 57.9576 1879.9 56.3018C1880.96 54.9326 1882.05 53.6711 1883.14 52.5439C1883.05 51.7554 1883 50.8975 1883 50C1883 48.7172 1883.1 47.5153 1883.27 46.4814C1879.86 43.9294 1875.96 40.3943 1872.09 36.2168C1871.45 35.5288 1870.83 34.8399 1870.23 34.1553C1867.69 32.7956 1864.93 30.7179 1862.32 28.082C1860.48 26.2176 1858.92 24.2757 1857.7 22.3945Z"/>
</g>

</svg>
