<svg width="156" height="81" viewBox="0 0 156 81" fill="none" xmlns="http://www.w3.org/2000/svg">
<rect y="41" width="12" height="39" fill="#FA0001"/>
<rect x="28" y="62.359" width="12" height="17.5957" transform="rotate(-32 28 62.359)" fill="#FA0001"/>
<path d="M39 57.293V66H16V56H38.1924L39 57.293Z" fill="#FA0001"/>
<path d="M35 50.8916V51H0V41H28.8184L35 50.8916Z" fill="#FA0001"/>
<path d="M53.1836 80H11V70H46.9346L53.1836 80Z" fill="#FA0001"/>
<rect x="81" y="40.9998" width="12" height="39" fill="#FA0001"/>
<path d="M57.6699 58.3926L48.2197 64.2969L38.8955 49.375L48.3457 43.4707L57.6699 58.3926Z" fill="#FA0001"/>
<path d="M58.6621 58.3887L52.0986 62.4902L40.627 44.1309L45.6367 41H47.7969L58.6621 58.3887Z" fill="#FA0001"/>
<path d="M89 80H58.0146L51.7666 70H89V80Z" fill="#FA0001"/>
<path d="M91 66H49.2666L43.0176 56H91V66Z" fill="#FA0001"/>
<path d="M54.0576 51H39.8857L33.6377 41H47.8086L54.0576 51Z" fill="#FA0001"/>
<rect x="145" width="10" height="39" transform="rotate(90 145 0)" fill="#FA0001"/>
<rect x="146" y="29" width="10" height="39" transform="rotate(90 146 29)" fill="#FA0001"/>
<rect x="98.4722" y="30.7602" width="10.3296" height="6.90778" transform="rotate(-32 98.4722 30.7602)" fill="#FA0001"/>
<path d="M156 6.75977V39H144V0H151.775L156 6.75977Z" fill="#FA0001"/>
<path d="M108 39H102.175L96 29.1182V0H108V39Z" fill="#FA0001"/>
<rect x="93" width="10" height="39" transform="rotate(90 93 0)" fill="#FA0001"/>
<rect x="93" y="29" width="10" height="39" transform="rotate(90 93 29)" fill="#FA0001"/>
<rect x="93" y="15" width="10" height="39" transform="rotate(90 93 15)" fill="#FA0001"/>
<rect x="51" width="12" height="39" fill="#FA0001"/>
<rect x="144" y="41" width="12" height="39" fill="#FA0001"/>
<rect x="96" y="41" width="12" height="39" fill="#FA0001"/>
<rect x="128" y="41" width="12" height="39" fill="#FA0001"/>
<rect x="106.962" y="47.2976" width="12" height="38.5864" transform="rotate(-32 106.962 47.2976)" fill="#FA0001"/>
<path d="M123.274 51H106V41H117.025L123.274 51ZM145 51H137.424L131.176 41H145V51Z" fill="#FA0001"/>
<rect width="12" height="39" fill="#FA0001"/>
<rect x="12.1728" y="6.63564" width="12" height="38.1247" transform="rotate(-32 12.1728 6.63564)" fill="#FA0001"/>
<rect x="35" width="12" height="39" fill="#FA0001"/>
<path d="M23 1.28809V10H0V0H22.1943L23 1.28809Z" fill="#FA0001"/>
<path d="M47 39H32.4121L26.1641 29H47V39Z" fill="#FA0001"/>
</svg>