<?xml version="1.0" encoding="UTF-8"?>
<svg id="Layer_2" data-name="Layer 2" xmlns="http://www.w3.org/2000/svg" viewBox="0 0 414.44 399.1">
  <defs>
    <style>
      .cls-1 {
        stroke-width: 4.85px;
      }

      .cls-1, .cls-2, .cls-3 {
        fill: none;
        stroke: #c5ac69;
        stroke-miterlimit: 2.61;
      }

      .cls-4, .cls-5 {
        fill: #c5ac69;
      }

      .cls-2 {
        stroke-width: 4.82px;
      }

      .cls-6 {
        fill: #fff;
      }

      .cls-6, .cls-5 {
        fill-rule: evenodd;
      }

      .cls-3 {
        stroke-width: .5px;
      }
    </style>
  </defs>
  <g id="Parsa">
    <g id="Inner_logo" data-name="Inner logo">
      <path class="cls-5" d="M157.01,90.16c-1.88-3.04-.84-3.14-3.19-3.5-2.98-.46-1.06.53-2.18,2.78-4.01-.34-1.52-1.33-5.54.57l-4.24,1.92c.29.33.77,1,1.19,1.64l.92,1.55c1.47-1.95,2.88-3.28,4.6-4.75,2.49,1.13,5.42,3.29,5.2,6.49-2.66-.89-.7-1.02-4.18-.82v2.43c-1.21,1.91-.46.3-2.27,1.28l-2.26,1.64c-1.12.9-1.38.99-2.17,1.61-2.68,2.1-5.07,5.85-5.18,9.69-.11-.17-.2-.44-.26-.56-.06-.12-.18-.4-.26-.54-1.71-3.24.99,1.49-.54-1.01-2.45-3.99-8.36.38-8.2,7.58,4.31-.93,1.28-.76,4.71-2.63-.42,3.29.07,6.16,2.35,9.5,5.25-.55,7.43-4.04,13.2-1.2,8.74,4.31,7.14,4.6,6.12,9.5,20.78-1.01,10.07,9.47,9.06,12.97-2.97,10.24-1.66,2.4-4.65,8.37-1.37,2.74-.5,2.1-2.68,4.21-4.58,4.44-5.77,7.31-4.05,14.21-8.15-1.83-4.32-19.78-8.53-24.52-2.6-2.92-2.76-.5-4.19-4.24-1.75-4.57.56-1.21-2.99-5.48-3.5-4.21.99-7.06,1.51-11.75-3.27-2.38-.81,1.75-7.06-4.17-6.66-6.3-6.07,1.08-6.15-11.95-1.65-.39.25-.63-1.53.56-.02.01-1.37,1.31-1.37,1.31.81-3.36,2.5-5.41.75-8.52-2.15,5.79-5.84,9.46-7.52,17.95-4.08,20.64,5.52,39.91,22.78,49.68,27.08,15.33,57.87-2.52,64.57-24.25-3.1,3.82-4.52,9.22-9.06,10.66-2.31-3.09-.68-3.79.35-7.23,1.12-3.72-.01-5.65.71-9.24,3.09-15.54-.33-.65-.17-15.46-4.15-.39-1.54-1.28-5.39-.18-2.99.86-1.97,1.03-5.67.89-1.38-1.57-5.41-5.85-5.78-8.57-.3-2.19-.39-8.72,1.44-12.28.08-.16.16-.37.25-.53,3.9-6.97,10.6-1.15,11.31-.85,1.63.68.56.91,2.59.41,2.04-.5.91-.19,1.93-1.25-1.95-3.84-3.14-2.29-4.93-2.97-.11-.04-.31-.16-.42-.2-.11-.05-.3-.19-.4-.25l-6.65-2.58c-1.91,2.2-1.47,4.27-5.55,3.29-1.15-5.42,2.23-1.7.11-5.48-1.74-3.1-2.49-1.17-4.19-4.09,2.62-1.48.96.28,4.3.84l-6.31-5.09c-2.14-.94-7.43-1.34-9.7-1.18l-4.54,3.79Z"/>
      <path class="cls-6" d="M207.89,137.83c3.71-27.89-17.29-50.41-40.93-53.61-28.36-3.83-51.32,16.84-54.38,41.35-3.59,28.72,17.24,50.8,41.74,53.84,28.34,3.52,50.31-17.09,53.57-41.59M157.07,90.16l4.54-3.79c2.27-.17,7.57.24,9.7,1.18l6.31,5.09c-3.34-.55-1.67-2.31-4.3-.84,1.7,2.92,2.44.99,4.19,4.09,2.13,3.79-1.26.07-.11,5.48,4.08.97,3.64-1.1,5.55-3.29l6.65,2.58c.1.05.3.2.4.25.11.05.31.16.42.2,1.79.68,2.99-.87,4.93,2.97-1.02,1.06.11.75-1.93,1.25-2.03.5-.96.27-2.59-.41-.72-.3-7.41-6.11-11.31.85-.09.16-.17.37-.25.53-1.83,3.56-1.74,10.1-1.44,12.28.37,2.72,4.4,7.01,5.78,8.57,3.7.14,2.68-.04,5.67-.89,3.85-1.1,1.24-.21,5.39.18-.16,14.8,3.26-.08.17,15.46-.72,3.6.41,5.52-.71,9.24-1.03,3.44-2.66,4.14-.35,7.23,4.53-1.44,5.96-6.84,9.06-10.66-6.7,21.73-37.49,39.58-64.57,24.25-17.26-9.77-26.86-29.04-22.78-49.68,1.68-8.49,5.37-12.16,7.52-17.95,1.76,3.11.07,5.16-.75,8.52,0,0,1.36-1.3,1.37-1.31,1.78-1.19-.13-.95,1.53-.56.09,13.03-.5,5.65,6.15,11.95,6.25,5.91,3.79,1.79,7.06,4.17-.52,4.69-5.01,7.54-1.51,11.75,3.55,4.27,1.25.91,2.99,5.48,1.43,3.74,1.6,1.32,4.19,4.24,4.21,4.74.38,22.69,8.53,24.52-1.72-6.89-.53-9.77,4.05-14.21,2.18-2.11,1.31-1.47,2.68-4.21,3-5.98,1.68,1.87,4.65-8.37,1.01-3.5,11.72-13.97-9.06-12.97,1.02-4.91,2.62-5.19-6.12-9.5-5.77-2.85-7.95.65-13.2,1.2-2.28-3.34-2.77-6.21-2.35-9.5-3.43,1.88-.4,1.71-4.71,2.63-.15-7.2,5.75-11.57,8.2-7.58,1.53,2.5-1.17-2.23.54,1.01.07.14.2.42.26.54.06.12.15.38.26.56.11-3.84,2.5-7.59,5.18-9.69.79-.62,1.05-.71,2.17-1.61l2.26-1.64c1.81-.97,1.06.64,2.27-1.28v-2.43c3.48-.2,1.52-.07,4.18.82.22-3.2-2.71-5.36-5.2-6.49-1.73,1.48-3.14,2.8-4.6,4.75l-.92-1.55c-.42-.64-.9-1.31-1.19-1.64l4.24-1.92c4.02-1.9,1.53-.9,5.54-.57,1.13-2.24-.8-3.24,2.18-2.78,2.35.36,1.3.46,3.19,3.5Z"/>
      <path class="cls-5" d="M64,176.16c9.28,0,16.8-7.52,16.8-16.8s-7.52-16.8-16.8-16.8-16.8,7.52-16.8,16.8,7.52,16.8,16.8,16.8Z"/>
      <path class="cls-3" d="M64,176.16c9.28,0,16.8-7.52,16.8-16.8s-7.52-16.8-16.8-16.8-16.8,7.52-16.8,16.8,7.52,16.8,16.8,16.8Z"/>
      <path class="cls-5" d="M195.69,242.96c12.37,0,22.39-10.03,22.39-22.4s-10.03-22.4-22.39-22.4-22.4,10.03-22.4,22.4,10.03,22.4,22.4,22.4Z"/>
      <path class="cls-3" d="M195.69,242.96c12.37,0,22.39-10.03,22.39-22.4s-10.03-22.4-22.39-22.4-22.4,10.03-22.4,22.4,10.03,22.4,22.4,22.4Z"/>
      <path class="cls-5" d="M187.3,74.4c15.46,0,28-12.53,28-27.99s-12.53-28-28-28-27.99,12.53-27.99,28,12.53,27.99,27.99,27.99Z"/>
      <path class="cls-3" d="M187.3,74.4c15.46,0,28-12.53,28-27.99s-12.53-28-28-28-27.99,12.53-27.99,28,12.53,27.99,27.99,27.99Z"/>
      <path class="cls-2" d="M232.56,200.43c34.82-40.41,30.29-101.39-10.12-136.21"/>
      <path class="cls-2" d="M142.97,38.34c-46.55,5.6-82.37,43.79-84.94,90.57"/>
      <path class="cls-2" d="M75.27,186.61c19.4,28.55,50.96,44.69,85.37,42.18"/>
      <polygon class="cls-4" points="64 160.36 0 160.36 .38 158.36 64 158.36 64 160.36"/>
      <polygon class="cls-4" points="188.3 46.41 186.3 46.41 186.3 .15 188.3 0 188.3 46.41"/>
      <line class="cls-1" x1="158.65" y1="179.22" x2="158.65" y2="292.41"/>
    </g>
    <g id="Parsa-2" data-name="Parsa">
      <path class="cls-4" d="M309.72,353.06c-.39-2.15-.59-7.12-.59-15.11v-11.31c0-3.8-.1-6.43-.39-7.89-.58-2.34-1.46-4.29-2.73-5.85-1.27-1.56-3.22-2.83-5.94-3.8-2.73-1.07-6.24-1.56-10.53-1.56s-8.19.59-11.5,1.75c-3.31,1.27-5.85,2.92-7.6,5.17-1.75,2.14-3.02,5.07-3.8,8.67l8.38,1.17c.97-3.61,2.34-6.14,4.29-7.5,1.95-1.46,4.87-2.14,8.97-2.14s7.6.97,9.75,2.92c1.66,1.36,2.44,3.8,2.44,7.31v2.24c-3.31,1.17-8.38,2.14-15.3,2.92-3.41.39-5.94.88-7.7,1.27-2.24.68-4.29,1.56-6.14,2.83-1.85,1.27-3.31,2.83-4.48,4.87-1.07,2.05-1.66,4.39-1.66,6.82,0,4.19,1.46,7.7,4.48,10.33,3.02,2.73,7.31,4.09,12.86,4.09,3.31,0,6.53-.58,9.45-1.66,2.92-1.17,5.95-3.02,9.16-5.75.29,2.44.78,4.48,1.66,6.33h8.97c-1.07-1.95-1.75-4-2.05-6.14ZM300.46,336.98c0,3.7-.49,6.63-1.46,8.48-1.17,2.53-3.02,4.48-5.65,5.95-2.53,1.46-5.46,2.14-8.77,2.14s-5.85-.78-7.6-2.24c-1.75-1.56-2.63-3.41-2.63-5.75,0-1.46.39-2.83,1.17-4,.88-1.27,1.95-2.14,3.41-2.83,1.46-.58,4-1.17,7.5-1.66,6.24-.88,10.92-1.95,14.04-3.22v3.12Z"/>
      <path class="cls-4" d="M250.27,332.49c-2.44-.97-6.63-2.34-12.67-4-4.19-1.07-6.73-1.85-7.6-2.14-1.46-.59-2.53-1.36-3.22-2.24-.68-.98-1.07-1.95-1.07-3.02,0-1.75.88-3.31,2.53-4.58,1.66-1.27,4.48-1.95,8.38-1.95,3.31,0,5.95.68,7.7,2.24,1.85,1.46,2.92,3.51,3.31,6.14l8.38-1.17c-.49-3.31-1.56-5.94-2.92-7.89-1.46-1.95-3.61-3.51-6.63-4.58-3.02-1.17-6.53-1.75-10.43-1.75-2.63,0-5.07.29-7.41.97-2.34.68-4.09,1.56-5.46,2.53-1.75,1.27-3.12,2.83-4.19,4.78-1.07,1.95-1.56,4-1.56,6.24,0,2.44.68,4.77,1.85,6.72,1.27,2.05,3.12,3.7,5.56,4.87,2.44,1.17,6.72,2.53,13.06,4.09,4.58,1.17,7.5,2.14,8.77,2.92,1.66,1.07,2.54,2.63,2.54,4.48,0,2.24-.98,4.09-2.83,5.65-1.95,1.66-4.87,2.44-8.77,2.44s-7.02-.88-9.16-2.73c-2.14-1.85-3.51-4.39-4-7.8l-8.48,1.36c.97,5.36,3.12,9.36,6.63,12.09,3.41,2.73,8.48,4.09,15.01,4.09,4,0,7.51-.68,10.62-2.05,3.22-1.36,5.56-3.31,7.21-5.85,1.75-2.53,2.53-5.26,2.53-8.09s-.68-5.36-2.05-7.31c-1.36-1.95-3.22-3.41-5.65-4.48Z"/>
      <path class="cls-4" d="M199.97,309.3c-1.66,1.07-3.51,3.51-5.46,7.02v-7.7h-7.7v50.58h8.58v-26.41c0-3.61.49-7.02,1.46-10.04.58-1.95,1.66-3.51,3.12-4.68,1.46-1.07,3.22-1.66,5.07-1.66,2.05,0,4.09.59,6.24,1.75l3.02-7.89c-3.02-1.85-5.94-2.73-8.77-2.73-2.05,0-3.9.59-5.56,1.75Z"/>
      <path class="cls-4" d="M173.76,337.95v-11.31c0-3.8-.1-6.43-.39-7.89-.58-2.34-1.46-4.29-2.73-5.85-1.27-1.56-3.22-2.83-5.94-3.8-2.73-1.07-6.24-1.56-10.53-1.56s-8.19.59-11.5,1.75c-3.31,1.27-5.85,2.92-7.6,5.17-1.75,2.14-3.02,5.07-3.8,8.67l8.38,1.17c.97-3.61,2.34-6.14,4.29-7.5,1.95-1.46,4.87-2.14,8.97-2.14s7.6.97,9.75,2.92c1.66,1.36,2.44,3.8,2.44,7.31v2.24c-3.31,1.17-8.38,2.14-15.3,2.92-3.41.39-5.94.88-7.7,1.27-2.24.68-4.29,1.56-6.14,2.83-1.85,1.27-3.31,2.83-4.48,4.87-1.07,2.05-1.66,4.39-1.66,6.82,0,4.19,1.46,7.7,4.48,10.33,3.02,2.73,7.31,4.09,12.87,4.09,3.31,0,6.53-.58,9.45-1.66,2.92-1.17,5.95-3.02,9.16-5.75.29,2.44.78,4.48,1.66,6.33h8.97c-1.07-1.95-1.75-4-2.05-6.14-.39-2.15-.59-7.12-.59-15.11ZM165.08,336.98c0,3.7-.49,6.63-1.46,8.48-1.17,2.53-3.02,4.48-5.65,5.95-2.53,1.46-5.46,2.14-8.77,2.14s-5.85-.78-7.6-2.24c-1.75-1.56-2.63-3.41-2.63-5.75,0-1.46.39-2.83,1.17-4,.88-1.27,1.95-2.14,3.41-2.83,1.46-.58,4-1.17,7.5-1.66,6.24-.88,10.92-1.95,14.04-3.22v3.12Z"/>
      <path class="cls-4" d="M119.96,300.04c-1.36-2.83-3.22-5.07-5.56-6.73-2.34-1.56-5.17-2.63-8.67-3.22-2.44-.49-5.94-.68-10.62-.68h-26.32v62.45c1.32.42,9.26,7.33,9.26,7.33v-28.46h17.93c9.84,0,16.67-2.05,20.47-6.14,3.8-4.09,5.65-9.16,5.65-15.01,0-3.51-.68-6.63-2.14-9.55ZM108.85,319.24c-2.53,2.24-6.82,3.31-12.77,3.31h-18.03v-24.95h17.84c4.19,0,7.11.19,8.67.58,2.34.68,4.29,2.05,5.75,4.19,1.56,2.05,2.24,4.58,2.24,7.41,0,4.09-1.27,7.21-3.7,9.45Z"/>
    </g>
    <g id="World">
      <path class="cls-4" d="M271.35,236.76c-.35-.04-.83-.04-1.49-.04s-1.19,0-1.58.04c-.35.04-.66.09-.84.22-.22.09-.35.22-.44.35-.04.17-.09.39-.13.61l-4.83,21.16h-.04l-5.27-21.08c-.04-.31-.13-.53-.22-.7-.09-.18-.26-.31-.48-.4s-.53-.13-.97-.18c-.39-.04-.92-.04-1.62-.04-.66,0-1.14,0-1.54.04-.4.04-.7.09-.92.22-.22.09-.4.22-.48.39-.09.13-.13.4-.22.66l-5.05,21.08-4.87-21.25c-.04-.26-.13-.48-.17-.61-.09-.18-.22-.26-.44-.35-.18-.09-.48-.13-.88-.13-.39-.04-.92-.04-1.58-.04-.75,0-1.27,0-1.71.04-.4.04-.7.13-.88.31-.18.13-.26.35-.22.66,0,.31.09.7.22,1.23l6.28,24.19c.09.35.18.61.31.83.13.22.35.35.61.48.31.09.7.18,1.19.22.48.04,1.14.04,1.98.04.79,0,1.4,0,1.89-.04.48-.04.88-.13,1.14-.22.31-.13.48-.31.61-.48.13-.22.22-.48.31-.83l4.22-17.56h.04l4.44,17.56c.04.35.18.61.31.83.13.22.31.35.61.48.26.09.66.18,1.14.22.53.04,1.19.04,1.98.04.75,0,1.32,0,1.8-.04.48-.04.88-.13,1.14-.22.31-.13.53-.26.7-.48.13-.22.26-.48.35-.83l6.37-24.15c.13-.53.18-.92.22-1.23,0-.31-.04-.57-.22-.7-.18-.18-.4-.26-.75-.31Z"/>
      <path class="cls-4" d="M342.36,235.35c-.09-.09-.22-.22-.44-.26-.18-.09-.44-.18-.79-.22-.35-.04-.79-.04-1.32-.04s-.97,0-1.32.04c-.31.04-.61.13-.79.22-.22.04-.35.17-.44.26-.09.13-.13.26-.13.4v10.32c-.84-.84-1.71-1.45-2.59-1.89-.88-.44-1.84-.66-2.9-.66-1.36,0-2.59.26-3.6.75-1.05.53-1.93,1.27-2.64,2.24-.7.97-1.23,2.11-1.58,3.47-.4,1.36-.57,2.9-.57,4.57,0,1.41.13,2.77.44,4.04.26,1.27.75,2.42,1.36,3.38.66.92,1.49,1.71,2.5,2.28.97.57,2.24.83,3.69.83,1.32,0,2.5-.31,3.6-.88,1.05-.57,2.11-1.4,3.07-2.46v2.11c0,.18.04.31.13.4.09.13.22.22.4.31.18.04.4.09.66.13.31.04.66.04,1.14.04.44,0,.79,0,1.05-.04.31-.04.53-.09.7-.13.18-.09.31-.18.4-.31.04-.09.09-.22.09-.4v-28.1c0-.13-.04-.26-.13-.4ZM337.13,257.44c-.44.57-.88,1.05-1.27,1.45-.4.4-.75.7-1.1.92-.39.26-.75.44-1.1.53-.35.13-.7.18-1.05.18-.75,0-1.36-.18-1.84-.53-.53-.35-.88-.83-1.19-1.45-.31-.57-.53-1.27-.66-2.02-.09-.75-.18-1.54-.18-2.33,0-.75.09-1.49.22-2.24.18-.7.39-1.36.7-1.93.31-.61.7-1.05,1.23-1.4.48-.35,1.1-.53,1.8-.53.79,0,1.49.26,2.24.75.7.53,1.45,1.27,2.2,2.24v6.37Z"/>
      <path class="cls-4" d="M310.04,244.27c-.04-.09-.09-.18-.18-.22-.09-.09-.22-.18-.39-.22-.13-.04-.35-.13-.57-.18-.22-.04-.48-.09-.66-.09-.22-.04-.44-.04-.61-.04-.4,0-.79.04-1.19.18-.44.09-.84.26-1.23.53-.4.31-.83.66-1.27,1.14-.44.44-.92,1.01-1.4,1.76v-2.42c0-.13-.04-.26-.09-.35-.09-.13-.22-.22-.35-.26-.18-.09-.44-.13-.7-.18-.31-.04-.7-.04-1.14-.04s-.83,0-1.1.04c-.31.04-.53.09-.75.18-.18.04-.31.13-.35.26-.09.09-.13.22-.13.35v19.14c0,.18.04.26.13.4.09.09.22.18.44.26.22.09.48.13.83.18.35.04.79.04,1.32.04s.97,0,1.27-.04c.35-.04.61-.09.83-.18.22-.09.35-.17.44-.26.09-.13.13-.22.13-.4v-11.9c.4-.66.79-1.19,1.14-1.63.35-.39.66-.75,1.01-1.01.31-.26.61-.44.92-.57.31-.13.61-.18.92-.18.22,0,.48,0,.7.09.22.04.4.09.57.13.17.09.35.13.48.18.13.04.26.09.4.09s.26-.04.35-.13c.09-.04.18-.18.22-.4.04-.17.09-.44.13-.75.04-.35.04-.75.04-1.27v-1.23c-.04-.26-.04-.53-.09-.66-.04-.13-.04-.26-.09-.35Z"/>
      <path class="cls-4" d="M318.38,235c-.22-.09-.48-.17-.83-.22-.31-.04-.75-.04-1.27-.04s-.97,0-1.32.04c-.35.04-.61.13-.83.22-.22.04-.35.18-.44.26-.09.13-.13.26-.13.4v28.19c0,.18.04.26.13.4.09.09.22.18.44.26.22.09.48.13.83.18.35.04.79.04,1.32.04s.97,0,1.27-.04c.35-.04.61-.09.83-.18.22-.09.35-.17.44-.26.09-.13.13-.22.13-.4v-28.19c0-.13-.04-.26-.13-.4-.09-.09-.22-.22-.44-.26Z"/>
      <path class="cls-4" d="M291.2,246.24c-.83-.88-1.89-1.58-3.12-2.02-1.27-.48-2.77-.7-4.48-.7s-3.29.26-4.61.79c-1.32.53-2.37,1.27-3.25,2.24-.88.97-1.54,2.11-1.98,3.47-.44,1.36-.66,2.85-.66,4.48s.22,3.16.61,4.48c.4,1.32,1.01,2.42,1.84,3.34.83.88,1.84,1.58,3.12,2.06,1.27.48,2.72.7,4.44.7s3.29-.26,4.61-.79c1.32-.53,2.42-1.27,3.29-2.24.88-1.01,1.54-2.15,1.93-3.47.44-1.36.66-2.85.66-4.48,0-1.71-.18-3.21-.61-4.52-.4-1.32-1.01-2.41-1.8-3.34ZM287.82,257.04c-.22.79-.48,1.45-.88,2.02-.4.57-.88.97-1.49,1.27-.61.31-1.32.44-2.11.44-.92,0-1.67-.18-2.24-.48-.61-.31-1.1-.79-1.45-1.36-.35-.57-.61-1.27-.79-2.06-.13-.79-.22-1.67-.22-2.64s.09-1.89.31-2.68c.18-.79.48-1.49.88-2.06.35-.57.88-.97,1.45-1.27.61-.31,1.32-.44,2.15-.44.88,0,1.62.17,2.24.48.57.35,1.05.79,1.41,1.36.39.61.61,1.27.79,2.11.13.79.22,1.62.22,2.59s-.09,1.93-.26,2.72Z"/>
    </g>
    <g id="Agency">
      <path class="cls-4" d="M383.3,184.28c-.2-.12-.44-.24-.84-.28-.36-.04-.84-.08-1.4-.08-.72,0-1.2.04-1.48.08-.32.04-.52.12-.64.24-.12.12-.2.32-.28.68l-3.72,11.88h-.08l-4.08-11.64c-.12-.32-.2-.56-.28-.72-.08-.16-.24-.28-.4-.36-.2-.08-.44-.12-.76-.12-.36-.04-.8-.04-1.32-.04-.64,0-1.12.04-1.48.08-.36.04-.64.16-.8.28-.16.12-.24.32-.24.56s.08.6.28,1.04l5.96,16.04c.08.16.16.36.32.52.12.16.28.28.44.36l-2.32,5.84c-.08.2-.12.4-.12.56s.12.28.24.4c.16.08.4.16.72.2.32.08.72.08,1.24.08,1,0,1.76-.08,2.28-.2.52-.16.84-.4.96-.72l2.12-6.16,5.8-17.08c.08-.32.12-.6.12-.84s-.08-.44-.24-.6Z"/>
      <path class="cls-4" d="M363.78,197.6c-.04-.16-.08-.28-.16-.36-.08-.04-.2-.08-.32-.08-.16,0-.36.08-.6.32-.24.2-.56.4-.92.64-.36.28-.8.48-1.28.68-.48.2-1.08.32-1.76.32-.64,0-1.24-.12-1.76-.36-.48-.24-.88-.6-1.24-1.08-.32-.48-.56-1.08-.76-1.8-.16-.72-.24-1.56-.24-2.48,0-1.92.36-3.36,1-4.32.68-1,1.68-1.48,2.96-1.48.64,0,1.2.08,1.68.28.44.16.88.36,1.2.6.32.2.64.44.88.6.24.2.48.28.72.28.2,0,.36-.16.48-.48.16-.28.2-.84.2-1.6,0-.32,0-.6-.04-.8,0-.24-.04-.44-.08-.6,0-.16-.08-.28-.12-.36-.04-.12-.16-.24-.32-.36-.12-.16-.36-.32-.72-.52-.32-.2-.72-.36-1.16-.52-.44-.16-.92-.28-1.4-.4-.52-.08-1.04-.12-1.56-.12-1.28,0-2.44.2-3.52.6-1.04.4-1.96,1.04-2.76,1.88-.76.8-1.4,1.88-1.84,3.16-.4,1.24-.64,2.76-.64,4.52,0,1.52.2,2.84.56,4,.32,1.2.88,2.2,1.56,3,.72.8,1.6,1.44,2.64,1.84,1,.44,2.2.64,3.56.64.6,0,1.16-.04,1.72-.16.6-.08,1.12-.24,1.6-.4.48-.2.88-.36,1.28-.6.36-.2.64-.4.8-.52.16-.16.24-.28.28-.4.08-.08.12-.2.12-.36.04-.16.08-.36.08-.6.04-.24.04-.52.04-.84,0-.44,0-.8-.04-1.08-.04-.24-.04-.48-.12-.68Z"/>
      <path class="cls-4" d="M344.55,185.76c-.52-.64-1.16-1.2-2-1.56-.8-.4-1.8-.6-3-.6-1.08,0-2.12.24-3.08.76-1,.52-2,1.32-2.96,2.36v-2.04c0-.12-.04-.24-.08-.32-.08-.12-.2-.2-.32-.24-.16-.08-.4-.12-.64-.16-.28-.04-.64-.04-1.04-.04s-.76,0-1,.04c-.28.04-.48.08-.68.16-.16.04-.28.12-.32.24-.08.08-.12.2-.12.32v17.44c0,.16.04.24.12.36.08.08.2.16.4.24.2.08.44.12.76.16.32.04.72.04,1.2.04s.88,0,1.16-.04c.32-.04.56-.08.76-.16.2-.08.32-.16.4-.24.08-.12.12-.2.12-.36v-11.56c.68-.88,1.36-1.56,2-2,.64-.44,1.24-.68,1.88-.68.48,0,.92.08,1.28.28.4.2.68.44.92.8.24.36.4.76.52,1.24.16.48.2,1.16.2,2v9.92c0,.16.04.24.12.36.08.08.2.16.4.24.16.08.44.12.76.16.32.04.72.04,1.2.04s.84,0,1.16-.04c.32-.04.6-.08.76-.16.2-.08.32-.16.4-.24.08-.12.12-.2.12-.36v-10.76c0-1.24-.12-2.32-.32-3.24-.24-.88-.6-1.68-1.08-2.36Z"/>
      <path class="cls-4" d="M323.31,186.04c-.68-.76-1.52-1.36-2.56-1.8-1.04-.44-2.28-.64-3.76-.64-1.36,0-2.6.24-3.72.68-1.08.44-2.04,1.12-2.8,2-.76.84-1.36,1.92-1.76,3.16-.4,1.24-.6,2.64-.6,4.16,0,1.64.2,3.04.56,4.28.4,1.2,1,2.2,1.76,3,.8.8,1.76,1.4,2.92,1.76,1.16.4,2.52.6,4.08.6.84,0,1.68-.04,2.4-.16.76-.12,1.44-.24,2.04-.4.56-.16,1.04-.32,1.44-.48.36-.16.6-.28.68-.36.08-.12.16-.2.2-.32.08-.08.08-.2.12-.36.04-.12.04-.28.08-.48v-.76c0-.32,0-.6-.04-.8,0-.2-.04-.36-.08-.48-.08-.12-.12-.2-.2-.24-.08-.08-.2-.08-.32-.08-.16,0-.44.04-.76.2-.28.12-.68.24-1.16.4-.48.16-1.04.28-1.68.4-.68.12-1.4.2-2.28.2s-1.56-.12-2.16-.32c-.6-.24-1.12-.56-1.48-.96-.4-.44-.68-.96-.84-1.56-.2-.6-.28-1.28-.28-2h10.6c.48,0,.84-.16,1.12-.44.28-.28.4-.72.4-1.32v-.8c0-1.2-.16-2.36-.48-3.4-.28-1.04-.8-1.92-1.44-2.68ZM313.11,191.52c.04-.6.12-1.2.28-1.72.16-.56.4-1.04.72-1.44.28-.4.68-.68,1.16-.92.44-.24,1-.36,1.64-.36,1.24,0,2.12.4,2.72,1.2.6.76.88,1.84.84,3.24h-7.36Z"/>
      <path class="cls-4" d="M305.59,184.04h-5.56c-.4-.12-.88-.2-1.36-.28-.52-.04-1.04-.08-1.6-.08-1.04,0-2.04.16-2.92.44-.88.28-1.64.72-2.28,1.28-.64.52-1.16,1.2-1.48,2-.36.8-.56,1.72-.56,2.72s.16,1.76.4,2.4c.28.64.64,1.16,1.12,1.64-.56.52-1.04,1.08-1.4,1.72-.32.6-.52,1.32-.52,2.08,0,.6.16,1.2.48,1.68.28.52.72.92,1.28,1.24-.4.28-.76.6-1.08.92-.28.32-.56.68-.76,1.04-.24.36-.4.72-.52,1.12-.08.4-.16.8-.16,1.24,0,.68.16,1.32.48,1.92.28.56.8,1.04,1.44,1.48.68.4,1.56.72,2.6.96,1.04.24,2.32.36,3.8.36s2.84-.16,4-.48c1.12-.32,2.08-.76,2.84-1.32.76-.56,1.32-1.24,1.68-2,.4-.76.56-1.56.56-2.44,0-.76-.12-1.48-.4-2.08-.28-.6-.68-1.12-1.2-1.56-.56-.44-1.2-.8-1.96-1.04-.8-.24-1.68-.36-2.64-.4l-4.24-.16c-.6-.04-1.08-.16-1.4-.4-.36-.24-.52-.56-.52-.92,0-.32.08-.56.2-.8.12-.24.24-.44.4-.6.28.16.68.32,1.2.48.48.12,1.04.2,1.6.2,1.08,0,2.08-.16,2.96-.44.88-.28,1.68-.68,2.28-1.2.64-.56,1.12-1.2,1.48-2,.32-.8.48-1.68.48-2.72,0-.4-.04-.84-.16-1.24-.12-.36-.32-.72-.64-1.04h2.08c.2,0,.36-.16.52-.44.12-.32.2-.76.2-1.4,0-.68-.08-1.16-.2-1.44-.12-.28-.32-.44-.52-.44ZM294.23,202.71c.2-.24.48-.48.8-.72l3.48.08c.84.04,1.48.2,1.96.52.44.32.68.76.68,1.36,0,.32-.04.64-.2.96-.12.32-.32.56-.64.84-.32.24-.72.44-1.24.56-.52.16-1.12.24-1.88.24-1.2,0-2.12-.16-2.76-.52-.68-.32-1-.8-1-1.48,0-.2,0-.4.04-.6.04-.2.12-.4.24-.6.16-.2.32-.4.52-.64ZM299.83,191.16c-.12.36-.32.68-.56.96-.24.28-.52.48-.92.64-.36.16-.76.24-1.28.24-.92,0-1.64-.28-2.16-.76-.52-.52-.76-1.24-.76-2.12,0-.4.04-.8.16-1.16.12-.36.28-.68.52-.96.24-.28.56-.52.92-.68.36-.16.8-.24,1.28-.24.96,0,1.68.24,2.2.76.52.52.76,1.28.76,2.2,0,.4-.04.76-.16,1.12Z"/>
      <path class="cls-4" d="M279.55,178.48c-.08-.24-.16-.44-.28-.6-.12-.12-.28-.24-.52-.32-.28-.08-.64-.12-1.08-.12-.44-.04-1.08-.04-1.84-.04-.68,0-1.2,0-1.6.04-.4,0-.72.04-.96.12-.2.08-.4.16-.48.32-.12.12-.2.32-.28.52l-7.8,22.44c-.12.48-.24.84-.28,1.08-.04.28,0,.52.16.64.12.16.36.28.68.32.36.04.8.04,1.4.04.56,0,1.04,0,1.36-.04.36-.04.64-.08.8-.16.2-.08.32-.16.4-.28.12-.12.16-.28.24-.48l1.56-4.92h9.56l1.64,5.08c.04.16.12.32.2.4.08.12.2.2.4.24.2.08.48.12.88.12.36.04.88.04,1.52.04s1.16,0,1.52-.04c.36-.04.6-.12.76-.28.16-.12.2-.32.16-.6-.04-.28-.16-.64-.28-1.12l-7.84-22.4ZM272.23,193.08l3.52-10.76h.04l3.52,10.76h-7.08Z"/>
    </g>
    <g id="Line">
      <path class="cls-4" d="M414.24,192.92h-1.91c.09,2.1.17,4.2.21,6.34-2.36,136-109.07,197.93-207.22,197.93-47.84,0-97.69-14.73-136.52-45.55v2.35c37.07,29.14,85.22,45.12,136.52,45.12h.02c54.07,0,104.65-17.74,142.44-49.94,42.56-36.27,65.61-88.1,66.68-149.89v-.03c-.04-2.12-.11-4.22-.21-6.32Z"/>
      <path class="cls-4" d="M117.58,289.45c3.1,2.07,5.6,4.8,7.43,8.15h206.71v-8.15H117.58Z"/>
      <path class="cls-5" d="M333.02,305.5c6.61,0,11.97-5.36,11.97-11.97s-5.36-11.97-11.97-11.97-11.97,5.36-11.97,11.97,5.36,11.97,11.97,11.97Z"/>
      <rect class="cls-4" x="346.49" y="249.07" width="60.87" height="1.68"/>
      <polygon class="cls-4" points="385.33 192.52 384.77 194.18 413.59 194.99 413.6 193.31 385.33 192.52"/>
    </g>
  </g>
</svg>