<?xml version="1.0" encoding="UTF-8"?>
<svg id="Layer_2" data-name="Layer 2" xmlns="http://www.w3.org/2000/svg" viewBox="0 0 1311.5 1311.5">
  <defs>
    <style>
      .cls-1 {
        fill: #fff;
      }

      .cls-2 {
        fill: #ebecec;
      }

      .cls-3 {
        fill: #f7b349;
      }

      .cls-4 {
        fill: #f7b449;
      }

      .cls-5 {
        fill: #7d0608;
      }

      .cls-6 {
        fill: #f1f2f2;
      }

      .cls-7 {
        fill: #252121;
      }

      .cls-8 {
        fill: #edeeee;
      }

      .cls-9 {
        fill: #f1f1f1;
      }

      .cls-10 {
        fill: #242020;
      }

      .cls-11 {
        fill: #f4b148;
      }

      .cls-12 {
        fill: #262122;
      }
    </style>
  </defs>
  <g id="Layer_1-2" data-name="Layer 1">
    <g id="Logo-round">
      <circle class="cls-5" cx="655.75" cy="655.75" r="655.75"/>
      <path d="M1053.76,270.5c-87.16-112.77-204.04-173.02-350.65-180.71h-94.71c-145.6,7.19-262.48,67.42-350.65,180.71-82.54,106.12-123.8,235.82-123.8,389.1s42.03,281.71,126.11,385.25c89.2,111.25,207.87,170.19,356.03,176.86,95.17-.8,94.71,0,94.71,0,144.57-7.69,259.65-66.64,345.27-176.86,80.99-104.58,121.5-233,121.5-385.25s-41.27-282.46-123.8-389.1Z"/>
      <g>
        <path class="cls-7" d="M1047.44,842.55H261.69c-91.52-161.99-73.95-389.59,83.76-539.38,172.49-163.82,430.23-160.69,597.85-18.14,178.36,151.68,197.78,391.13,104.13,557.52Zm-620.83-153.68c1.41,.08,2.82,.23,4.23,.23,57.97,.01,115.93,.01,173.9,0,1.55,0,3.1-.17,5.27-.29v-105.3h17.35v-60.19c-1.87-.09-3.43-.22-4.99-.22-32.08-.01-64.17-.01-96.25,0-1.23,0-2.47,.14-3.7,.22-1.06-.08-2.11-.22-3.17-.22-54.75-.01-109.5-.01-164.25-.01-1.19,0-2.38,0-3.77,0v60.8h16.74v35.6c0,11.52,0,23.03,0,34.55,0,11.61,.01,23.21,.02,35.09,4.48,0,8.18,.01,11.88,0,15.59-.07,31.17-.15,46.76-.23Zm589.86,135.54h20.6c70.9-135.38,66.57-312.84-35.94-451.68-50.6-68.53-116.05-117.96-195.73-148.25-36.77-13.98-74.81-22.54-114.72-25.8v66.9h-16.97v-67.94c-158.81-7.7-321.42,75.73-403.46,236.07-69.1,135.04-54.5,287.85,2.38,390.95,25.52-.06,51.16,.09,77.19-.09v-41.97h-55.76v-198.91h35.04v-82.62c2.64,0,4.74,0,6.83,0,64.57,0,129.13,0,193.7-.01,2.12,0,4.24-.16,6.37-.24,1.94,.08,3.89,.23,5.83,.23,33.87,.01,67.73,0,101.6,.02,1.87,0,3.74,.11,5.89,.18v49.54c0,5.5-.04,10.99,.01,16.49,.05,5.41-.25,10.84,.23,16.67h34.41c1.08,8.91,.68,194.74-.51,199h-55.13v41.32h97.73v-117.78h6.68c69.68,0,139.36,0,209.05,0,2.12,0,4.24-.14,6.36-.21,1.94,.08,3.88,.21,5.82,.22,16.27,.02,32.55,0,48.82,0h5.96v6.49c0,30.78,0,61.56,.01,92.33,0,2.12,.15,4.23,.23,6.35v12.74h7.48Zm-418.88-.07v-41.24h-217.29v41.24h217.29Zm354.82-82.42h-169.66v14.32h169.66v-14.32Z"/>
        <path class="cls-9" d="M1008.99,811.67c-.08-2.12-.23-4.23-.23-6.35-.02-30.78-.01-61.56-.01-92.33v-6.49h-5.96c-16.27,0-32.55,0-48.82,0-1.94,0-3.88-.14-5.82-.22-1.04-1.98-2.08-3.95-3.11-5.93,1.94-.08,3.88-.22,5.83-.22,17.36-.02,34.72,0,52.08-.02,1.86,0,3.72-.14,5.52-.21v-118.29h-6.02c-40.39,0-80.78,0-121.17-.01-1.94,0-3.87-.19-5.81-.29-.91-1.95-1.82-3.89-2.73-5.84h40.14c5.12-21.89,10.11-43.27,15.26-65.28h-13.64c9.47-9.48,12.51-20.1,10.95-32.15-11.08-6.42-20.79-6.38-36.63,.27-1.88-14.35-9.1-25-22.07-31.83-13.17,6.54-20.25,17.41-22.31,32.23-9.95-5.9-20.07-6.62-30.57-3.8-.9-1.72-1.74-3.48-2.71-5.16-15.24-26.3-30.49-52.6-45.75-78.89-5.23-9-10.51-17.96-15.87-27.13h-51.06c-.92-.34-1.84-.98-2.76-.99-8.93-.07-17.85-.08-26.78,0-.92,0-1.84,.66-2.76,1.01-15.57-.01-31.15,.05-46.72-.09-3-.03-4.91,.77-6.34,3.54-2.27,4.39-4.93,8.58-7.41,12.86-17.21,29.66-34.45,59.3-51.62,88.98-6.1,10.55-12.06,21.19-18.09,31.78-2.12,.08-4.24,.24-6.37,.24-64.57,.01-129.13,.01-193.7,.01-2.1,0-4.2,0-6.83,0v82.62h-35.04v198.91h55.76v41.97c-26.03,.18-51.67,.03-77.19,.09-56.88-103.1-71.48-255.91-2.38-390.95,82.04-160.34,244.65-243.77,403.46-236.07v67.94h16.97v-66.9c39.91,3.26,77.95,11.82,114.72,25.8,79.69,30.29,145.14,79.72,195.73,148.25,102.5,138.84,106.83,316.3,35.94,451.68-6.82,0-13.71,0-20.6,0-2.49-4.25-4.99-8.49-7.48-12.74Zm-388.61-452.4h124.04c-6-14.57-11.81-28.68-17.51-42.52h-89.06c-5.79,14.11-11.54,28.11-17.46,42.52Zm45.16-89.35c-2.21,14.33-4.35,28.24-6.54,42.45h46.75c-2.19-14.25-4.34-28.27-6.52-42.45h-33.69Z"/>
        <path class="cls-3" d="M945.03,700.34c1.04,1.98,2.08,3.95,3.11,5.93-2.12,.07-4.24,.21-6.36,.21-69.68,.01-139.36,0-209.05,0h-6.68v117.78h-97.73v-41.32h55.13c1.19-4.26,1.59-190.09,.51-199h-34.41c-.47-5.83-.17-11.27-.23-16.67-.06-5.5-.01-10.99-.01-16.49v-49.54c-2.15-.07-4.02-.18-5.89-.18-33.87-.01-67.73,0-101.6-.02-1.94,0-3.89-.15-5.83-.23,6.02-10.6,11.98-21.23,18.08-31.78,17.17-29.68,34.41-59.32,51.62-88.98,2.48-4.28,5.15-8.47,7.41-12.86,1.43-2.77,3.34-3.56,6.34-3.54,15.57,.14,31.15,.08,46.72,.09,.06,1.41,.15,2.82,.17,4.23,.09,11.17,5.97,16.93,17.12,16.73,8.72-.15,14.48-5.83,14.83-14.63,.08-2.12,.12-4.24,.19-6.35h51.06c5.37,9.17,10.65,18.14,15.87,27.13,15.27,26.29,30.51,52.58,45.75,78.89,.97,1.68,1.81,3.44,2.71,5.16-.48,.23-.94,.52-1.44,.67-3.81,1.12-4.92,3.58-4.94,7.54-.05,9.11,2.81,16.99,8.42,24.02,.68,.86,1.22,1.84,2.23,3.39h-12.86c5.24,21.84,9.86,43.34,15.32,64.71,4.69,0,8.76-.02,12.83,0,13.11,.07,26.22,.15,39.33,.22,.91,1.95,1.82,3.89,2.73,5.84-2.3,.1-4.6,.3-6.89,.3-45.37,.02-90.74,.01-136.12,.02-2.05,0-4.11,.14-6.16,.22v118.27h6.61c68.59,0,137.18,0,205.77,0,2.12,0,4.24,.15,6.36,.22Z"/>
        <path class="cls-4" d="M522.42,523.3c1.23-.08,2.47-.22,3.7-.22,32.08-.01,64.17-.01,96.25,0,1.56,0,3.12,.14,4.99,.22v60.19h-17.35v105.3c-2.17,.13-3.72,.29-5.27,.29-57.97,.01-115.93,.01-173.9,0-1.41,0-2.82-.15-4.23-.23,9.86-17.01,19.72-34.02,29.59-51.02,14.94-25.74,29.9-51.46,44.81-77.22,7.19-12.41,14.28-24.88,21.41-37.33Z"/>
        <path class="cls-6" d="M522.42,523.3c-7.13,12.44-14.22,24.92-21.41,37.33-14.91,25.76-29.87,51.48-44.81,77.22-9.87,17-19.73,34.01-29.59,51.02-15.59,.08-31.17,.16-46.76,.23-3.7,.02-7.4,0-11.88,0,0-11.88-.01-23.49-.02-35.09,0-11.52,0-23.03,0-34.55v-35.6h-16.74v-60.8c1.39,0,2.58,0,3.77,0,54.75,0,109.5,0,164.25,.01,1.06,0,2.11,.15,3.17,.22Z"/>
        <path class="cls-4" d="M597.59,824.34h-217.29v-41.24h217.29v41.24Z"/>
        <path class="cls-11" d="M952.41,741.92v14.32h-169.66v-14.32h169.66Z"/>
        <path class="cls-4" d="M1008.99,811.67c2.49,4.25,4.99,8.49,7.48,12.74-2.39,0-4.79,0-7.48,0v-12.74Z"/>
        <path class="cls-10" d="M945.03,700.34c-2.12-.08-4.24-.22-6.36-.22-68.59-.01-137.18,0-205.77,0h-6.61v-118.27c2.06-.08,4.11-.22,6.16-.22,45.37-.01,90.74,0,136.12-.02,2.3,0,4.59-.19,6.89-.3,1.94,.1,3.88,.29,5.81,.29,40.39,.02,80.78,.01,121.17,.01h6.02v118.29c-1.8,.07-3.66,.21-5.52,.21-17.36,.02-34.72,0-52.08,.02-1.94,0-3.88,.14-5.83,.22Zm-48.19-83.41c-.53-.06-1.05-.19-1.58-.19-36.36-.01-72.72-.02-109.08,0-1.17,0-2.33,.28-3.51,.44v14.46h5.5c37.25,0,74.49,0,111.74,0,1.59,0,3.18-.15,4.77-.22h47.66v-14.48h-55.51Z"/>
        <path class="cls-12" d="M872.73,575.46c-13.11-.08-26.22-.16-39.33-.22-4.07-.02-8.14,0-12.83,0-5.46-21.37-10.09-42.87-15.32-64.71h12.86c-1.02-1.56-1.55-2.54-2.23-3.39-5.61-7.03-8.47-14.92-8.42-24.02,.02-3.96,1.14-6.43,4.94-7.54,.5-.15,.96-.44,1.44-.67,10.5-2.82,20.62-2.1,30.58,3.8,2.05-14.82,9.13-25.69,22.31-32.23,12.97,6.83,20.19,17.49,22.07,31.83,15.84-6.64,25.55-6.69,36.63-.27,1.56,12.05-1.48,22.68-10.95,32.15h13.64c-5.14,22.01-10.14,43.4-15.26,65.28h-40.14Zm-52.7-90.63c-2.41-.03-1.85,1.73-1.63,2.99,1.38,7.97,5.64,13.89,12.85,17.63,5.89,3.76,12.1,3.76,18.64,2.05-.22-1.69-.3-2.89-.55-4.06-2.87-13.47-17.42-22.71-29.31-18.61Zm46.74,19.39c17.22-13.01,13.06-37.08-.48-44.72-14.75,10.51-14.95,34.12,.48,44.72Zm48.18-18.88c-11.11-4.8-28.4,2.51-31.4,19.42-.48,2.69,1.24,3.32,3.37,3.62,14.81,2.08,27.66-9.1,28.03-23.04Z"/>
        <path class="cls-10" d="M620.38,359.27c5.92-14.41,11.67-28.41,17.46-42.52h89.06c5.7,13.85,11.51,27.96,17.51,42.52h-124.04Z"/>
        <path class="cls-7" d="M665.54,269.93h33.69c2.18,14.18,4.33,28.21,6.52,42.45h-46.75c2.19-14.21,4.33-28.13,6.54-42.45Z"/>
        <path class="cls-12" d="M698.46,363.71c-.06,2.12-.1,4.24-.19,6.35-.35,8.8-6.11,14.48-14.83,14.63-11.14,.2-17.03-5.56-17.12-16.73-.01-1.41-.11-2.82-.17-4.23,.92-.35,1.83-1.01,2.76-1.01,8.93-.08,17.85-.08,26.78,0,.92,0,1.84,.64,2.76,.99Z"/>
        <path class="cls-11" d="M904.69,631.41c-1.59,.08-3.18,.22-4.77,.22-37.25,.01-74.49,0-111.74,0h-5.5v-14.46c1.17-.15,2.34-.44,3.51-.44,36.36-.02,72.72-.02,109.08,0,.53,0,1.05,.12,1.58,.18,2.62,4.83,5.23,9.65,7.84,14.48Z"/>
        <path class="cls-8" d="M904.69,631.41c-2.61-4.83-5.23-9.65-7.84-14.48,18.39,0,36.77,0,55.51,0v14.48h-47.66Z"/>
        <path class="cls-8" d="M866.78,504.21c-15.44-10.6-15.23-34.21-.48-44.72,13.55,7.64,17.7,31.7,.48,44.72Z"/>
        <path class="cls-2" d="M914.95,485.34c-.36,13.93-13.21,25.12-28.03,23.04-2.13-.3-3.85-.93-3.37-3.62,3-16.91,20.29-24.21,31.4-19.42Z"/>
        <path class="cls-8" d="M820.04,484.83c11.89-4.1,26.44,5.14,29.31,18.61,.25,1.17,.33,2.37,.55,4.06-6.53,1.71-12.74,1.71-18.64-2.05-.39-.95-.69-1.96-1.19-2.85-3.32-5.94-6.68-11.85-10.03-17.77Z"/>
        <path class="cls-11" d="M820.04,484.83c3.35,5.92,6.71,11.83,10.03,17.77,.5,.89,.8,1.9,1.19,2.85-7.21-3.74-11.47-9.66-12.85-17.63-.22-1.26-.78-3.02,1.63-2.99Z"/>
      </g>
      <g>
        <path class="cls-1" d="M631.69,947.51c-11.51-14.77-26.22-22.79-44.11-24.03l-20.11,.1c-17.76,1.25-32.43,9.3-44.01,24.14-11.24,14.43-16.86,32.01-16.86,52.75s5.62,38.53,16.86,52.96c11.58,14.84,26.25,22.89,44.01,24.14l20.11-.1c17.9-1.25,32.6-9.26,44.11-24.03,11.31-14.5,16.96-32.15,16.96-52.96s-5.65-38.46-16.96-52.96Zm-14.77,84.28c-4.02,23.17-13.8,35.55-29.34,37.14h-20.11c-4.79-.48-9.12-1.98-13.01-4.47-12.42-8.12-18.62-29.44-18.62-63.99,0-23.51,2.88-40.89,8.64-52.13,5.13-9.78,12.8-15.19,22.99-16.23h20.11c4.79,.56,9.12,2.08,13.01,4.58,12.42,8.12,18.62,29.38,18.62,63.78,0,12.35-.76,22.79-2.29,31.32Z"/>
        <path class="cls-1" d="M816.61,984.86c10-10.35,15.35-18.32,16.05-23.92-1.82-.49-3.92-1.05-6.29-1.68-2.38-.63-4.62-1.61-6.71-2.94-5.04-3.22-7.55-8.11-7.55-14.69,0-4.62,1.05-8.25,3.15-10.91,4.06-5.04,8.95-7.55,14.69-7.55,6.5,0,11.5,2.52,15,7.55,2.94,4.2,4.41,8.85,4.41,13.95s-.56,9.53-1.68,13.27c-1.12,3.74-2.69,7.43-4.72,11.07-3.78,6.58-9.72,13.92-17.84,22.03l-8.5-6.19Z"/>
        <path class="cls-1" d="M491.68,1053.79c-.98,0-1.85,.4-2.62,1.21-.77,.8-1.73,2.06-2.89,3.78-1.15,1.71-2.47,2.57-3.93,2.57-2.94,0-5.81-2.62-8.6-7.87-1.26-2.38-2.45-5.07-3.57-8.08-1.12-3.01-2.26-6.08-3.41-9.23-1.15-3.15-2.36-6.22-3.62-9.23-3.64-8.95-8.74-15.7-15.32-20.25-2.94-2.03-7.66-3.57-14.16-4.62v-.94c7.13-.35,13.5-1.43,19.09-3.25,17.42-5.52,26.12-16.68,26.12-33.47,0-11.12-3.92-20.04-11.75-26.75-8.67-7.48-21.19-11.23-37.56-11.23h-71.34v7.87c1.89,.77,3.72,1.35,5.51,1.73,1.78,.39,3.37,.93,4.77,1.63,3.15,1.54,4.72,4.51,4.72,8.92v109c0,4.34-1.57,7.27-4.72,8.81-1.4,.7-2.99,1.24-4.77,1.63-1.78,.39-3.62,.96-5.51,1.73v7.76h64.73v-7.76c-1.89-.77-3.72-1.35-5.51-1.73-1.78-.38-3.41-.93-4.88-1.63-3.15-1.54-4.72-4.48-4.72-8.81v-45.64h9.34c4.69,3.57,8.46,9.44,11.33,17.63,1.26,3.57,2.73,8.66,4.41,15.26,1.68,6.61,3.67,12.54,5.98,17.78,5.04,11.4,13.6,17.1,25.7,17.1,13.5,0,23.15-5.21,28.96-15.63v-8.18c-.21-.07-.8-.11-1.78-.11Zm-74.59-59.28h-9.34v-57.91h9.34c8.67,.42,14.79,2.73,18.36,6.92,3.85,4.41,5.77,12.1,5.77,23.08,0,9.65-2.1,16.72-6.29,21.19-3.57,3.71-9.51,5.95-17.84,6.71Z"/>
        <path class="cls-1" d="M783.56,1005.64c-8.18-6.15-18.82-9.44-31.89-9.86v-.42c10.91-1.4,19.58-4.69,26.02-9.86,7.27-5.88,10.91-13.67,10.91-23.4,0-11.4-3.97-20.2-11.91-26.39-7.94-6.19-20.23-9.28-36.88-9.28h-77.22v7.87c1.89,.77,3.72,1.35,5.51,1.73,1.78,.39,3.41,.93,4.88,1.63,3.08,1.54,4.62,4.51,4.62,8.92v109c0,4.34-1.54,7.27-4.62,8.81-1.47,.7-3.09,1.24-4.88,1.63-1.78,.39-3.62,.96-5.51,1.73v7.76h76.38c19.09,0,33.78-4.09,44.06-12.27,9.37-7.41,14.06-17.21,14.06-29.38s-4.51-21.37-13.53-28.22Zm-47.42-67.25c10,3.71,15,12.17,15,25.39,0,18.46-9.79,27.7-29.38,27.7h-9.34v-54.87l14.9-.11c2.45,0,5.39,.63,8.81,1.89Zm-8.92,126c-2.45,0-14.79-.42-14.79-.42v-60.64h9.34c24.48,0,36.72,10.18,36.72,30.53s-10.42,30.53-31.26,30.53Z"/>
        <path class="cls-1" d="M961.6,999.55c-3.71-3.36-7.94-6.24-12.69-8.66-4.76-2.41-9.6-4.62-14.53-6.61-4.93-1.99-9.77-3.92-14.53-5.77-4.76-1.85-8.99-3.92-12.69-6.19-3.71-2.27-6.7-4.88-8.97-7.82-2.27-2.94-3.41-6.64-3.41-11.12s1.73-8.25,5.19-11.33c3.46-3.08,8.03-4.89,13.69-5.46h9.34c6.15,1.26,11.37,4.69,15.63,10.28,1.89,2.52,3.55,5.23,4.98,8.13,1.43,2.9,3.27,6.82,5.51,11.75,2.24,4.93,4.34,8.45,6.29,10.54h7.97v-50.88h-9.44c-1.26,1.68-2.41,3.17-3.46,4.46-1.05,1.29-2.15,1.94-3.3,1.94s-2.36-.42-3.62-1.26c-7.13-4.55-13.99-7.34-20.56-8.39h-9.34c-14.62,.14-26.54,4.93-35.78,14.37-8.25,8.53-12.38,18.43-12.38,29.69s4.13,20.04,12.38,27.17c3.71,3.22,7.94,6,12.69,8.34,4.76,2.34,9.62,4.53,14.58,6.56,4.97,2.03,9.83,4.02,14.58,5.98,4.76,1.96,8.99,4.16,12.69,6.61,3.71,2.45,6.7,5.28,8.97,8.5,2.27,3.22,3.41,7.59,3.41,13.11s-1.94,10.16-5.82,13.9c-3.88,3.74-9.22,6-16,6.77h-9.34c-8.95-.84-16.19-4.55-21.72-11.12-2.38-2.87-4.39-5.96-6.03-9.28-1.64-3.32-3.6-7.62-5.88-12.9-2.27-5.28-4.7-8.72-7.29-10.33h-7.03v54.87h10.6c1.75-4.2,3.92-6.3,6.5-6.3,1.05,0,2.45,.39,4.2,1.15,1.75,.77,5,2.08,9.76,3.93,4.76,1.85,10.39,2.99,16.89,3.41h9.34c16.3-.77,29.1-6.22,38.4-16.37,8.39-9.02,12.59-20.18,12.59-33.47,0-11.33-4.13-20.74-12.38-28.22Z"/>
      </g>
    </g>
  </g>
</svg>