<?xml version="1.0" encoding="UTF-8"?>
<svg id="Layer_2" data-name="Layer 2" xmlns="http://www.w3.org/2000/svg" viewBox="0 0 567.97 200">
  <defs>
    <style>
      .cls-1 {
        fill: #00b5d1;
      }

      .cls-2 {
        fill: #fff;
      }
    </style>
  </defs>
  <g id="Layer_1-2" data-name="Layer 1">
    <g>
      <path class="cls-2" d="M107.19,89.53v36.57c0,9.33,4.54,13.87,13.87,13.87h4.04c9.33,0,13.87-4.54,13.87-13.87v-17.91h21.44v17.15c0,23.46-11.85,35.56-35.56,35.56h-4.54c-23.46,0-35.56-11.85-35.56-32.79V38.34C84.74,12.11,96.6,0,120.3,0h4.54c23.46,0,35.56,11.85,35.56,35.56v53.72h-53.22v.25ZM107.19,68.1h31.53v-33.29c0-9.33-4.54-13.87-13.87-13.87h-3.53c-9.33,0-13.87,4.54-13.87,13.87v33.29h-.25Z"/>
      <path class="cls-2" d="M175.03,2.02h22.19v10.09c5.3-5.55,14.38-11.85,26.99-11.85,18.92,0,28.25,12.61,28.25,31.02v98.36c0,18.66-9.33,31.02-28.25,31.02-12.86,0-21.69-6.05-26.99-11.35v50.69h-22.19V2.02ZM197.23,131.65c6.05,5.3,13.11,8.07,20.43,8.07,8.07,0,12.86-3.78,12.86-12.86V34.05c0-9.08-4.54-12.86-12.86-12.86-7.31,0-14.38,3.03-20.43,8.07v102.4Z"/>
      <path class="cls-2" d="M265.83,104.41c0-19.42,6.31-27.24,23.2-33.04l29.76-10.09v-26.48c0-9.33-4.54-14.38-13.87-14.38h-3.53c-9.33,0-13.87,5.04-13.87,14.38v22.19h-21.44v-21.44C266.08,12.11,277.93,0,301.64,0h4.29C329.38,0,341.49,11.85,341.49,35.56v123.33h-22.19v-9.84c-6.05,5.8-14.38,11.6-26.99,11.6-17.65,0-25.98-10.09-25.98-27.74v-28.5h-.5ZM318.79,132.41v-51.7l-20.18,7.57c-8.07,3.28-10.84,7.31-10.84,16.39v23.96c0,7.57,3.78,11.35,10.84,11.35,6.81-.25,12.86-2.52,20.18-7.57Z"/>
      <path class="cls-2" d="M430.26,158.89h-22.19V32.53c0-7.82-3.78-11.35-10.59-11.35-6.05,0-12.61,2.27-20.43,7.82v129.89h-22.19V2.02h22.19v10.09c6.31-6.05,14.88-11.85,26.99-11.85,11.35,0,18.92,4.54,22.95,12.86,7.82-6.81,17.15-12.86,30.01-12.86,17.15,0,25.98,10.59,25.98,27.74v131.15h-22.19V32.53c0-7.82-3.78-11.35-10.59-11.35-6.05,0-12.61,2.27-20.43,7.82v129.89h.5Z"/>
      <path class="cls-1" d="M56.75,16.39v29l-37.07,35.31,37.07,34.8v29.51L0,91.55v-21.19L56.75,16.39Z"/>
      <path class="cls-1" d="M567.97,70.37v21.19l-56.75,53.47v-29.51l37.07-34.8-37.07-35.56v-28.75l56.75,53.97Z"/>
    </g>
  </g>
</svg>